<svg xmlns="http://www.w3.org/2000/svg" width="24" height="24" viewBox="0 0 24 24">
    <g fill="none" fill-rule="evenodd">
        <g fill="#fc6020">
            <g>
                <g>
                    <g>
                        <g>
                            <path d="M3 12.75c.414 0 .75.336.75.75v2.25c0 .414-.336.75-.75.75H.75c-.414 0-.75-.336-.75-.75V13.5c0-.414.336-.75.75-.75H3zm6.375 0c.414 0 .75.336.75.75v2.25c0 .414-.336.75-.75.75h-2.25c-.414 0-.75-.336-.75-.75V13.5c0-.414.336-.75.75-.75h2.25zm6.375 0c.414 0 .75.336.75.75v2.25c0 .414-.336.75-.75.75H13.5c-.414 0-.75-.336-.75-.75V13.5c0-.414.336-.75.75-.75h2.25zM3 6.375c.414 0 .75.336.75.75v2.25c0 .414-.336.75-.75.75H.75c-.414 0-.75-.336-.75-.75v-2.25c0-.414.336-.75.75-.75H3zm6.375 0c.414 0 .75.336.75.75v2.25c0 .414-.336.75-.75.75h-2.25c-.414 0-.75-.336-.75-.75v-2.25c0-.414.336-.75.75-.75h2.25zm6.375 0c.414 0 .75.336.75.75v2.25c0 .414-.336.75-.75.75H13.5c-.414 0-.75-.336-.75-.75v-2.25c0-.414.336-.75.75-.75h2.25zM3 0c.414 0 .75.336.75.75V3c0 .414-.336.75-.75.75H.75C.336 3.75 0 3.414 0 3V.75C0 .336.336 0 .75 0H3zm6.375 0c.414 0 .75.336.75.75V3c0 .414-.336.75-.75.75h-2.25c-.414 0-.75-.336-.75-.75V.75c0-.414.336-.75.75-.75h2.25zm6.375 0c.414 0 .75.336.75.75V3c0 .414-.336.75-.75.75H13.5c-.414 0-.75-.336-.75-.75V.75c0-.414.336-.75.75-.75h2.25z" transform="translate(-1508 -2504) translate(355 2483) translate(1073 15) translate(80 6) translate(3.75 3.75)"/>
                        </g>
                    </g>
                </g>
            </g>
        </g>
    </g>
</svg>
