<svg xmlns="http://www.w3.org/2000/svg" width="28" height="28" viewBox="0 0 28 28">
    <defs>
        <linearGradient id="zqtlxdq41a" x1="50%" x2="50%" y1="0%" y2="100%">
            <stop offset="0%" stop-color="#FF1F00"/>
            <stop offset="100%" stop-color="#FF7330"/>
        </linearGradient>
    </defs>
    <g fill="none" fill-rule="evenodd">
        <g>
            <g>
                <g>
                    <g>
                        <path fill="url(#zqtlxdq41a)" d="M12.25 0C19.015 0 24.5 5.485 24.5 12.25S19.015 24.5 12.25 24.5 0 19.015 0 12.25 5.485 0 12.25 0z" transform="translate(-524 -1165) translate(508 1155) translate(16 10) translate(1.75 1.75)"/>
                        <path fill="#FFF" d="M11.107 10.114l-.003-.003c-.074-.06-.133-.124-.175-.188-.08-.123-.108-.225-.108-.33 0-.518.606-.643 1.411-.643 1.292 0 2.262.494 2.799.494.772 0 1.252-.536 1.252-1.254 0-.462-.14-.821-.426-1.112-.738-.753-2.618-.953-3.54-.953-2.669 0-4.54 1.335-4.54 3.508 0 3.786 4.807 3.62 5.897 4.68.135.137.219.264.219.487 0 .465-.48.689-1.494.689-1.844 0-2.888-.91-3.626-.91-.772 0-1.248.648-1.248 1.4 0 1.643 2.694 2.396 4.573 2.396 2.702 0 4.877-1.215 4.877-3.798 0-3.887-4.788-3.532-5.868-4.463" transform="translate(-524 -1165) translate(508 1155) translate(16 10) translate(1.75 1.75)"/>
                    </g>
                </g>
            </g>
        </g>
    </g>
</svg>
