<?xml version="1.0" encoding="utf-8"?>
<!-- Generator: Adobe Illustrator 25.0.0, SVG Export Plug-In . SVG Version: 6.00 Build 0)  -->
<svg version="1.1" id="레이어_1" xmlns="http://www.w3.org/2000/svg" xmlns:xlink="http://www.w3.org/1999/xlink" x="0px"
	 y="0px" viewBox="0 0 533.3 533.3" style="enable-background:new 0 0 533.3 533.3;" xml:space="preserve">
<style type="text/css">
	.st0{fill-rule:evenodd;clip-rule:evenodd;fill:#FE4747;}
</style>
<path class="st0" d="M266.7,0C119.7,0,0,119.7,0,266.7s119.7,266.7,266.7,266.7s266.7-119.7,266.7-266.7S413.7,0,266.7,0z
	 M266.7,498.8c-128,0-232.1-104.1-232.1-232.1S138.7,34.5,266.7,34.5s232.1,104.1,232.1,232.1S394.7,498.8,266.7,498.8z
	 M357.3,188.9h2.1v-10.2h3.8v-1.8h-9.7v1.8h3.8L357.3,188.9L357.3,188.9z M366.5,179.6L366.5,179.6l3.3,9.3h1.7l3.3-9.3l0,0v9.3h2
	v-12H374l-3.2,9.4h-0.1l-3.3-9.4h-3v12h2L366.5,179.6z M305.9,176.9H174.8l-19.9,32h131L305.9,176.9z M332.8,177.2l-80.2,127.7
	h-88.9l20.5-32h53.3l20.4-32H134.6l-20.4,32h29.2l-40.5,63.9h169.1l62.5-98.5l22.8,34.6h-20.5l-19.5,32H378l21.1,31.9h38.8
	L332.8,177.2z"/>
</svg>
