<svg id="레이어_1" data-name="레이어 1" xmlns="http://www.w3.org/2000/svg" viewBox="0 0 533.33 533.33"><defs><style>.cls-1{fill:#777;fill-rule:evenodd;}</style></defs><path class="cls-1" d="M600,133.33C453,133.33,333.34,253,333.34,400S453,666.67,600,666.67,866.66,547,866.66,400,747,133.33,600,133.33Zm0,498.8C472,632.13,367.88,528,367.88,400S472,167.87,600,167.87,832.12,272,832.12,400,728,632.13,600,632.13Zm90.6-309.91h2.1V312h3.79v-1.79h-9.68V312h3.79v10.2Zm9.25-9.27h0l3.33,9.27h1.71l3.33-9.27h0v9.27h2v-12h-2.91l-3.21,9.38h-.06l-3.29-9.38h-2.95v12h2Zm-60.56-2.73H508.1l-19.9,32h131Zm26.81.3-80.2,127.7H497l20.52-32h53.31l20.37-32H467.89l-20.36,32h29.2l-40.51,63.91H605.29l62.45-98.48,22.77,34.57H670l-19.45,32h60.8l21.12,31.9h38.78Z" transform="translate(-333.34 -133.33)"/></svg>