<svg width="170" height="99" viewBox="0 0 170 99" fill="none" xmlns="http://www.w3.org/2000/svg">
<g clip-path="url(#clip0)">
<path d="M84.5711 0C67.6411 0 53.8711 13.77 53.8711 30.7C53.8711 47.63 67.6411 61.4 84.5711 61.4C101.491 61.4 115.271 47.63 115.271 30.7C115.271 13.77 101.501 0 84.5711 0ZM84.5711 57.14C69.9711 57.14 58.1311 45.3 58.1311 30.7C58.1311 16.09 69.9711 4.26 84.5711 4.26C99.1711 4.26 111.011 16.09 111.011 30.7C111.011 45.3 99.1811 57.14 84.5711 57.14Z" fill="white"/>
<path d="M73.0991 14.2103H88.8791L86.4591 18.0403L70.6791 18.0503L73.0991 14.2103ZM84.5291 33.3903H79.9091V33.4003H64.5391L69.3991 25.7203H65.8291L68.2591 21.8803H83.1191L80.6891 25.7203H74.0291L71.5691 29.5603H82.2991L92.1091 14.0703L104.319 33.3903H99.7091L97.2791 29.5603H90.0591L92.4891 25.7103H94.8491L92.0991 21.3503L84.5291 33.3903Z" fill="white"/>
<path d="M105.548 35.7806H105.238V36.4406H105.078V35.7806H104.758V35.6406H105.548V35.7806Z" fill="white"/>
<path d="M106.622 36.4406H106.472V35.9406C106.472 35.9206 106.472 35.8906 106.482 35.8506C106.472 35.8806 106.462 35.9106 106.442 35.9406L106.192 36.3306H106.162L105.902 35.9306C105.882 35.9106 105.872 35.8806 105.852 35.8506C105.852 35.8806 105.872 35.9106 105.872 35.9406V36.4406H105.742V35.6406H105.872L106.182 36.1206L106.502 35.6406H106.622V36.4406V36.4406Z" fill="white"/>
<path d="M69.9003 41.8911C69.9003 42.3811 69.7303 42.8011 69.3903 43.1411C69.0503 43.4811 68.6303 43.6611 68.1403 43.6611H66.0603C65.5703 43.6611 65.1503 43.4911 64.8203 43.1611C64.4903 42.8311 64.3203 42.4211 64.3203 41.9211V41.1011H65.6003L65.7903 41.8611C65.8703 42.1711 66.0903 42.3411 66.4503 42.3411H67.8603C68.0403 42.3411 68.1803 42.2811 68.2903 42.1411C68.3903 42.0111 68.4503 41.8511 68.4503 41.6611V40.7511C68.4503 40.3111 68.2503 40.0811 67.8603 40.0811H66.0903C65.6103 40.0811 65.1903 39.9111 64.8403 39.5711C64.5003 39.2211 64.3303 38.8111 64.3303 38.3211V37.1211C64.3303 36.6411 64.5003 36.2311 64.8403 35.8911C65.1903 35.5411 65.6103 35.3711 66.0903 35.3711H68.1403C68.6203 35.3711 69.0303 35.5411 69.3703 35.8611C69.7103 36.1911 69.8703 36.6011 69.8703 37.1011V37.8411H68.6003L68.4103 37.1611C68.3103 36.8411 68.0903 36.6811 67.7603 36.6811H66.3703C66.1903 36.6811 66.0503 36.7411 65.9403 36.8711C65.8303 37.0011 65.7803 37.1611 65.7803 37.3611V38.0611C65.7803 38.5011 65.9803 38.7111 66.3703 38.7111H68.1403C68.6203 38.7111 69.0303 38.8811 69.3803 39.2311C69.7303 39.5811 69.9003 39.9911 69.9003 40.4711V41.8911V41.8911Z" fill="white"/>
<path d="M75.0811 36.7111H73.0811V39.2811H75.0811C75.2511 39.2811 75.4011 39.2111 75.5011 39.0911C75.6111 38.9611 75.6711 38.8011 75.6711 38.6011V37.3911C75.6711 37.1911 75.6111 37.0311 75.5011 36.9011C75.4011 36.7711 75.2511 36.7111 75.0811 36.7111ZM77.1411 38.8611C77.1411 39.3511 76.9711 39.7611 76.6311 40.1011C76.2811 40.4411 75.8611 40.6211 75.3711 40.6211H73.0911V43.6611H71.6211V35.3711H75.3711C75.8511 35.3711 76.2711 35.5411 76.6311 35.8911C76.9711 36.2311 77.1411 36.6411 77.1411 37.1211V38.8611Z" fill="white"/>
<path d="M89.3431 36.7111H87.4231V39.0811H89.3431C89.5131 39.0811 89.6531 39.0211 89.7531 38.9011C89.8631 38.7711 89.9131 38.6111 89.9131 38.4111V37.3911C89.9131 37.1911 89.8631 37.0311 89.7531 36.9011C89.6531 36.7711 89.5031 36.7111 89.3431 36.7111ZM90.1631 43.6611L88.8131 40.4111H87.4231V43.6611H85.9531V35.3711H89.6131C90.1031 35.3711 90.5231 35.5411 90.8631 35.8911C91.2031 36.2311 91.3831 36.6411 91.3831 37.1211V38.5711C91.3831 38.9511 91.2731 39.2911 91.0731 39.5911C90.8531 39.8911 90.5831 40.1011 90.2631 40.2411L91.7131 43.6711H90.1631V43.6611Z" fill="white"/>
<path d="M98.0069 36.7111H95.8769V43.6611H94.4069V36.7111H92.2969V35.3711H98.0069V36.7111Z" fill="white"/>
<path d="M104.648 41.8911C104.648 42.3811 104.478 42.8011 104.138 43.1411C103.788 43.4811 103.378 43.6611 102.888 43.6611H100.818C100.328 43.6611 99.9181 43.4911 99.5781 43.1611C99.2481 42.8311 99.0781 42.4211 99.0781 41.9211V41.1011H100.358L100.548 41.8611C100.638 42.1711 100.848 42.3411 101.208 42.3411H102.618C102.798 42.3411 102.938 42.2811 103.048 42.1411C103.158 42.0111 103.208 41.8511 103.208 41.6611V40.7511C103.208 40.3111 103.008 40.0811 102.618 40.0811H100.848C100.358 40.0811 99.9381 39.9111 99.5981 39.5711C99.2581 39.2211 99.0781 38.8111 99.0781 38.3211V37.1211C99.0781 36.6411 99.2581 36.2311 99.5981 35.8911C99.9381 35.5411 100.358 35.3711 100.848 35.3711H102.898C103.388 35.3711 103.798 35.5411 104.138 35.8611C104.468 36.1911 104.638 36.6011 104.638 37.1011V37.8411H103.358L103.168 37.1611C103.068 36.8411 102.848 36.6811 102.518 36.6811H101.128C100.948 36.6811 100.808 36.7411 100.698 36.8711C100.588 37.0011 100.538 37.1611 100.538 37.3611V38.0611C100.538 38.5011 100.738 38.7111 101.128 38.7111H102.888C103.368 38.7111 103.788 38.8811 104.128 39.2311C104.488 39.5811 104.658 39.9911 104.658 40.4711V41.8911H104.648Z" fill="white"/>
<path d="M84.1628 41.8794C84.1628 42.3794 83.9928 42.7994 83.6428 43.1394C83.2928 43.4794 82.8828 43.6594 82.3928 43.6594H80.4128C79.9228 43.6594 79.5028 43.4894 79.1528 43.1394C78.8128 42.7994 78.6328 42.3794 78.6328 41.8794V37.1094C78.6328 36.6294 78.8028 36.2194 79.1528 35.8794C79.4928 35.5294 79.9128 35.3594 80.4128 35.3594H82.3928C82.8828 35.3594 83.2928 35.5294 83.6428 35.8694C83.9928 36.1994 84.1628 36.6194 84.1628 37.1094V41.8794ZM82.1128 36.7094H80.7128C80.5328 36.7094 80.3928 36.7694 80.2828 36.8994C80.1728 37.0294 80.1228 37.1894 80.1228 37.3894V41.6394C80.1228 41.8294 80.1728 41.9894 80.2828 42.1194C80.3928 42.2494 80.5328 42.3194 80.7128 42.3194H82.1128C82.2828 42.3194 82.4228 42.2494 82.5328 42.1194C82.6428 41.9894 82.7028 41.8294 82.7028 41.6394V37.3894C82.7028 37.1894 82.6428 37.0294 82.5328 36.8994C82.4228 36.7694 82.2828 36.7094 82.1128 36.7094Z" fill="white"/>
<path d="M149.819 74.9625H151.099L151.559 73.7125H149.819V72.5525H151.979L152.429 71.3125H148.039V77.0225H149.819V74.9625Z" fill="white"/>
<path d="M154.749 71.3125H152.969V77.0225H154.749V71.3125Z" fill="white"/>
<path d="M157.747 74.9625H159.027L159.487 73.7125H157.747V72.5525H159.907L160.357 71.3125H155.977V77.0225H157.747V74.9625Z" fill="white"/>
<path d="M161.188 77.0225L161.408 76.2525H163.417L163.647 77.0225H165.447L163.367 71.3125H161.518L159.438 77.0225H161.188ZM162.417 72.7825L163.128 75.1625H161.727L162.417 72.7825Z" fill="white"/>
<path d="M164.828 72.7781C164.908 72.8581 164.998 72.9181 165.098 72.9581C165.198 73.0081 165.308 73.0281 165.428 73.0281C165.548 73.0281 165.658 73.0081 165.758 72.9581C165.858 72.9181 165.948 72.8481 166.028 72.7781C166.108 72.6981 166.168 72.6081 166.208 72.5081C166.258 72.4081 166.278 72.2981 166.278 72.1781C166.278 72.0581 166.258 71.9481 166.208 71.8481C166.158 71.7481 166.098 71.6581 166.028 71.5781C165.948 71.4981 165.858 71.4381 165.758 71.3981C165.658 71.3481 165.548 71.3281 165.428 71.3281C165.308 71.3281 165.198 71.3481 165.098 71.3981C164.998 71.4481 164.908 71.5081 164.828 71.5781C164.748 71.6581 164.688 71.7481 164.648 71.8481C164.598 71.9481 164.578 72.0581 164.578 72.1781C164.578 72.2981 164.598 72.4081 164.648 72.5081C164.688 72.6081 164.748 72.6981 164.828 72.7781ZM164.838 71.8981C164.868 71.8181 164.918 71.7381 164.978 71.6781C165.038 71.6181 165.108 71.5681 165.188 71.5381C165.268 71.5081 165.348 71.4881 165.438 71.4881C165.528 71.4881 165.608 71.5081 165.688 71.5381C165.768 71.5681 165.838 71.6181 165.898 71.6781C165.958 71.7381 165.998 71.8081 166.038 71.8981C166.068 71.9781 166.088 72.0781 166.088 72.1781C166.088 72.2781 166.068 72.3681 166.038 72.4581C166.008 72.5381 165.958 72.6181 165.898 72.6781C165.838 72.7381 165.768 72.7881 165.688 72.8181C165.608 72.8481 165.528 72.8681 165.438 72.8681C165.348 72.8681 165.268 72.8481 165.188 72.8181C165.108 72.7881 165.038 72.7381 164.978 72.6781C164.918 72.6181 164.878 72.5481 164.838 72.4581C164.808 72.3781 164.788 72.2781 164.788 72.1781C164.788 72.0781 164.798 71.9881 164.838 71.8981Z" fill="white"/>
<path d="M165.287 72.2375H165.397L165.647 72.6575H165.837L165.577 72.2375C165.657 72.2275 165.717 72.2075 165.767 72.1675C165.807 72.1275 165.837 72.0675 165.837 71.9775C165.837 71.8775 165.807 71.7975 165.747 71.7575C165.687 71.7175 165.597 71.6875 165.477 71.6875H165.117V72.6575H165.297V72.2375H165.287ZM165.287 71.8275H165.447C165.467 71.8275 165.497 71.8275 165.517 71.8275C165.537 71.8275 165.557 71.8375 165.577 71.8475C165.597 71.8575 165.607 71.8675 165.627 71.8875C165.637 71.9075 165.647 71.9275 165.647 71.9575C165.647 71.9875 165.637 72.0175 165.627 72.0375C165.617 72.0575 165.597 72.0675 165.587 72.0775C165.567 72.0875 165.547 72.0975 165.527 72.0975C165.507 72.0975 165.477 72.0975 165.447 72.0975H165.287V71.8275Z" fill="white"/>
<path d="M149.93 87.145C150.01 87.235 150.12 87.305 150.24 87.355C150.36 87.405 150.51 87.425 150.67 87.425C150.83 87.425 150.97 87.405 151.1 87.355C151.22 87.305 151.33 87.235 151.41 87.145C151.49 87.055 151.56 86.945 151.6 86.825C151.64 86.695 151.66 86.555 151.66 86.395C151.66 86.235 151.64 86.095 151.6 85.965C151.56 85.835 151.49 85.725 151.41 85.645C151.33 85.555 151.22 85.485 151.1 85.445C150.98 85.395 150.83 85.375 150.67 85.375C150.51 85.375 150.36 85.395 150.24 85.445C150.12 85.495 150.01 85.565 149.93 85.645C149.85 85.735 149.78 85.845 149.74 85.965C149.7 86.095 149.68 86.235 149.68 86.395C149.68 86.555 149.7 86.695 149.74 86.825C149.78 86.945 149.84 87.055 149.93 87.145ZM150.25 86.145C150.27 86.065 150.29 86.005 150.33 85.945C150.37 85.885 150.41 85.845 150.47 85.805C150.53 85.775 150.6 85.755 150.68 85.755C150.76 85.755 150.83 85.775 150.89 85.805C150.95 85.835 150.99 85.885 151.03 85.945C151.07 86.005 151.09 86.075 151.11 86.145C151.13 86.225 151.14 86.305 151.14 86.385C151.14 86.465 151.13 86.545 151.11 86.625C151.09 86.705 151.07 86.765 151.03 86.825C150.99 86.885 150.95 86.935 150.89 86.965C150.83 87.005 150.76 87.015 150.68 87.015C150.6 87.015 150.53 86.995 150.47 86.965C150.41 86.935 150.37 86.885 150.33 86.825C150.29 86.765 150.27 86.695 150.25 86.625C150.23 86.545 150.22 86.465 150.22 86.385C150.22 86.305 150.23 86.225 150.25 86.145Z" fill="white"/>
<path d="M152.616 86.5884H153.386V86.2084H152.616V85.7784H153.416V85.3984H152.086V87.3884H152.616V86.5884Z" fill="white"/>
<path d="M154.35 86.5884H155.12V86.2084H154.35V85.7784H155.15V85.3984H153.82V87.3884H154.35V86.5884Z" fill="white"/>
<path d="M156.116 85.3984H155.586V87.3884H156.116V85.3984Z" fill="white"/>
<path d="M156.945 87.1894C157.055 87.2694 157.175 87.3294 157.315 87.3594C157.455 87.3994 157.585 87.4094 157.715 87.4094C157.845 87.4094 157.965 87.3994 158.055 87.3794C158.145 87.3594 158.225 87.3394 158.305 87.3294L158.275 86.9094C158.205 86.9394 158.125 86.9594 158.035 86.9794C157.945 86.9994 157.865 87.0094 157.775 87.0094C157.675 87.0094 157.585 86.9994 157.505 86.9694C157.425 86.9394 157.355 86.8994 157.295 86.8494C157.235 86.7994 157.195 86.7294 157.155 86.6494C157.125 86.5694 157.105 86.4794 157.105 86.3894C157.105 86.2994 157.115 86.2094 157.145 86.1294C157.175 86.0494 157.215 85.9794 157.275 85.9294C157.325 85.8694 157.395 85.8294 157.475 85.7994C157.555 85.7694 157.635 85.7494 157.735 85.7494C157.825 85.7494 157.915 85.7594 157.995 85.7794C158.075 85.7994 158.165 85.8394 158.245 85.8894L158.285 85.4594C158.185 85.4294 158.095 85.4094 157.995 85.3894C157.895 85.3694 157.795 85.3594 157.695 85.3594C157.535 85.3594 157.385 85.3794 157.245 85.4194C157.105 85.4594 156.985 85.5294 156.885 85.6094C156.785 85.6994 156.705 85.7994 156.645 85.9294C156.585 86.0594 156.555 86.2094 156.555 86.3794C156.555 86.5694 156.585 86.7294 156.655 86.8594C156.755 87.0094 156.845 87.1194 156.945 87.1894Z" fill="white"/>
<path d="M159.257 85.3984H158.727V87.3884H159.257V85.3984Z" fill="white"/>
<path d="M160.325 86.9528H161.075L161.225 87.3728H161.805L161.035 85.3828H160.385L159.625 87.3728H160.165L160.325 86.9528ZM160.705 85.8028L160.945 86.5828H160.445L160.705 85.8028Z" fill="white"/>
<path d="M163.508 86.9984H162.678V85.3984H162.148V87.3884H163.508V86.9984Z" fill="white"/>
<path d="M151.024 90.3656H150.194V88.7656H149.664V90.7556H151.024V90.3656Z" fill="white"/>
<path d="M151.96 88.7656H151.43V90.7556H151.96V88.7656Z" fill="white"/>
<path d="M152.744 88.9966C152.644 89.0866 152.564 89.1866 152.504 89.3166C152.444 89.4466 152.414 89.5966 152.414 89.7666C152.414 89.9566 152.444 90.1166 152.514 90.2466C152.584 90.3766 152.674 90.4866 152.784 90.5566C152.894 90.6366 153.014 90.6966 153.154 90.7266C153.294 90.7666 153.424 90.7766 153.554 90.7766C153.684 90.7766 153.804 90.7666 153.894 90.7466C153.984 90.7266 154.064 90.7066 154.144 90.6966L154.114 90.2766C154.044 90.3066 153.964 90.3266 153.874 90.3466C153.784 90.3666 153.704 90.3766 153.614 90.3766C153.514 90.3766 153.424 90.3666 153.344 90.3366C153.264 90.3066 153.194 90.2666 153.134 90.2166C153.074 90.1666 153.034 90.0966 152.994 90.0166C152.964 89.9366 152.944 89.8466 152.944 89.7566C152.944 89.6666 152.954 89.5766 152.984 89.4966C153.014 89.4166 153.054 89.3466 153.114 89.2966C153.164 89.2366 153.234 89.1966 153.314 89.1666C153.394 89.1366 153.474 89.1166 153.574 89.1166C153.664 89.1166 153.754 89.1266 153.834 89.1466C153.914 89.1666 154.004 89.2066 154.084 89.2566L154.124 88.8266C154.024 88.7966 153.934 88.7766 153.834 88.7566C153.734 88.7366 153.634 88.7266 153.534 88.7266C153.374 88.7266 153.224 88.7466 153.084 88.7866C152.964 88.8466 152.844 88.9066 152.744 88.9966Z" fill="white"/>
<path d="M155.053 89.9356H155.873V89.5556H155.053V89.1456H155.923V88.7656H154.523V90.7556H155.953V90.3856H155.053V89.9356Z" fill="white"/>
<path d="M156.9 89.3956H156.91L157.6 90.7556H158.26V88.7656H157.78L157.79 90.1256H157.78L157.11 88.7656H156.43V90.7556H156.92L156.9 89.3956Z" fill="white"/>
<path d="M158.969 89.8022C159.039 89.8422 159.109 89.8822 159.199 89.9022C159.279 89.9222 159.359 89.9522 159.429 89.9722C159.499 89.9922 159.559 90.0222 159.599 90.0522C159.649 90.0822 159.669 90.1322 159.669 90.1922C159.669 90.2322 159.659 90.2622 159.639 90.2922C159.619 90.3222 159.599 90.3422 159.569 90.3522C159.539 90.3622 159.499 90.3722 159.459 90.3822C159.419 90.3822 159.379 90.3922 159.339 90.3922C159.229 90.3922 159.129 90.3822 159.039 90.3522C158.949 90.3322 158.869 90.2922 158.799 90.2622L158.749 90.7022C158.839 90.7322 158.939 90.7522 159.039 90.7622C159.149 90.7722 159.249 90.7822 159.339 90.7822C159.449 90.7822 159.559 90.7722 159.659 90.7522C159.769 90.7322 159.859 90.7022 159.939 90.6522C160.019 90.6022 160.089 90.5322 160.139 90.4522C160.189 90.3722 160.209 90.2622 160.209 90.1322C160.209 90.0122 160.189 89.9122 160.139 89.8422C160.089 89.7722 160.039 89.7122 159.969 89.6722C159.899 89.6322 159.829 89.5922 159.739 89.5722C159.659 89.5522 159.579 89.5322 159.509 89.5022C159.439 89.4822 159.379 89.4522 159.339 89.4322C159.289 89.4022 159.269 89.3622 159.269 89.3122C159.269 89.2722 159.279 89.2322 159.309 89.2122C159.329 89.1922 159.359 89.1722 159.399 89.1522C159.439 89.1422 159.469 89.1322 159.519 89.1322C159.559 89.1322 159.599 89.1322 159.629 89.1322C159.709 89.1322 159.779 89.1422 159.859 89.1522C159.939 89.1622 160.009 89.1922 160.069 89.2222L160.099 88.8122C160.029 88.7922 159.959 88.7722 159.869 88.7622C159.779 88.7522 159.689 88.7422 159.589 88.7422C159.489 88.7422 159.389 88.7522 159.279 88.7722C159.179 88.7922 159.079 88.8222 158.999 88.8722C158.919 88.9222 158.849 88.9822 158.799 89.0622C158.749 89.1422 158.719 89.2422 158.719 89.3622C158.719 89.4822 158.739 89.5822 158.789 89.6522C158.839 89.7022 158.899 89.7622 158.969 89.8022Z" fill="white"/>
<path d="M162.058 89.1456V88.7656H160.648V90.7556H162.088V90.3856H161.178V89.9356H162.008V89.5556H161.178V89.1456H162.058Z" fill="white"/>
<path d="M162.547 88.7656V90.7556H163.267C163.437 90.7556 163.597 90.7356 163.737 90.7056C163.877 90.6656 164.007 90.6156 164.107 90.5356C164.207 90.4556 164.297 90.3556 164.357 90.2256C164.417 90.0956 164.447 89.9456 164.447 89.7556C164.447 89.5656 164.417 89.4056 164.357 89.2756C164.297 89.1456 164.217 89.0456 164.117 88.9756C164.017 88.8956 163.887 88.8456 163.747 88.8156C163.607 88.7856 163.447 88.7656 163.267 88.7656H162.547ZM163.737 89.3156C163.847 89.4156 163.897 89.5656 163.897 89.7656C163.897 89.9656 163.847 90.1156 163.737 90.2156C163.627 90.3156 163.477 90.3656 163.277 90.3656H163.067V89.1656H163.277C163.477 89.1656 163.627 89.2156 163.737 89.3156Z" fill="white"/>
<path d="M150.194 93.4384H150.404C150.654 93.4384 150.844 93.3784 150.984 93.2684C151.124 93.1584 151.194 92.9984 151.194 92.7984C151.194 92.5784 151.124 92.4084 150.974 92.3084C150.834 92.1984 150.604 92.1484 150.294 92.1484H149.664V94.1384H150.194V93.4384V93.4384ZM150.194 92.5284H150.334C150.384 92.5284 150.424 92.5284 150.464 92.5384C150.504 92.5484 150.534 92.5584 150.564 92.5784C150.594 92.5984 150.614 92.6284 150.634 92.6584C150.654 92.6884 150.664 92.7384 150.664 92.7884C150.664 92.8384 150.654 92.8784 150.634 92.9184C150.614 92.9584 150.594 92.9784 150.564 93.0084C150.534 93.0284 150.504 93.0484 150.464 93.0584C150.424 93.0684 150.384 93.0684 150.334 93.0684H150.194V92.5284Z" fill="white"/>
<path d="M152.995 93.4284C152.975 93.3784 152.965 93.3384 152.945 93.2984C152.925 93.2584 152.905 93.2284 152.875 93.2084C152.845 93.1884 152.815 93.1684 152.775 93.1584V93.1484C152.905 93.1184 153.005 93.0584 153.065 92.9784C153.125 92.8884 153.155 92.7884 153.155 92.6484C153.155 92.5584 153.135 92.4884 153.105 92.4284C153.075 92.3684 153.025 92.3184 152.965 92.2684C152.905 92.2284 152.835 92.1984 152.755 92.1784C152.675 92.1584 152.595 92.1484 152.505 92.1484H151.555V94.1384H152.085V93.3484H152.195C152.245 93.3484 152.285 93.3584 152.325 93.3684C152.355 93.3784 152.395 93.3984 152.415 93.4384C152.445 93.4684 152.465 93.5184 152.495 93.5684C152.515 93.6184 152.545 93.6984 152.575 93.7784L152.685 94.1384H153.235L153.045 93.5984C153.035 93.5384 153.015 93.4784 152.995 93.4284ZM152.585 92.8784C152.565 92.9084 152.525 92.9284 152.495 92.9484C152.455 92.9684 152.415 92.9684 152.365 92.9784C152.315 92.9784 152.275 92.9784 152.235 92.9784H152.095V92.5284H152.235C152.285 92.5284 152.335 92.5284 152.385 92.5384C152.435 92.5484 152.475 92.5584 152.505 92.5684C152.545 92.5884 152.565 92.6084 152.595 92.6384C152.615 92.6684 152.625 92.7084 152.625 92.7484C152.625 92.7984 152.615 92.8484 152.585 92.8784Z" fill="white"/>
<path d="M155.3 92.3872C155.22 92.2972 155.11 92.2272 154.99 92.1872C154.87 92.1372 154.72 92.1172 154.56 92.1172C154.4 92.1172 154.25 92.1372 154.13 92.1872C154.01 92.2372 153.9 92.3072 153.82 92.3872C153.74 92.4772 153.67 92.5872 153.63 92.7072C153.59 92.8372 153.57 92.9772 153.57 93.1372C153.57 93.2972 153.59 93.4372 153.63 93.5672C153.67 93.6972 153.74 93.8072 153.82 93.8872C153.9 93.9772 154.01 94.0472 154.13 94.0972C154.25 94.1472 154.4 94.1672 154.56 94.1672C154.72 94.1672 154.86 94.1472 154.99 94.0972C155.11 94.0472 155.22 93.9772 155.3 93.8872C155.38 93.7972 155.45 93.6872 155.49 93.5672C155.53 93.4372 155.55 93.2972 155.55 93.1372C155.55 92.9772 155.53 92.8372 155.49 92.7072C155.44 92.5872 155.38 92.4772 155.3 92.3872ZM154.98 93.3772C154.96 93.4572 154.94 93.5172 154.9 93.5772C154.86 93.6372 154.82 93.6872 154.76 93.7172C154.7 93.7572 154.63 93.7672 154.55 93.7672C154.47 93.7672 154.4 93.7472 154.34 93.7172C154.28 93.6872 154.24 93.6372 154.2 93.5772C154.16 93.5172 154.14 93.4472 154.12 93.3772C154.1 93.2972 154.09 93.2172 154.09 93.1372C154.09 93.0472 154.1 92.9672 154.12 92.8972C154.14 92.8172 154.16 92.7572 154.2 92.6972C154.24 92.6372 154.28 92.5972 154.34 92.5572C154.4 92.5272 154.47 92.5072 154.55 92.5072C154.63 92.5072 154.7 92.5272 154.76 92.5572C154.82 92.5872 154.86 92.6372 154.9 92.6972C154.94 92.7572 154.96 92.8272 154.98 92.8972C155 92.9772 155.01 93.0572 155.01 93.1372C155 93.2272 155 93.3072 154.98 93.3772Z" fill="white"/>
<path d="M157.554 92.3428C157.454 92.2628 157.324 92.2128 157.184 92.1828C157.044 92.1528 156.884 92.1328 156.704 92.1328H155.984V94.1228H156.704C156.874 94.1228 157.034 94.1028 157.174 94.0728C157.314 94.0328 157.444 93.9828 157.544 93.9028C157.644 93.8228 157.734 93.7228 157.794 93.5928C157.854 93.4628 157.884 93.3128 157.884 93.1228C157.884 92.9328 157.854 92.7728 157.794 92.6428C157.744 92.5228 157.664 92.4228 157.554 92.3428ZM157.174 93.5828C157.064 93.6828 156.914 93.7328 156.714 93.7328H156.504V92.5328H156.714C156.914 92.5328 157.064 92.5828 157.174 92.6828C157.284 92.7828 157.334 92.9328 157.334 93.1328C157.334 93.3328 157.284 93.4828 157.174 93.5828Z" fill="white"/>
<path d="M158.56 93.9762C158.64 94.0362 158.73 94.0862 158.84 94.1162C158.95 94.1462 159.07 94.1663 159.19 94.1663C159.32 94.1663 159.44 94.1462 159.54 94.1162C159.65 94.0862 159.74 94.0362 159.82 93.9762C159.9 93.9162 159.96 93.8263 160 93.7363C160.04 93.6363 160.06 93.5162 160.06 93.3862V92.1562H159.53V93.3063C159.53 93.3763 159.52 93.4362 159.51 93.4962C159.5 93.5562 159.48 93.6062 159.46 93.6462C159.43 93.6862 159.4 93.7262 159.36 93.7562C159.32 93.7862 159.26 93.7962 159.19 93.7962C159.12 93.7962 159.07 93.7862 159.02 93.7562C158.98 93.7262 158.94 93.6962 158.92 93.6462C158.89 93.6062 158.88 93.5462 158.87 93.4962C158.86 93.4362 158.85 93.3763 158.85 93.3063V92.1562H158.32V93.3862C158.32 93.5262 158.34 93.6363 158.38 93.7363C158.43 93.8363 158.49 93.9162 158.56 93.9762Z" fill="white"/>
<path d="M161.949 93.745C161.859 93.765 161.779 93.775 161.689 93.775C161.589 93.775 161.499 93.765 161.419 93.735C161.339 93.705 161.269 93.665 161.209 93.615C161.149 93.565 161.109 93.495 161.069 93.415C161.039 93.335 161.019 93.245 161.019 93.155C161.019 93.065 161.029 92.975 161.059 92.895C161.089 92.815 161.129 92.745 161.189 92.695C161.239 92.635 161.309 92.595 161.389 92.565C161.469 92.535 161.549 92.515 161.649 92.515C161.739 92.515 161.829 92.525 161.909 92.545C161.989 92.565 162.079 92.605 162.159 92.655L162.199 92.225C162.099 92.195 162.009 92.175 161.909 92.155C161.809 92.135 161.709 92.125 161.609 92.125C161.449 92.125 161.299 92.145 161.159 92.185C161.019 92.225 160.899 92.295 160.799 92.375C160.699 92.465 160.619 92.565 160.559 92.695C160.499 92.825 160.469 92.975 160.469 93.145C160.469 93.335 160.499 93.495 160.569 93.625C160.639 93.755 160.729 93.865 160.839 93.935C160.949 94.015 161.069 94.075 161.209 94.105C161.349 94.145 161.479 94.155 161.609 94.155C161.739 94.155 161.859 94.145 161.949 94.125C162.039 94.105 162.119 94.085 162.199 94.075L162.169 93.655C162.109 93.705 162.029 93.725 161.949 93.745Z" fill="white"/>
<path d="M162.445 92.5384H162.935V94.1384H163.465V92.5384H163.955V92.1484H162.445V92.5384Z" fill="white"/>
<path d="M144.367 66.5859V98.1359H169.607V66.5859H144.367ZM169.337 97.8559H144.647V82.4959H169.337V97.8559ZM169.337 82.2159H144.647V66.8559H169.337V82.2159Z" fill="white"/>
<path d="M5.58 66.5859H29.12L27.93 73.4859H13.1L12.08 79.2859H24.03L22.84 86.1859H10.84L8.76 98.1359H0L5.58 66.5859Z" fill="white"/>
<path d="M32.1816 66.5859H40.9016L35.3216 98.1359H26.6016L32.1816 66.5859Z" fill="white"/>
<path d="M43.9489 66.5859H67.4889L66.2989 73.4859H51.4789L50.4589 79.2859H62.3989L61.2089 86.1859H49.2189L47.1389 98.1359H38.3789L43.9489 66.5859Z" fill="white"/>
<path d="M74.8008 66.5312H84.5808L89.6708 98.1213H81.0008L80.2908 92.5912H69.3608L66.7008 98.1213H58.3008L74.8008 66.5312ZM79.4508 86.0013L77.9908 74.6312H77.8108L72.5008 86.0013H79.4508Z" fill="white"/>
<path d="M134.079 66.5859L123.929 68.4659L122.969 74.1959L128.519 73.9359L124.239 98.1359H132.289L137.839 66.5859H134.079Z" fill="white"/>
<path d="M95.9416 93.3528L106.382 83.3928C108.682 81.1828 112.352 77.8228 112.352 74.8928C112.352 73.2528 111.112 72.4628 109.612 72.4628C106.822 72.4628 106.162 74.8128 105.802 77.0228H97.9716C98.0116 76.8928 98.2416 75.4328 98.2816 75.2928C99.4716 68.9228 104.922 66.1328 111.202 66.1328C116.162 66.1328 120.712 68.1228 120.712 73.7028C120.712 79.9028 114.382 84.6728 110.182 88.4428L107.222 91.1028L107.182 91.3228H118.112L116.922 98.1328H95.1016L95.9416 93.3528Z" fill="white"/>
</g>
<defs>
<clipPath id="clip0">
<rect width="169.61" height="98.13" fill="white"/>
</clipPath>
</defs>
</svg>
