<?xml version="1.0" encoding="UTF-8"?>
<svg width="450px" height="218px" viewBox="0 0 450 218" version="1.1" xmlns="http://www.w3.org/2000/svg" xmlns:xlink="http://www.w3.org/1999/xlink">
    <title>mass-effect-legendary-edition-hero-large-light-logo</title>
    <defs>
        <polygon id="path-1" points="0 0 122.40159 0 122.40159 67.6800795 0 67.6800795"></polygon>
        <polygon id="path-3" points="0.238038869 0.666890459 103.861749 0.666890459 103.861749 45.5786396 0.238038869 45.5786396"></polygon>
        <polygon id="path-5" points="0 0 122.40159 0 122.40159 67.6800795 0 67.6800795"></polygon>
        <polygon id="path-7" points="0.238038869 0.666890459 103.861749 0.666890459 103.861749 45.5786396 0.238038869 45.5786396"></polygon>
        <polygon id="path-9" points="0 198.763251 449.709806 198.763251 449.709806 0 0 0"></polygon>
    </defs>
    <g id="mass-effect-legendary-edition-hero-large-light-logo" stroke="none" stroke-width="1" fill="none" fill-rule="evenodd">
        <g transform="translate(0.000000, -0.000000)">
            <polygon id="Fill-1" fill="#C80000" points="0.0222614841 198.763251 445.417314 198.763251 445.417314 132.844611 0.0222614841 132.844611"></polygon>
            <g id="Group-72">
                <path d="M241.113975,90.2878092 L241.113975,108.391166 C241.113975,113.77288 243.874399,115.917933 250.490035,115.917933 L287.116537,115.917933 L287.116537,108.732244 L256.006908,108.732244 C254.771396,108.732244 254.152845,108.180477 254.152845,107.083304 L254.152845,102.945848 L287.116537,102.945848 L287.116537,95.7506184 L254.152845,95.7506184 L254.152845,91.6242933 C254.152845,90.524735 254.771396,89.9793286 256.006908,89.9793286 L287.116537,89.9793286 L287.116537,82.7634276 L250.490035,82.7634276 C243.874399,82.7634276 241.113975,84.9084806 241.113975,90.2878092 L241.113975,90.2878092 Z M160.756378,90.2878092 L160.756378,115.918728 L173.796837,115.918728 L173.796837,102.945848 L206.75894,102.945848 L206.75894,95.7506184 L173.796837,95.7506184 L173.796837,91.6242933 C173.796837,90.524735 174.414594,89.9793286 175.650901,89.9793286 L206.75894,89.9793286 L206.75894,82.7634276 L170.134028,82.7634276 C163.516007,82.7634276 160.756378,84.9084806 160.756378,90.2878092 L160.756378,90.2878092 Z M80.3987809,90.2878092 L80.3987809,115.918728 L93.4384452,115.918728 L93.4384452,102.945848 L126.401343,102.945848 L126.401343,95.7506184 L93.4384452,95.7506184 L93.4384452,91.6242933 C93.4384452,90.524735 94.0562014,89.9793286 95.2925088,89.9793286 L126.401343,89.9793286 L126.401343,82.7634276 L89.775636,82.7634276 C83.1584099,82.7634276 80.3987809,84.9084806 80.3987809,90.2878092 L80.3987809,90.2878092 Z M321.490654,90.2878092 L321.490654,108.391166 C321.490654,113.773675 324.245512,115.918728 330.860353,115.918728 L367.496396,115.918728 L367.496396,108.732244 L336.381996,108.732244 C335.147279,108.732244 334.530318,108.180477 334.530318,107.083304 L334.530318,91.6242933 C334.530318,90.524735 335.147279,89.9785336 336.381996,89.9785336 L367.496396,89.9785336 L367.496396,82.7618375 L330.860353,82.7618375 C324.245512,82.7618375 321.490654,84.9076855 321.490654,90.2878092 L321.490654,90.2878092 Z M394.768304,82.770583 L394.768304,89.9793286 L413.572898,89.9793286 L413.572898,115.918728 L426.616537,115.918728 L426.616537,89.9793286 L445.417155,89.9793286 L445.417155,82.770583 L394.768304,82.770583 Z M0.0221024735,90.2878092 L0.0221024735,108.391166 C0.0221024735,113.77288 2.78173145,115.917933 9.3989576,115.917933 L46.0246643,115.917933 L46.0246643,108.732244 L14.9158304,108.732244 C13.679523,108.732244 13.0617668,108.180477 13.0617668,107.083304 L13.0617668,102.945848 L46.0246643,102.945848 L46.0246643,95.7506184 L13.0617668,95.7506184 L13.0617668,91.6242933 C13.0617668,90.524735 13.679523,89.9793286 14.9158304,89.9793286 L46.0246643,89.9793286 L46.0246643,82.7634276 L9.3989576,82.7634276 C2.78173145,82.7634276 0.0221024735,84.9084806 0.0221024735,90.2878092 L0.0221024735,90.2878092 Z" id="Fill-2" fill="#FFFFFF"></path>
                <path d="M178.099028,26.9138163 L182.295318,19.7034806 L185.988339,26.0472085 C194.62659,25.1503887 203.442933,24.3863428 212.427827,23.7622261 L197.327385,0.00524734982 L167.266431,0.00524734982 L147.561837,31.004364 C157.478534,29.4722968 167.666343,28.1063958 178.099028,26.9138163" id="Fill-4" fill="#FFFFFF"></path>
                <g id="Group-8">
                    <mask id="mask-2" fill="white">
                        <use xlink:href="#path-1"></use>
                    </mask>
                    <g id="Clip-7"></g>
                    <path d="M27.884894,58.7675353 L26.6295053,30.8611749 L39.6023852,55.2708922 C55.3213781,50.677076 72.0421378,46.2208039 89.7789753,42.1366166 L95.7712898,30.8611749 L95.3212898,40.8732774 C104.10106,38.9142668 113.132067,37.0554329 122.40159,35.3150618 L122.40159,-0.000397526502 L85.6359541,-0.000397526502 L61.2007951,47.1732774 L36.765636,-0.000397526502 L0,-0.000397526502 L0,67.6800795 C8.89425795,64.7200972 18.1844523,61.7291078 27.884894,58.7675353" id="Fill-6" fill="#FFFFFF" mask="url(#mask-2)"></path>
                </g>
                <path d="M266.647261,21.876758 C267.212544,18.7506095 272.375618,18.037447 276.769081,17.977023 L276.769081,17.962712 L338.098675,17.962712 L338.098675,0.00484982332 L275.32606,0.00484982332 C259.05689,0.00484982332 238.389488,3.45458481 238.356095,22.4014929 C247.616078,22.0675707 257.037456,21.877553 266.647261,21.876758" id="Fill-9" fill="#FFFFFF"></path>
                <path d="M373.943719,21.8763604 C374.508207,18.750212 379.672076,18.0370495 384.064744,17.9766254 L384.064744,17.9631095 L445.395133,17.9631095 L445.395133,0.00445229682 L382.621723,0.00445229682 C366.506793,0.00445229682 346.088242,3.39773852 345.670839,21.8763604 L373.943719,21.8763604 Z" id="Fill-11" fill="#FFFFFF"></path>
                <g id="Group-15" transform="translate(345.848057, 26.236749)">
                    <mask id="mask-4" fill="white">
                        <use xlink:href="#path-3"></use>
                    </mask>
                    <g id="Clip-14"></g>
                    <path d="M67.274523,0.701077739 L38.2169258,0.681996466 C38.0062367,0.678816254 37.7899823,0.67245583 37.5761131,0.666890459 L0.238038869,0.666890459 C3.23618375,15.6130919 21.5430742,18.5945406 36.390689,18.644629 L65.4466961,18.6653004 C70.1001413,18.7296996 75.6257597,19.5104417 75.6257597,23.1287279 C75.6257597,26.7501943 70.1001413,27.5420671 65.4466961,27.6072615 L65.4466961,27.6207774 L4.11710247,27.6207774 L4.11710247,45.5786396 L66.8897173,45.5786396 C83.1716078,45.5786396 103.862067,42.1249293 103.862067,23.1382686 C103.862067,4.30028269 83.4951943,0.755936396 67.274523,0.701077739" id="Fill-13" fill="#FFFFFF" mask="url(#mask-4)"></path>
                </g>
                <path d="M40.9744876,57.8517138 L48.3955124,71.8152297 L74.0057597,71.8152297 L87.8357067,45.7923498 C71.0306714,49.5791873 55.4929505,53.6808657 40.9744876,57.8517138" id="Fill-16" fill="#FFFFFF"></path>
                <path d="M305.826917,26.9378269 L266.731776,26.9036396 C257.177624,26.9036396 247.896175,27.044364 238.863578,27.3075265 C242.104214,41.910265 260.228242,44.8320848 274.943083,44.8813781 L303.998295,44.9020495 C308.652535,44.9664488 314.177359,45.7471908 314.177359,49.365477 C314.177359,52.9869435 308.652535,53.7788163 303.998295,53.8440106 L303.998295,53.8575265 L242.668701,53.8575265 L242.668701,71.3359717 L215.312518,28.2981625 C206.070822,28.8117668 197.108984,29.4565548 188.41508,30.2190106 L192.85068,37.8395936 L171.742023,37.8395936 L175.45174,31.4656537 C164.855274,32.5691873 154.664284,33.8420671 144.855716,35.2604417 L122.401829,70.5870318 L122.401829,38.8580565 C112.963754,40.5181272 103.90174,42.3038163 95.1728534,44.1785512 L93.9301855,71.820159 L151.96826,71.8153887 L161.283896,55.8093816 L203.309602,55.8093816 L212.622853,71.8153887 L305.442111,71.8153887 C321.724002,71.8153887 342.414461,68.3616784 342.414461,49.3750177 C342.414461,30.5370318 322.047588,26.9926855 305.826917,26.9378269" id="Fill-18" fill="#FFFFFF"></path>
                <polygon id="Fill-20" fill="#FFFFFF" points="438.087562 115.918569 437.060353 115.918569 437.060353 112.03394 435.543392 112.03394 435.543392 111.208675 439.613269 111.208675 439.613269 112.03394 438.087562 112.03394"></polygon>
                <polygon id="Fill-22" fill="#FFFFFF" points="443.954973 111.197942 442.753648 114.811458 442.752058 114.802712 442.748083 114.811458 441.548348 111.197942 440.098171 111.197942 440.098171 115.918171 441.071316 115.918171 440.994991 112.247412 442.199496 115.918171 443.303825 115.918171 444.50833 112.247412 444.430415 115.918171 445.404355 115.918171 445.404355 111.197942"></polygon>
                <path d="M241.113975,90.2878092 L241.113975,108.391166 C241.113975,113.77288 243.874399,115.917933 250.490035,115.917933 L287.116537,115.917933 L287.116537,108.732244 L256.006908,108.732244 C254.771396,108.732244 254.152845,108.180477 254.152845,107.083304 L254.152845,102.945848 L287.116537,102.945848 L287.116537,95.7506184 L254.152845,95.7506184 L254.152845,91.6242933 C254.152845,90.524735 254.771396,89.9793286 256.006908,89.9793286 L287.116537,89.9793286 L287.116537,82.7634276 L250.490035,82.7634276 C243.874399,82.7634276 241.113975,84.9084806 241.113975,90.2878092 L241.113975,90.2878092 Z M160.756378,90.2878092 L160.756378,115.918728 L173.796837,115.918728 L173.796837,102.945848 L206.75894,102.945848 L206.75894,95.7506184 L173.796837,95.7506184 L173.796837,91.6242933 C173.796837,90.524735 174.414594,89.9793286 175.650901,89.9793286 L206.75894,89.9793286 L206.75894,82.7634276 L170.134028,82.7634276 C163.516007,82.7634276 160.756378,84.9084806 160.756378,90.2878092 L160.756378,90.2878092 Z M80.3987809,90.2878092 L80.3987809,115.918728 L93.4384452,115.918728 L93.4384452,102.945848 L126.401343,102.945848 L126.401343,95.7506184 L93.4384452,95.7506184 L93.4384452,91.6242933 C93.4384452,90.524735 94.0562014,89.9793286 95.2925088,89.9793286 L126.401343,89.9793286 L126.401343,82.7634276 L89.775636,82.7634276 C83.1584099,82.7634276 80.3987809,84.9084806 80.3987809,90.2878092 L80.3987809,90.2878092 Z M321.490654,90.2878092 L321.490654,108.391166 C321.490654,113.773675 324.245512,115.918728 330.860353,115.918728 L367.496396,115.918728 L367.496396,108.732244 L336.381996,108.732244 C335.147279,108.732244 334.530318,108.180477 334.530318,107.083304 L334.530318,91.6242933 C334.530318,90.524735 335.147279,89.9785336 336.381996,89.9785336 L367.496396,89.9785336 L367.496396,82.7618375 L330.860353,82.7618375 C324.245512,82.7618375 321.490654,84.9076855 321.490654,90.2878092 L321.490654,90.2878092 Z M394.768304,82.770583 L394.768304,89.9793286 L413.572898,89.9793286 L413.572898,115.918728 L426.616537,115.918728 L426.616537,89.9793286 L445.417155,89.9793286 L445.417155,82.770583 L394.768304,82.770583 Z M0.0221024735,90.2878092 L0.0221024735,108.391166 C0.0221024735,113.77288 2.78173145,115.917933 9.3989576,115.917933 L46.0246643,115.917933 L46.0246643,108.732244 L14.9158304,108.732244 C13.679523,108.732244 13.0617668,108.180477 13.0617668,107.083304 L13.0617668,102.945848 L46.0246643,102.945848 L46.0246643,95.7506184 L13.0617668,95.7506184 L13.0617668,91.6242933 C13.0617668,90.524735 13.679523,89.9793286 14.9158304,89.9793286 L46.0246643,89.9793286 L46.0246643,82.7634276 L9.3989576,82.7634276 C2.78173145,82.7634276 0.0221024735,84.9084806 0.0221024735,90.2878092 L0.0221024735,90.2878092 Z" id="Fill-24" fill="#FFFFFF"></path>
                <path d="M178.099028,26.9138163 L182.295318,19.7034806 L185.988339,26.0472085 C194.62659,25.1503887 203.442933,24.3863428 212.427827,23.7622261 L197.327385,0.00524734982 L167.266431,0.00524734982 L147.561837,31.004364 C157.478534,29.4722968 167.666343,28.1063958 178.099028,26.9138163" id="Fill-26" fill="#FFFFFF"></path>
                <g id="Group-30">
                    <mask id="mask-6" fill="white">
                        <use xlink:href="#path-5"></use>
                    </mask>
                    <g id="Clip-29"></g>
                    <path d="M27.884894,58.7675353 L26.6295053,30.8611749 L39.6023852,55.2708922 C55.3213781,50.677076 72.0421378,46.2208039 89.7789753,42.1366166 L95.7712898,30.8611749 L95.3212898,40.8732774 C104.10106,38.9142668 113.132067,37.0554329 122.40159,35.3150618 L122.40159,-0.000397526502 L85.6359541,-0.000397526502 L61.2007951,47.1732774 L36.765636,-0.000397526502 L0,-0.000397526502 L0,67.6800795 C8.89425795,64.7200972 18.1844523,61.7291078 27.884894,58.7675353" id="Fill-28" fill="#FFFFFF" mask="url(#mask-6)"></path>
                </g>
                <path d="M266.647261,21.876758 C267.212544,18.7506095 272.375618,18.037447 276.769081,17.977023 L276.769081,17.962712 L338.098675,17.962712 L338.098675,0.00484982332 L275.32606,0.00484982332 C259.05689,0.00484982332 238.389488,3.45458481 238.356095,22.4014929 C247.616078,22.0675707 257.037456,21.877553 266.647261,21.876758" id="Fill-31" fill="#FFFFFF"></path>
                <path d="M373.943719,21.8763604 C374.508207,18.750212 379.672076,18.0370495 384.064744,17.9766254 L384.064744,17.9631095 L445.395133,17.9631095 L445.395133,0.00445229682 L382.621723,0.00445229682 C366.506793,0.00445229682 346.088242,3.39773852 345.670839,21.8763604 L373.943719,21.8763604 Z" id="Fill-33" fill="#FFFFFF"></path>
                <path d="M0.000159010601,70.3897792 L0.000159010601,71.8200795 L28.4718021,71.8200795 L28.0146466,61.6656625 C18.2426502,64.6065636 8.93337456,67.5426943 0.000159010601,70.3897792" id="Fill-35" fill="#FFFFFF"></path>
                <g id="Group-39" transform="translate(345.848057, 26.236749)">
                    <mask id="mask-8" fill="white">
                        <use xlink:href="#path-7"></use>
                    </mask>
                    <g id="Clip-38"></g>
                    <path d="M67.274523,0.701077739 L38.2169258,0.681996466 C38.0062367,0.678816254 37.7899823,0.67245583 37.5761131,0.666890459 L0.238038869,0.666890459 C3.23618375,15.6130919 21.5430742,18.5945406 36.390689,18.644629 L65.4466961,18.6653004 C70.1001413,18.7296996 75.6257597,19.5104417 75.6257597,23.1287279 C75.6257597,26.7501943 70.1001413,27.5420671 65.4466961,27.6072615 L65.4466961,27.6207774 L4.11710247,27.6207774 L4.11710247,45.5786396 L66.8897173,45.5786396 C83.1716078,45.5786396 103.862067,42.1249293 103.862067,23.1382686 C103.862067,4.30028269 83.4951943,0.755936396 67.274523,0.701077739" id="Fill-37" fill="#FFFFFF" mask="url(#mask-8)"></path>
                </g>
                <path d="M40.9744876,57.8517138 L48.3955124,71.8152297 L74.0057597,71.8152297 L87.8357067,45.7923498 C71.0306714,49.5791873 55.4929505,53.6808657 40.9744876,57.8517138" id="Fill-40" fill="#FFFFFF"></path>
                <path d="M305.826917,26.9378269 L266.731776,26.9036396 C257.177624,26.9036396 247.896175,27.044364 238.863578,27.3075265 C242.104214,41.910265 260.228242,44.8320848 274.943083,44.8813781 L303.998295,44.9020495 C308.652535,44.9664488 314.177359,45.7471908 314.177359,49.365477 C314.177359,52.9869435 308.652535,53.7788163 303.998295,53.8440106 L303.998295,53.8575265 L242.668701,53.8575265 L242.668701,71.3359717 L215.312518,28.2981625 C206.070822,28.8117668 197.108984,29.4565548 188.41508,30.2190106 L192.85068,37.8395936 L171.742023,37.8395936 L175.45174,31.4656537 C164.855274,32.5691873 154.664284,33.8420671 144.855716,35.2604417 L122.401829,70.5870318 L122.401829,38.8580565 C112.963754,40.5181272 103.90174,42.3038163 95.1728534,44.1785512 L93.9301855,71.820159 L151.96826,71.8153887 L161.283896,55.8093816 L203.309602,55.8093816 L212.622853,71.8153887 L305.442111,71.8153887 C321.724002,71.8153887 342.414461,68.3616784 342.414461,49.3750177 C342.414461,30.5370318 322.047588,26.9926855 305.826917,26.9378269" id="Fill-42" fill="#FFFFFF"></path>
                <polygon id="Fill-44" fill="#FFFFFF" points="27.3452915 179.346546 27.3452915 181.818366 16.9483834 181.818366 16.9483834 149.78886 19.8725883 149.78886 19.8725883 179.346546"></polygon>
                <polygon id="Fill-46" fill="#FFFFFF" points="44.6427032 152.261157 44.6427032 164.585274 51.5230919 164.585274 51.5230919 167.022111 44.6427032 167.022111 44.6427032 179.346228 51.5930565 179.346228 51.5930565 181.818843 41.7184982 181.818843 41.7184982 149.789337 51.5930565 149.789337 51.5930565 152.261157"></polygon>
                <polygon id="Fill-48" fill="#FFFFFF" points="95.2761307 152.261157 95.2761307 164.585274 102.156519 164.585274 102.156519 167.022111 95.2761307 167.022111 95.2761307 179.346228 102.226484 179.346228 102.226484 181.818843 92.3519258 181.818843 92.3519258 149.789337 102.226484 149.789337 102.226484 152.261157"></polygon>
                <polygon id="Fill-50" fill="#FFFFFF" points="116.572898 149.789099 120.575989 149.789099 128.326961 176.531502 128.326961 149.789099 130.972898 149.789099 130.972898 181.818604 126.969806 181.818604 119.288799 156.077968 119.288799 181.818604 116.572898 181.818604"></polygon>
                <polygon id="Fill-52" fill="#FFFFFF" points="414.072111 149.789099 418.075203 149.789099 425.826175 176.531502 425.826175 149.789099 428.472111 149.789099 428.472111 181.818604 424.468224 181.818604 416.787217 156.077968 416.787217 181.818604 414.072111 181.818604"></polygon>
                <path d="M155.089081,155.394064 C155.089081,152.922244 154.46258,152.261555 152.338993,152.261555 L148.243675,152.261555 L148.243675,179.346625 L152.338993,179.346625 C154.46258,179.346625 155.089081,178.685141 155.089081,176.213322 L155.089081,155.394064 Z M158.013286,155.429046 L158.013286,176.179134 C158.013286,180.042297 157.212668,181.818445 152.930512,181.818445 L145.31947,181.818445 L145.31947,149.78894 L152.930512,149.78894 C157.212668,149.78894 158.013286,151.564293 158.013286,155.429046 L158.013286,155.429046 Z" id="Fill-54" fill="#FFFFFF"></path>
                <path d="M182.670583,172.314541 L180.302915,152.43424 L178.12288,152.43424 L175.755212,172.314541 L182.670583,172.314541 Z M182.983834,174.785565 L175.441961,174.785565 L174.60636,181.818604 L171.787102,181.818604 L175.72023,149.789099 L182.70477,149.789099 L186.639488,181.818604 L183.819435,181.818604 L182.983834,174.785565 Z" id="Fill-56" fill="#FFFFFF"></path>
                <path d="M208.024585,168.937155 C209.590839,168.797226 210.078207,167.997403 210.078207,165.803852 L210.078207,155.360035 C210.078207,152.921608 208.62644,152.225936 206.537836,152.225936 L203.336952,152.225936 L203.336952,168.972138 L208.024585,168.937155 Z M210.774673,181.818604 L208.372023,171.235654 L203.336952,171.235654 L203.336952,181.818604 L200.412747,181.818604 L200.412747,149.789099 L207.919638,149.789099 C212.167606,149.789099 212.933242,151.563657 212.933242,155.429205 L212.933242,165.734682 C212.933242,168.170724 212.271758,169.703587 210.809655,170.538392 L213.421405,181.818604 L210.774673,181.818604 Z" id="Fill-58" fill="#FFFFFF"></path>
                <polygon id="Fill-60" fill="#FFFFFF" points="239.04326 149.789099 233.515256 169.041307 233.515256 181.818604 230.660221 181.818604 230.660221 169.041307 225.130627 149.789099 227.986458 149.789099 231.982394 164.480883 232.191493 164.480883 236.188224 149.789099"></polygon>
                <polygon id="Fill-62" fill="#FFFFFF" points="274.231352 152.261157 274.231352 164.585274 281.110945 164.585274 281.110945 167.022111 274.231352 167.022111 274.231352 179.346228 281.18091 179.346228 281.18091 181.818843 271.307147 181.818843 271.307147 149.789337 281.18091 149.789337 281.18091 152.261157"></polygon>
                <path d="M305.297412,155.394064 C305.297412,152.922244 304.67091,152.261555 302.546528,152.261555 L298.452005,152.261555 L298.452005,179.346625 L302.546528,179.346625 C304.67091,179.346625 305.297412,178.685141 305.297412,176.213322 L305.297412,155.394064 Z M308.221617,155.429046 L308.221617,176.179134 C308.221617,180.042297 307.420998,181.818445 303.138843,181.818445 L295.5278,181.818445 L295.5278,149.78894 L303.138843,149.78894 C307.420998,149.78894 308.221617,151.564293 308.221617,155.429046 L308.221617,155.429046 Z" id="Fill-64" fill="#FFFFFF"></path>
                <mask id="mask-10" fill="white">
                    <use xlink:href="#path-9"></use>
                </mask>
                <g id="Clip-67"></g>
                <polygon id="Fill-66" fill="#FFFFFF" mask="url(#mask-10)" points="324.00636 181.818286 326.930565 181.818286 326.930565 149.788781 324.00636 149.788781"></polygon>
                <polygon id="Fill-68" fill="#FFFFFF" mask="url(#mask-10)" points="355.074408 152.261157 349.4025 152.261157 349.4025 181.818843 346.4775 181.818843 346.4775 152.261157 340.806387 152.261157 340.806387 149.789337 355.074408 149.789337"></polygon>
                <polygon id="Fill-69" fill="#FFFFFF" mask="url(#mask-10)" points="368.950707 181.818286 371.874912 181.818286 371.874912 149.788781 368.950707 149.788781"></polygon>
                <path d="M396.819382,176.526572 C396.819382,178.885495 395.133869,179.652721 393.709929,179.658286 C392.286784,179.652721 390.601272,178.885495 390.601272,176.526572 L390.601272,155.080813 C390.601272,152.722686 392.286784,151.954664 393.709929,151.948304 C395.133869,151.954664 396.819382,152.722686 396.819382,155.080813 L396.819382,176.526572 Z M393.709929,149.476484 C390.583781,149.480459 387.677067,150.806608 387.677067,155.080813 L387.677067,176.526572 C387.677067,180.800777 390.583781,182.126131 393.709929,182.130901 C396.836078,182.126131 399.743587,180.800777 399.743587,176.526572 L399.743587,155.080813 C399.743587,150.806608 396.836078,149.480459 393.709929,149.476484 L393.709929,149.476484 Z" id="Fill-70" fill="#FFFFFF" mask="url(#mask-10)"></path>
                <path d="M78.0058304,159.849938 L78.0058304,155.08121 C78.0058304,150.807005 75.0983216,149.480857 71.9729682,149.476087 C68.8460247,149.480857 65.939311,150.807005 65.939311,155.08121 L65.939311,176.52697 C65.939311,180.801175 68.8460247,182.126528 71.9729682,182.130504 C75.0983216,182.126528 78.0058304,180.801175 78.0058304,176.52697 L78.0058304,164.585274 L72.1574205,164.585274 L72.1574205,167.022111 L75.0816254,167.022111 L75.0816254,176.52697 C75.0816254,178.885097 73.3961131,179.652323 71.9729682,179.658684 C70.5490283,179.652323 68.8635159,178.885097 68.8635159,176.52697 L68.8635159,155.08121 C68.8635159,152.722288 70.5490283,151.954267 71.9729682,151.948701 C73.3961131,151.954267 75.0816254,152.722288 75.0816254,155.08121 L75.0816254,159.849938 L78.0058304,159.849938 Z" id="Fill-71" fill="#FFFFFF" mask="url(#mask-10)"></path>
            </g>
        </g>
    </g>
</svg>