<?xml version="1.0" encoding="utf-8"?>
<!-- Generator: Adobe Illustrator 23.0.2, SVG Export Plug-In . SVG Version: 6.00 Build 0)  -->
<svg version="1.1" baseProfile="tiny" id="Layer_1" xmlns="http://www.w3.org/2000/svg" xmlns:xlink="http://www.w3.org/1999/xlink"
	 x="0px" y="0px" width="169px" height="57px" viewBox="0 0 169 57" xml:space="preserve">
<path fill="#FFFFFF" stroke="#929497" stroke-width="0.35" stroke-miterlimit="10" d="M58.3,0h98.44h-4.75h10.05
	c3.84,0,6.95,3.2,6.95,7.15v42.7c0,3.95-3.11,7.15-6.95,7.15h-10.05h4.75H58.16h5.5h-30.2l-0.01,0c0,0-0.01,0-0.03,0
	c-9.97,0-18.34-6.96-20.52-16.29l-1.61-0.08C5.1,40.31,0.26,35.22,0.26,29.03V0H63.8"/>
<g>
	<path fill="#5FC323" d="M6.24,5.98V29c0,3.66,2.87,6.61,6.48,6.8c-0.19-9.89,6.82-18.74,16.86-20.51c1.18-0.21,2.37-0.32,3.57-0.32
		c9.93,0,18.38,7.11,20.11,16.89c0.23,1.33,0.32,2.64,0.3,3.94c3.6-0.2,6.47-3.15,6.47-6.8V5.98H6.24z"/>
	<path d="M26.58,35.4c0-3.64,2.95-6.58,6.59-6.58c3.64,0,6.58,2.95,6.58,6.58H26.58z M17.48,35.41c0,8.61,7.01,15.61,15.61,15.61
		c4.18,0,8.11-1.63,11.06-4.6l-3.18-3.16c-2.1,2.12-4.9,3.28-7.88,3.28c-6.14,0-11.12-4.99-11.12-11.12
		c0-6.13,4.98-11.12,11.12-11.12c6.14,0,11.12,4.99,11.12,11.12h4.49c0-8.6-7-15.6-15.6-15.6C24.5,19.8,17.48,26.81,17.48,35.41"/>
</g>
<g>
	<path fill="#004676" d="M65.73,44.38h2.14c0.38,0,0.74,0.04,1.05,0.11c0.32,0.07,0.59,0.19,0.82,0.35c0.22,0.16,0.4,0.37,0.52,0.63
		c0.12,0.26,0.19,0.59,0.19,0.97c0,0.37-0.06,0.69-0.19,0.96c-0.12,0.27-0.3,0.49-0.53,0.67c-0.23,0.18-0.5,0.31-0.81,0.4
		c-0.32,0.09-0.67,0.13-1.05,0.13h-1.26v2.77h-0.88V44.38z M67.76,47.88c0.61,0,1.06-0.12,1.36-0.35c0.29-0.23,0.44-0.59,0.44-1.09
		c0-0.5-0.15-0.85-0.45-1.05s-0.75-0.29-1.35-0.29h-1.15v2.78H67.76z"/>
	<path fill="#004676" d="M70.93,48.79c0-0.43,0.07-0.82,0.2-1.16c0.13-0.34,0.31-0.62,0.53-0.86s0.47-0.41,0.76-0.53
		c0.29-0.12,0.59-0.18,0.91-0.18s0.62,0.06,0.91,0.18c0.29,0.12,0.54,0.3,0.76,0.53c0.22,0.23,0.4,0.52,0.53,0.86
		c0.13,0.34,0.2,0.72,0.2,1.16c0,0.43-0.07,0.81-0.2,1.15c-0.13,0.34-0.31,0.62-0.53,0.85c-0.22,0.23-0.47,0.41-0.76,0.53
		c-0.29,0.12-0.59,0.18-0.91,0.18s-0.62-0.06-0.91-0.18c-0.29-0.12-0.54-0.3-0.76-0.53c-0.22-0.23-0.4-0.51-0.53-0.85
		C70.99,49.6,70.93,49.22,70.93,48.79z M71.83,48.79c0,0.3,0.04,0.57,0.11,0.81c0.07,0.24,0.17,0.45,0.3,0.62
		c0.13,0.17,0.29,0.31,0.47,0.41s0.39,0.14,0.61,0.14s0.42-0.05,0.61-0.14c0.18-0.1,0.34-0.23,0.47-0.41
		c0.13-0.17,0.23-0.38,0.3-0.62c0.07-0.24,0.11-0.51,0.11-0.81c0-0.3-0.04-0.57-0.11-0.82c-0.07-0.25-0.17-0.46-0.3-0.63
		c-0.13-0.18-0.29-0.31-0.47-0.41c-0.19-0.1-0.39-0.14-0.61-0.14s-0.42,0.05-0.61,0.14s-0.34,0.23-0.47,0.41s-0.23,0.39-0.3,0.63
		C71.87,48.22,71.83,48.5,71.83,48.79z"/>
	<path fill="#004676" d="M76.21,46.2h0.89l0.77,2.99c0.06,0.25,0.11,0.49,0.16,0.72c0.05,0.23,0.1,0.47,0.15,0.71h0.04
		c0.06-0.24,0.11-0.48,0.17-0.72c0.06-0.24,0.12-0.48,0.18-0.72l0.8-2.99h0.85l0.81,2.99c0.06,0.25,0.13,0.49,0.19,0.72
		c0.06,0.23,0.12,0.47,0.18,0.71h0.04c0.06-0.24,0.11-0.48,0.16-0.71s0.1-0.48,0.16-0.72l0.76-2.99h0.83l-1.38,5.18H80.9l-0.75-2.78
		c-0.06-0.25-0.12-0.49-0.18-0.74s-0.11-0.49-0.18-0.76h-0.04c-0.06,0.26-0.11,0.52-0.17,0.76c-0.06,0.25-0.12,0.49-0.19,0.74
		l-0.72,2.77h-1.02L76.21,46.2z"/>
	<path fill="#004676" d="M83.84,48.79c0-0.43,0.07-0.81,0.2-1.15c0.13-0.34,0.31-0.62,0.52-0.86c0.22-0.23,0.46-0.41,0.74-0.54
		s0.56-0.19,0.86-0.19c0.33,0,0.62,0.06,0.88,0.17c0.26,0.11,0.48,0.28,0.65,0.49c0.17,0.21,0.31,0.47,0.4,0.77
		c0.09,0.3,0.14,0.63,0.14,1c0,0.19-0.01,0.35-0.03,0.48H84.7c0.04,0.56,0.21,1.01,0.52,1.33c0.31,0.33,0.71,0.49,1.21,0.49
		c0.25,0,0.48-0.04,0.69-0.11c0.21-0.07,0.41-0.17,0.6-0.29l0.31,0.58c-0.23,0.14-0.48,0.27-0.76,0.37
		c-0.28,0.11-0.59,0.16-0.95,0.16c-0.35,0-0.67-0.06-0.98-0.19s-0.56-0.3-0.79-0.53c-0.22-0.23-0.4-0.51-0.53-0.85
		C83.9,49.6,83.84,49.22,83.84,48.79z M87.46,48.4c0-0.53-0.11-0.94-0.34-1.22s-0.54-0.42-0.94-0.42c-0.19,0-0.36,0.04-0.53,0.11
		c-0.17,0.07-0.32,0.18-0.45,0.32c-0.14,0.14-0.25,0.31-0.34,0.51c-0.09,0.2-0.15,0.43-0.18,0.7H87.46z"/>
	<path fill="#004676" d="M89.29,46.2h0.72l0.07,0.94h0.03c0.18-0.33,0.39-0.59,0.64-0.78c0.25-0.19,0.53-0.29,0.83-0.29
		c0.21,0,0.39,0.04,0.55,0.11l-0.17,0.77c-0.09-0.03-0.16-0.05-0.23-0.06c-0.07-0.01-0.16-0.02-0.27-0.02
		c-0.22,0-0.45,0.09-0.69,0.27c-0.24,0.18-0.45,0.49-0.62,0.93v3.32h-0.87V46.2z"/>
	<path fill="#004676" d="M92.29,48.79c0-0.43,0.07-0.81,0.2-1.15c0.13-0.34,0.31-0.62,0.52-0.86c0.22-0.23,0.46-0.41,0.74-0.54
		s0.56-0.19,0.86-0.19c0.33,0,0.62,0.06,0.88,0.17c0.26,0.11,0.48,0.28,0.65,0.49c0.17,0.21,0.31,0.47,0.4,0.77
		c0.09,0.3,0.14,0.63,0.14,1c0,0.19-0.01,0.35-0.03,0.48h-3.49c0.04,0.56,0.21,1.01,0.52,1.33c0.31,0.33,0.71,0.49,1.21,0.49
		c0.25,0,0.48-0.04,0.69-0.11c0.21-0.07,0.41-0.17,0.6-0.29l0.31,0.58c-0.23,0.14-0.48,0.27-0.76,0.37
		c-0.28,0.11-0.59,0.16-0.95,0.16c-0.35,0-0.67-0.06-0.98-0.19s-0.56-0.3-0.79-0.53c-0.22-0.23-0.4-0.51-0.53-0.85
		C92.35,49.6,92.29,49.22,92.29,48.79z M95.91,48.4c0-0.53-0.11-0.94-0.34-1.22s-0.54-0.42-0.94-0.42c-0.19,0-0.36,0.04-0.53,0.11
		c-0.17,0.07-0.32,0.18-0.45,0.32c-0.14,0.14-0.25,0.31-0.34,0.51c-0.09,0.2-0.15,0.43-0.18,0.7H95.91z"/>
	<path fill="#004676" d="M97.37,48.79c0-0.42,0.06-0.8,0.19-1.13c0.12-0.34,0.29-0.62,0.5-0.86s0.44-0.42,0.71-0.54
		c0.27-0.13,0.55-0.19,0.85-0.19s0.56,0.05,0.78,0.16s0.44,0.25,0.67,0.44l-0.04-0.88v-1.99h0.88v7.59h-0.72l-0.07-0.61h-0.03
		c-0.21,0.2-0.44,0.37-0.71,0.52c-0.27,0.15-0.55,0.22-0.86,0.22c-0.65,0-1.17-0.23-1.56-0.7C97.56,50.33,97.37,49.66,97.37,48.79z
		 M98.27,48.78c0,0.62,0.12,1.11,0.37,1.46c0.25,0.35,0.6,0.52,1.05,0.52c0.24,0,0.47-0.06,0.68-0.18c0.21-0.12,0.43-0.3,0.64-0.54
		v-2.71c-0.22-0.2-0.43-0.34-0.63-0.42c-0.2-0.08-0.41-0.12-0.62-0.12c-0.21,0-0.4,0.05-0.58,0.14s-0.34,0.23-0.47,0.41
		c-0.14,0.17-0.24,0.38-0.32,0.62S98.27,48.49,98.27,48.78z"/>
	<path fill="#004676" d="M105.38,43.79h0.87v2.07l-0.02,0.94c0.23-0.21,0.49-0.38,0.77-0.52c0.28-0.14,0.56-0.21,0.85-0.21
		c0.33,0,0.63,0.06,0.88,0.19c0.26,0.12,0.47,0.3,0.64,0.53c0.17,0.23,0.31,0.51,0.39,0.83c0.09,0.32,0.13,0.68,0.13,1.08
		c0,0.44-0.06,0.83-0.18,1.18c-0.12,0.35-0.28,0.64-0.49,0.88c-0.21,0.24-0.44,0.42-0.71,0.55c-0.27,0.12-0.55,0.19-0.85,0.19
		c-0.24,0-0.49-0.06-0.75-0.17c-0.26-0.11-0.5-0.27-0.73-0.47h-0.03l-0.07,0.51h-0.7V43.79z M106.25,50.22
		c0.23,0.2,0.45,0.34,0.68,0.42c0.22,0.08,0.42,0.12,0.59,0.12c0.21,0,0.41-0.05,0.59-0.14s0.34-0.23,0.47-0.41
		c0.13-0.17,0.23-0.39,0.31-0.64c0.07-0.26,0.11-0.54,0.11-0.86c0-0.28-0.02-0.54-0.07-0.78s-0.13-0.43-0.24-0.6
		c-0.11-0.17-0.25-0.3-0.43-0.39c-0.17-0.09-0.38-0.14-0.62-0.14c-0.42,0-0.88,0.23-1.39,0.7V50.22z"/>
	<path fill="#004676" d="M110.88,52.85c0.07,0.02,0.14,0.03,0.2,0.03c0.3,0,0.54-0.1,0.73-0.31c0.19-0.21,0.34-0.47,0.44-0.79
		l0.12-0.38l-2.08-5.19h0.91l1.06,2.87c0.08,0.23,0.16,0.47,0.25,0.72s0.17,0.5,0.25,0.74h0.04c0.08-0.23,0.15-0.48,0.22-0.74
		c0.07-0.25,0.14-0.5,0.21-0.72l0.93-2.87h0.85l-1.95,5.6c-0.09,0.26-0.2,0.49-0.31,0.71c-0.11,0.22-0.25,0.41-0.4,0.57
		s-0.33,0.29-0.53,0.38c-0.2,0.09-0.43,0.14-0.69,0.14c-0.12,0-0.23-0.01-0.33-0.03s-0.19-0.04-0.28-0.08l0.17-0.69
		C110.74,52.81,110.81,52.83,110.88,52.85z"/>
</g>
<g>
	<g>
		<path d="M82.64,8.66v10.76h-2.97V8.66h-4.11V5.92h11.18v2.74H82.64z"/>
		<path d="M96.44,19.42l-2.89-4.32h-2.33v4.32h-2.97V5.92h6.16c3.19,0,5.09,1.68,5.09,4.45v0.04c0,2.18-1.17,3.55-2.89,4.18
			l3.3,4.82H96.44z M96.5,10.53c0-1.27-0.89-1.93-2.33-1.93h-2.95v3.88h3c1.45,0,2.28-0.77,2.28-1.91V10.53z"/>
		<path d="M107.43,19.63c-3.63,0-5.84-2.02-5.84-6V5.92h2.97v7.63c0,2.2,1.1,3.33,2.91,3.33c1.81,0,2.91-1.1,2.91-3.24V5.92h2.97
			v7.61C113.34,17.62,111.05,19.63,107.43,19.63z"/>
		<path d="M120.79,19.61c-2.05,0-4.11-0.71-5.73-2.16l1.75-2.1c1.21,1,2.49,1.64,4.03,1.64c1.21,0,1.95-0.48,1.95-1.27v-0.04
			c0-0.75-0.46-1.14-2.72-1.71c-2.72-0.69-4.47-1.45-4.47-4.13V9.8c0-2.45,1.96-4.07,4.72-4.07c1.97,0,3.64,0.62,5.01,1.72
			l-1.54,2.23c-1.19-0.83-2.37-1.33-3.51-1.33c-1.13,0-1.73,0.52-1.73,1.18v0.04c0,0.89,0.58,1.18,2.91,1.77
			c2.73,0.71,4.27,1.7,4.27,4.05v0.04C125.73,18.11,123.69,19.61,120.79,19.61z"/>
		<path d="M133.28,8.66v10.76h-2.97V8.66h-4.11V5.92h11.18v2.74H133.28z"/>
		<path d="M146.63,15.27h-7.19c0.29,1.33,1.22,2.02,2.53,2.02c0.98,0,1.7-0.31,2.51-1.06l1.67,1.48c-0.96,1.2-2.35,1.93-4.22,1.93
			c-3.1,0-5.4-2.18-5.4-5.34v-0.04c0-2.95,2.1-5.38,5.1-5.38c3.45,0,5.03,2.68,5.03,5.61v0.04C146.67,14.83,146.65,15,146.63,15.27z
			 M141.63,11.24c-1.2,0-2,0.87-2.23,2.2h4.41C143.64,12.13,142.87,11.24,141.63,11.24z"/>
	</g>
</g>
<g>
	<path fill="#004676" d="M119.74,45.58h-2.25v-1.12h5.8v1.12h-2.25v5.72h-1.29V45.58z M124.5,51.3v-3.79
		c0.22-0.12,0.54-0.2,0.93-0.2c0.26,0,0.51,0.03,0.75,0.09l0.31-1.02c-0.31-0.11-0.67-0.16-1.09-0.16c-0.95,0-1.71,0.38-2.08,0.71
		v4.36H124.5z M130.66,46.4v3.8c-0.31,0.13-0.63,0.19-1.02,0.19c-1,0-1.21-0.45-1.21-1.26V46.4h-1.2v3.08c0,1.21,0.7,1.98,2.25,1.98
		c1.11,0,1.88-0.28,2.38-0.53V46.4H130.66z M132.86,50.69c0,0,0.69,0.73,1.93,0.73c1.18,0,1.9-0.66,1.9-1.49
		c0-1.6-2.42-1.51-2.42-2.21c0-0.31,0.31-0.45,0.63-0.45c0.76,0,1.22,0.43,1.22,0.43l0.46-0.92c0,0-0.55-0.57-1.67-0.57
		c-1.07,0-1.9,0.54-1.9,1.46c0,1.6,2.42,1.5,2.42,2.24c0,0.29-0.3,0.45-0.65,0.45c-0.81,0-1.36-0.55-1.36-0.55L132.86,50.69z
		 M137.73,49.48c0,1.67,1.37,1.87,2.07,1.87c0.23,0,0.38-0.03,0.38-0.03v-1.08c0,0-0.09,0.02-0.22,0.02c-0.34,0-0.98-0.12-0.98-0.94
		v-1.86h1.13V46.4h-1.13v-1.43h-1.21L137.73,49.48z M148.8,51.3v-3.79c0.22-0.12,0.54-0.2,0.93-0.2c0.26,0,0.51,0.03,0.75,0.09
		l0.31-1.02c-0.31-0.11-0.67-0.16-1.09-0.16c-0.95,0-1.71,0.38-2.08,0.71v4.36H148.8z M153.57,46.3c-1.61,0-2.63,1.16-2.63,2.54
		c0,1.41,1.03,2.54,2.63,2.54c1.3,0,2-0.79,2-0.79l-0.47-0.86c0,0-0.61,0.62-1.43,0.62c-0.92,0-1.51-0.7-1.51-1.52
		c0-0.83,0.58-1.5,1.47-1.5c0.76,0,1.26,0.52,1.26,0.52l0.53-0.83C155.43,47.02,154.84,46.3,153.57,46.3 M145.02,49.52h-2.27
		l-0.61,1.74h-1.26l2.38-6.75h1.26l2.38,6.75h-1.26L145.02,49.52z M144.67,48.53l-0.78-2.22l-0.78,2.22H144.67z"/>
</g>
<line fill="none" stroke="#231F20" stroke-width="0.5" stroke-miterlimit="10" x1="65.34" y1="40.24" x2="155.92" y2="40.24"/>
<g>
	<path d="M70.22,29.72c0,0.45-0.18,0.81-0.54,1.09c-0.34,0.26-0.76,0.39-1.25,0.39c-0.5,0-0.92-0.12-1.25-0.36
		c-0.38-0.27-0.56-0.62-0.56-1.04c0-0.49,0.18-0.88,0.54-1.17c0.33-0.28,0.75-0.41,1.25-0.41c0.53,0,0.96,0.14,1.31,0.41
		C70.04,28.9,70.22,29.26,70.22,29.72z M69.7,29.74c0-0.34-0.13-0.61-0.39-0.8c-0.23-0.17-0.53-0.26-0.88-0.26
		c-0.36,0-0.66,0.09-0.91,0.27c-0.27,0.2-0.4,0.46-0.4,0.8c0,0.31,0.12,0.56,0.37,0.75c0.25,0.19,0.55,0.28,0.92,0.28
		c0.36,0,0.67-0.08,0.92-0.25C69.57,30.33,69.7,30.07,69.7,29.74z M72.32,33.56l-0.03,0.47l-1.09-0.01c-0.29,0-0.6,0-0.95,0
		c-0.35,0-0.74,0.01-1.18,0.01c-0.85,0.02-1.34,0.02-1.47,0.02l0.01-0.78l-0.03-1.22h0.14c0.14,0,0.26,0.01,0.35,0.02
		c0.09,0.01,0.13,0.04,0.13,0.08c0,0.02-0.01,0.06-0.03,0.12c-0.02,0.07-0.03,0.12-0.03,0.17v1.14l1.01,0.02c0.04,0,0.1,0,0.18,0
		s0.16,0,0.27-0.01c0.1,0,0.19-0.01,0.27-0.01s0.14,0,0.2,0L72.32,33.56z M72.16,27.61c0,0.03-0.01,0.08-0.04,0.14
		s-0.04,0.11-0.04,0.13v2.1c0,0.53,0,1.03,0.01,1.49c0.01,0.46,0.02,0.86,0.03,1.18l-0.57,0.01l0.02-2.86l-0.04-2.35h0.08
		c0.17,0,0.3,0.01,0.4,0.02C72.11,27.5,72.16,27.54,72.16,27.61z"/>
	<path d="M80.35,31.24l-3.31-0.02c-0.18,0-0.37,0-0.55,0c-0.18,0-0.37,0-0.55,0.01c-0.17,0-0.4,0.01-0.68,0.01s-0.6,0.01-0.98,0.02
		c-0.1,0-0.2,0.01-0.29,0.01s-0.19,0-0.29,0.01V30.8c0.13,0,0.25,0.01,0.35,0.01c0.11,0,0.2,0,0.29,0c0.59,0.01,1.09,0.02,1.5,0.02
		c0.41,0,0.73,0.01,0.97,0.01h0.23c0.25,0,0.48,0,0.69,0c0.21,0,0.41,0,0.58-0.01c0.17,0,0.36-0.01,0.55-0.02
		c0.19,0,0.38-0.01,0.58-0.01c0.21-0.01,0.39-0.02,0.54-0.02s0.27-0.01,0.36-0.01V31.24z M79.87,29.78c0,0.01-0.02,0.04-0.05,0.07
		c-0.11,0.09-0.16,0.14-0.17,0.17c-0.03,0.05-0.06,0.1-0.1,0.14c-0.04,0.04-0.06,0.06-0.06,0.07c-0.08-0.01-0.14-0.02-0.21-0.04
		c-0.06-0.01-0.12-0.03-0.18-0.04c-0.6-0.15-1.08-0.36-1.45-0.64c-0.22-0.18-0.4-0.35-0.53-0.52c-0.01-0.01-0.02-0.03-0.04-0.05
		c-0.01-0.02-0.03-0.04-0.04-0.07c-0.02,0.03-0.04,0.06-0.05,0.08c-0.02,0.03-0.03,0.04-0.04,0.06c-0.18,0.24-0.46,0.48-0.84,0.71
		c-0.24,0.15-0.57,0.28-1,0.39c-0.13,0.04-0.31,0.08-0.54,0.11c-0.01-0.01-0.02-0.02-0.03-0.03c-0.01-0.01-0.02-0.02-0.03-0.03
		c-0.03-0.03-0.05-0.05-0.06-0.07c-0.02-0.02-0.04-0.04-0.06-0.07c-0.01-0.02-0.04-0.04-0.06-0.07c-0.03-0.03-0.06-0.05-0.08-0.07
		s-0.05-0.04-0.07-0.06c-0.02-0.01-0.03-0.03-0.03-0.04l0.04-0.02c0.07,0,0.13-0.01,0.19-0.02s0.1-0.01,0.15-0.01
		c0.52-0.08,0.95-0.21,1.29-0.4c0.47-0.26,0.77-0.57,0.9-0.92c0.04-0.14,0.05-0.22,0.05-0.23l-1.04-0.01c-0.2,0-0.4,0-0.61,0.01
		s-0.41,0.02-0.58,0.03v-0.5c0.33,0.01,0.7,0.02,1.12,0.02c0.42,0.01,0.9,0.01,1.42,0.01c0.3,0,0.57,0,0.81,0s0.46,0,0.64-0.01
		c0.19,0,0.37-0.01,0.55-0.01c0.17,0,0.34-0.01,0.5-0.02v0.48l-1.12-0.01c-0.28,0-0.5,0-0.68,0.01s-0.34,0.02-0.5,0.03
		c0.02,0.06,0.04,0.11,0.06,0.16c0.02,0.04,0.04,0.09,0.06,0.13c0.12,0.22,0.29,0.41,0.51,0.58c0.18,0.13,0.38,0.25,0.6,0.35
		c0.22,0.1,0.45,0.17,0.71,0.23c0.17,0.04,0.39,0.07,0.65,0.09L79.87,29.78z M79.57,33.06c0,0.33-0.17,0.57-0.5,0.74
		c-0.4,0.21-1.06,0.32-1.99,0.32c-0.71,0-1.27-0.07-1.68-0.2c-0.52-0.18-0.78-0.47-0.78-0.87c0-0.39,0.25-0.68,0.74-0.88
		c0.21-0.08,0.45-0.13,0.72-0.17c0.27-0.04,0.57-0.06,0.91-0.06c0.64,0,1.16,0.05,1.55,0.15C79.22,32.26,79.57,32.59,79.57,33.06z
		 M77.09,32.37c-0.27,0-0.51,0.01-0.72,0.03s-0.4,0.05-0.56,0.09c-0.42,0.11-0.62,0.29-0.62,0.53c0,0.46,0.61,0.69,1.84,0.69h0.34
		c0.45,0,0.79-0.03,1.04-0.1c0.39-0.1,0.58-0.29,0.58-0.55c0-0.27-0.19-0.46-0.56-0.57c-0.14-0.04-0.33-0.07-0.55-0.09
		C77.65,32.38,77.39,32.37,77.09,32.37z"/>
	<path d="M86.14,31.41l-2.05,0.11l-2.29,0.11l-0.26,0.04c-0.07,0-0.12-0.06-0.16-0.17c-0.03-0.12-0.05-0.23-0.05-0.33l1.06,0.01
		c0.26,0,0.48,0,0.65-0.01c0.17,0,0.34-0.01,0.5-0.03l0.02-0.53l-0.02-0.62l-1.57-0.01l0.01-0.92l-0.01-1.04l1.76,0.02l1.8-0.02
		v0.45h-0.34c-0.83-0.01-1.27-0.02-1.32-0.02l-1.37,0.01l-0.01,0.62l0.01,0.51l1.57,0.01l1.56-0.01V30l-0.86-0.01h-0.73l-0.01,0.59
		l0.01,0.53c0.08,0,0.15-0.01,0.21-0.01c0.06,0,0.12,0,0.16,0c0.38-0.01,0.61-0.02,0.69-0.02L86.12,31L86.14,31.41z M87.3,33.97
		c-0.09,0-0.21-0.01-0.36-0.01s-0.35,0-0.57-0.01c-0.23,0-0.45-0.01-0.69-0.01s-0.48,0-0.73,0l-2.39,0.01l0.02-0.88l-0.02-0.92
		c0.18,0,0.32,0.01,0.44,0.02c0.12,0.01,0.18,0.04,0.18,0.09c0,0-0.01,0.03-0.02,0.08c-0.01,0.05-0.02,0.09-0.02,0.11l-0.02,0.57
		c0,0.08,0,0.14,0,0.19s0,0.09,0,0.12c0,0.03,0,0.05,0.01,0.08c0,0.02,0.01,0.04,0.01,0.06h1.91c0.3,0,0.58,0,0.81,0
		c0.24,0,0.44-0.01,0.62-0.01c0.18,0,0.33-0.01,0.47-0.01c0.14-0.01,0.26-0.01,0.37-0.02V33.97z M87.13,27.65
		c0,0.02-0.01,0.06-0.02,0.12c-0.01,0.05-0.01,0.09-0.01,0.12l-0.01,1.71l0.01,3.12l-0.56,0.03c0-0.22,0.01-0.46,0.01-0.7
		c0-0.24,0.01-0.49,0.01-0.75c0-0.25,0.01-0.49,0.01-0.7c0-0.21,0-0.4,0-0.57c0-0.88-0.01-1.48-0.02-1.8c0-0.16,0-0.3-0.01-0.43
		c-0.01-0.13-0.01-0.24-0.02-0.33h0.1c0.15,0,0.26,0.01,0.36,0.03C87.09,27.53,87.13,27.58,87.13,27.65z"/>
	<path d="M94.18,28.38c0,0.16-0.01,0.32-0.03,0.47c-0.02,0.15-0.04,0.31-0.08,0.47c-0.05,0.27-0.14,0.54-0.24,0.8
		c-0.11,0.26-0.24,0.52-0.39,0.78c-0.22,0.4-0.5,0.75-0.83,1.07c-0.24,0.23-0.49,0.43-0.75,0.59c-0.18,0.12-0.29,0.19-0.33,0.19
		c-0.02-0.01-0.04-0.02-0.05-0.03c-0.01-0.01-0.02-0.01-0.03-0.02c-0.03-0.02-0.05-0.04-0.07-0.06c-0.02-0.02-0.04-0.04-0.05-0.06
		c-0.03-0.04-0.07-0.07-0.12-0.1s-0.08-0.05-0.08-0.06l0.02-0.04c0.04,0,0.14-0.05,0.31-0.15c0.25-0.14,0.5-0.31,0.72-0.51
		c0.16-0.13,0.31-0.28,0.44-0.45c0.13-0.16,0.26-0.34,0.38-0.53c0.25-0.4,0.44-0.85,0.57-1.34c0.02-0.08,0.04-0.17,0.06-0.27
		c0.02-0.1,0.04-0.22,0.05-0.34l-1.01-0.01l-1.25,0.04v-0.44c0.07,0,0.16,0.01,0.25,0.01s0.18,0,0.29,0.01h0.48L94.18,28.38z
		 M97.3,27.57c0,0,0,0.02-0.01,0.04c-0.01,0.02-0.02,0.06-0.03,0.11c-0.03,0.1-0.04,0.17-0.04,0.19l-0.01,6.18l-0.5,0.04l0.01-3.13
		l-1.07,0.03v2.72l-0.47,0.04c0-0.19,0-0.43,0-0.72c0-0.29,0-0.64,0.01-1.03c0-0.4,0.01-0.8,0.01-1.2s0-0.81,0.01-1.23
		c0-0.42,0.01-0.76,0.01-1c0-0.25,0-0.41,0-0.5c0-0.2-0.01-0.36-0.02-0.49h0.04c0.12,0,0.23,0.01,0.34,0.02
		c0.11,0.01,0.16,0.04,0.16,0.08c0,0.01-0.01,0.05-0.04,0.11c-0.02,0.06-0.04,0.12-0.04,0.18c0,0.01,0,0.06,0,0.15
		c0,0.09,0,0.21-0.01,0.37s-0.01,0.3-0.01,0.43s0,0.23,0,0.31l0.01,1.36l1.08-0.02l0.01-2.05v-0.55c0-0.15,0-0.25,0-0.33
		c0-0.08-0.01-0.15-0.02-0.22h0.09c0.18,0,0.3,0.01,0.38,0.02C97.27,27.5,97.3,27.53,97.3,27.57z"/>
	<path d="M102.62,29.72c0,0.45-0.18,0.81-0.54,1.09c-0.34,0.26-0.76,0.39-1.25,0.39c-0.5,0-0.92-0.12-1.25-0.36
		c-0.38-0.27-0.56-0.62-0.56-1.04c0-0.49,0.18-0.88,0.54-1.17c0.33-0.28,0.75-0.41,1.25-0.41c0.53,0,0.96,0.14,1.31,0.41
		C102.44,28.9,102.62,29.26,102.62,29.72z M102.1,29.74c0-0.34-0.13-0.61-0.39-0.8c-0.23-0.17-0.53-0.26-0.88-0.26
		c-0.36,0-0.66,0.09-0.91,0.27c-0.27,0.2-0.4,0.46-0.4,0.8c0,0.31,0.12,0.56,0.37,0.75c0.25,0.19,0.55,0.28,0.92,0.28
		c0.36,0,0.67-0.08,0.92-0.25C101.97,30.33,102.1,30.07,102.1,29.74z M104.72,33.56l-0.03,0.47l-1.09-0.01c-0.29,0-0.6,0-0.95,0
		c-0.35,0-0.74,0.01-1.18,0.01c-0.85,0.02-1.34,0.02-1.47,0.02l0.01-0.78l-0.03-1.22h0.14c0.14,0,0.26,0.01,0.35,0.02
		c0.09,0.01,0.13,0.04,0.13,0.08c0,0.02-0.01,0.06-0.03,0.12c-0.02,0.07-0.03,0.12-0.03,0.17v1.14l1.01,0.02c0.04,0,0.1,0,0.18,0
		s0.16,0,0.27-0.01c0.1,0,0.19-0.01,0.27-0.01s0.14,0,0.2,0L104.72,33.56z M104.56,27.61c0,0.03-0.01,0.08-0.04,0.14
		s-0.04,0.11-0.04,0.13v2.1c0,0.53,0,1.03,0.01,1.49c0.01,0.46,0.02,0.86,0.03,1.18l-0.57,0.01l0.02-2.86l-0.04-2.35h0.08
		c0.17,0,0.3,0.01,0.4,0.02C104.51,27.5,104.56,27.54,104.56,27.61z"/>
	<path d="M110.31,30.78c0,0.01-0.02,0.04-0.06,0.08c-0.04,0.04-0.07,0.07-0.09,0.09c-0.04,0.04-0.07,0.08-0.09,0.12
		s-0.04,0.06-0.06,0.09c-0.06-0.02-0.11-0.05-0.15-0.07c-0.04-0.02-0.09-0.04-0.13-0.06c-0.12-0.07-0.23-0.14-0.36-0.23
		c-0.12-0.09-0.25-0.2-0.38-0.32c-0.19-0.17-0.34-0.39-0.47-0.64c-0.03-0.04-0.05-0.1-0.08-0.15c-0.02-0.06-0.05-0.12-0.08-0.2
		c-0.03,0.07-0.06,0.13-0.09,0.19c-0.03,0.06-0.06,0.11-0.09,0.15c-0.08,0.13-0.17,0.26-0.27,0.38s-0.19,0.23-0.29,0.33
		c-0.12,0.11-0.24,0.22-0.37,0.31c-0.12,0.1-0.25,0.19-0.39,0.27c-0.04,0.02-0.09,0.05-0.15,0.08c-0.06,0.03-0.12,0.06-0.19,0.09
		c-0.04-0.03-0.08-0.06-0.12-0.09s-0.07-0.05-0.11-0.07c-0.12-0.08-0.18-0.14-0.18-0.17c0-0.02,0.01-0.03,0.02-0.03
		c0.57-0.21,1.04-0.54,1.4-0.98c0.39-0.48,0.58-1.02,0.58-1.6l-1.57,0.02v-0.45c0.25,0.01,0.52,0.02,0.82,0.02
		c0.3,0,0.59,0.01,0.87,0.01l1.74-0.01v0.44l-1.36-0.02c0,0.03-0.01,0.06-0.01,0.11c0,0.05,0,0.09,0,0.12
		c0,0.12,0.01,0.23,0.03,0.35c0.02,0.12,0.07,0.26,0.14,0.42c0.17,0.4,0.46,0.75,0.89,1.05c0.14,0.09,0.33,0.2,0.59,0.32
		L110.31,30.78z M112.02,32.89c0,0.35-0.16,0.62-0.48,0.81c-0.37,0.22-1,0.33-1.89,0.33h-0.21c-0.68,0-1.21-0.08-1.57-0.23
		c-0.46-0.18-0.69-0.49-0.69-0.92c0-0.44,0.27-0.75,0.82-0.92c0.18-0.06,0.41-0.1,0.68-0.13s0.57-0.04,0.92-0.04
		c0.35,0,0.66,0.01,0.92,0.04c0.26,0.03,0.49,0.07,0.67,0.13C111.74,32.13,112.02,32.44,112.02,32.89z M111.5,32.92
		c0-0.38-0.33-0.61-0.97-0.69c-0.22-0.03-0.54-0.04-0.94-0.04h-0.16c-0.49,0-0.87,0.04-1.15,0.1c-0.41,0.11-0.62,0.29-0.62,0.56
		c0,0.31,0.23,0.53,0.69,0.64c0.15,0.04,0.33,0.07,0.53,0.09c0.21,0.02,0.43,0.03,0.69,0.03h0.19c0.65,0,1.11-0.07,1.39-0.21
		C111.39,33.3,111.5,33.14,111.5,32.92z M112.04,27.57c0,0-0.01,0.05-0.03,0.12c-0.02,0.08-0.03,0.14-0.03,0.19v0.38
		c-0.02,0.94-0.02,1.54-0.02,1.78v1.56h-0.52l0.01-1.93c-0.2,0-0.46,0.01-0.79,0.02c-0.17,0.01-0.29,0.01-0.39,0.01
		c-0.1,0-0.16,0-0.2,0v-0.44l0.73,0.01l0.67-0.01v-1.46l-0.02-0.34c0.16,0,0.3,0,0.42,0.01S112.04,27.52,112.04,27.57z"/>
	<path d="M120.24,33.46c-0.1,0-0.19-0.01-0.28-0.01c-0.09,0-0.17,0-0.24,0c-1.03-0.01-1.76-0.02-2.2-0.02h-0.61
		c-0.26,0-0.5,0-0.71,0s-0.41,0.01-0.58,0.01c-0.17,0.01-0.36,0.01-0.54,0.01s-0.38,0.01-0.58,0.02c-0.21,0.01-0.38,0.02-0.53,0.02
		c-0.14,0-0.26,0.01-0.35,0.01v-0.58c0.07,0,0.14,0.01,0.2,0.01c0.06,0,0.11,0,0.15,0c0.31,0.01,0.56,0.02,0.73,0.02
		c0.17,0,0.28,0.01,0.32,0.01l1.58-0.02l0.02-0.85l-0.02-0.82l-1.96,0.03l0.02-1.66l-0.02-1.63h0.19c0.13,0,0.25,0.01,0.33,0.02
		c0.08,0.02,0.13,0.04,0.13,0.08c0,0.02-0.01,0.07-0.03,0.13s-0.03,0.11-0.03,0.14v0.71h3.29l-0.01-0.67l-0.04-0.44l0.38-0.01
		c0.09,0,0.16,0.01,0.22,0.02c0.06,0.01,0.08,0.04,0.08,0.09c0,0.02-0.01,0.05-0.03,0.1c-0.02,0.05-0.03,0.08-0.03,0.1l-0.01,1.19
		l0.02,1.82l-1.91-0.01v0.18c-0.01,0.43-0.02,0.66-0.02,0.69l0.02,0.79l1.41-0.02c0.27,0,0.55-0.01,0.84-0.02
		c0.29-0.01,0.56-0.03,0.81-0.04V33.46z M118.5,30.8l-0.01-1.25l-3.25,0.02l-0.02,0.44l0.02,0.79l1.56,0.02L118.5,30.8z"/>
	<path d="M130.14,33.46c-0.1,0-0.19-0.01-0.28-0.01c-0.09,0-0.17,0-0.24,0c-1.03-0.01-1.76-0.02-2.2-0.02h-0.61
		c-0.26,0-0.5,0-0.71,0s-0.41,0.01-0.58,0.01c-0.17,0.01-0.36,0.01-0.54,0.01s-0.38,0.01-0.58,0.02c-0.21,0.01-0.38,0.02-0.53,0.02
		c-0.14,0-0.26,0.01-0.35,0.01v-0.58c0.07,0,0.14,0.01,0.2,0.01c0.06,0,0.11,0,0.15,0c0.31,0.01,0.56,0.02,0.73,0.02
		c0.17,0,0.28,0.01,0.32,0.01l1.58-0.02l0.02-0.85l-0.02-0.82l-1.96,0.03l0.02-1.66l-0.02-1.63h0.19c0.13,0,0.25,0.01,0.33,0.02
		c0.08,0.02,0.13,0.04,0.13,0.08c0,0.02-0.01,0.07-0.03,0.13s-0.03,0.11-0.03,0.14v0.71h3.29l-0.01-0.67l-0.04-0.44l0.38-0.01
		c0.09,0,0.16,0.01,0.22,0.02c0.06,0.01,0.08,0.04,0.08,0.09c0,0.02-0.01,0.05-0.03,0.1c-0.02,0.05-0.03,0.08-0.03,0.1l-0.01,1.19
		l0.02,1.82l-1.91-0.01v0.18c-0.01,0.43-0.02,0.66-0.02,0.69l0.02,0.79l1.41-0.02c0.27,0,0.55-0.01,0.84-0.02
		c0.29-0.01,0.56-0.03,0.81-0.04V33.46z M128.4,30.8l-0.01-1.25l-3.25,0.02l-0.02,0.44l0.02,0.79l1.56,0.02L128.4,30.8z"/>
	<path d="M137.64,33.33c-0.12,0-0.24-0.01-0.34-0.01s-0.2,0-0.28,0c-0.58-0.01-1.07-0.02-1.48-0.02c-0.41,0-0.73-0.01-0.98-0.01
		l-3.53,0.04v-0.56l1.11,0.04l1.87,0.01l-0.02-1.09h0.04c0.16,0,0.3,0.01,0.42,0.02c0.12,0.01,0.18,0.05,0.18,0.1
		c0,0.02-0.01,0.06-0.03,0.12c-0.02,0.06-0.03,0.11-0.03,0.16v0.69H136c0.26,0,0.54,0,0.84-0.01c0.29,0,0.56-0.01,0.81-0.02V33.33z
		 M136.88,29.22c-0.42-0.01-0.86-0.02-1.33-0.02c-0.24,0-0.47-0.01-0.7-0.01c-0.23,0-0.44,0-0.65,0c-0.48,0-0.94,0-1.36,0.01
		c-0.42,0.01-0.8,0.02-1.14,0.03v-0.53c0.09,0.01,0.18,0.01,0.25,0.01s0.15,0,0.21,0c0.44,0.01,0.82,0.02,1.14,0.02
		c0.33,0,0.61,0.01,0.84,0.01c0.55,0,1.05,0,1.49-0.02c0.44-0.01,0.86-0.02,1.25-0.03V29.22z M136.22,30.58
		c0,0.3-0.14,0.54-0.43,0.71c-0.32,0.19-0.82,0.28-1.49,0.28c-0.58,0-1.03-0.07-1.36-0.21c-0.41-0.17-0.62-0.45-0.62-0.83
		c0-0.34,0.17-0.58,0.51-0.74c0.34-0.15,0.82-0.22,1.44-0.22c0.67,0,1.16,0.08,1.47,0.25C136.06,29.98,136.22,30.24,136.22,30.58z
		 M135.69,30.56c0-0.17-0.12-0.31-0.35-0.41S134.75,30,134.26,30c-0.58,0-0.96,0.06-1.17,0.19c-0.14,0.08-0.21,0.2-0.21,0.36
		c0,0.21,0.14,0.36,0.43,0.46c0.24,0.08,0.58,0.13,1,0.13c0.49,0,0.84-0.05,1.06-0.16C135.58,30.88,135.69,30.74,135.69,30.56z
		 M135.2,28.33l-0.98-0.03c-0.17,0-0.34,0-0.5,0.01c-0.16,0.01-0.29,0.02-0.41,0.03v-0.53c0.13,0.01,0.27,0.02,0.43,0.02
		c0.16,0,0.32,0.01,0.46,0.01c0.15,0,0.3,0,0.47-0.01c0.17-0.01,0.34-0.01,0.52-0.02V28.33z"/>
	<path d="M145.11,30.78c0,0.01-0.02,0.04-0.06,0.08c-0.04,0.04-0.07,0.07-0.09,0.09c-0.04,0.04-0.07,0.08-0.09,0.12
		s-0.04,0.06-0.06,0.09c-0.06-0.02-0.11-0.05-0.15-0.07c-0.04-0.02-0.09-0.04-0.13-0.06c-0.12-0.07-0.23-0.14-0.36-0.23
		c-0.12-0.09-0.25-0.2-0.38-0.32c-0.19-0.17-0.34-0.39-0.47-0.64c-0.03-0.04-0.05-0.1-0.08-0.15c-0.02-0.06-0.05-0.12-0.08-0.2
		c-0.03,0.07-0.06,0.13-0.09,0.19c-0.03,0.06-0.06,0.11-0.09,0.15c-0.08,0.13-0.17,0.26-0.27,0.38s-0.19,0.23-0.29,0.33
		c-0.12,0.11-0.24,0.22-0.37,0.31c-0.12,0.1-0.25,0.19-0.39,0.27c-0.04,0.02-0.09,0.05-0.15,0.08c-0.06,0.03-0.12,0.06-0.19,0.09
		c-0.04-0.03-0.08-0.06-0.12-0.09s-0.07-0.05-0.11-0.07c-0.12-0.08-0.18-0.14-0.18-0.17c0-0.02,0.01-0.03,0.02-0.03
		c0.57-0.21,1.04-0.54,1.4-0.98c0.39-0.48,0.58-1.02,0.58-1.6l-1.57,0.02v-0.45c0.25,0.01,0.52,0.02,0.82,0.02
		c0.3,0,0.59,0.01,0.87,0.01l1.74-0.01v0.44l-1.36-0.02c0,0.03-0.01,0.06-0.01,0.11c0,0.05,0,0.09,0,0.12
		c0,0.12,0.01,0.23,0.03,0.35c0.02,0.12,0.07,0.26,0.14,0.42c0.17,0.4,0.46,0.75,0.89,1.05c0.14,0.09,0.33,0.2,0.59,0.32
		L145.11,30.78z M146.82,32.89c0,0.35-0.16,0.62-0.48,0.81c-0.37,0.22-1,0.33-1.89,0.33h-0.21c-0.68,0-1.21-0.08-1.57-0.23
		c-0.46-0.18-0.69-0.49-0.69-0.92c0-0.44,0.27-0.75,0.82-0.92c0.18-0.06,0.41-0.1,0.68-0.13s0.57-0.04,0.92-0.04
		c0.35,0,0.66,0.01,0.92,0.04c0.26,0.03,0.49,0.07,0.67,0.13C146.54,32.13,146.82,32.44,146.82,32.89z M146.3,32.92
		c0-0.38-0.33-0.61-0.97-0.69c-0.22-0.03-0.54-0.04-0.94-0.04h-0.16c-0.49,0-0.87,0.04-1.15,0.1c-0.41,0.11-0.62,0.29-0.62,0.56
		c0,0.31,0.23,0.53,0.69,0.64c0.15,0.04,0.33,0.07,0.53,0.09c0.21,0.02,0.43,0.03,0.69,0.03h0.19c0.65,0,1.11-0.07,1.39-0.21
		C146.19,33.3,146.3,33.14,146.3,32.92z M146.84,27.57c0,0-0.01,0.05-0.03,0.12c-0.02,0.08-0.03,0.14-0.03,0.19v0.38
		c-0.02,0.94-0.02,1.54-0.02,1.78v1.56h-0.52l0.01-1.93c-0.2,0-0.46,0.01-0.79,0.02c-0.17,0.01-0.29,0.01-0.39,0.01
		c-0.1,0-0.16,0-0.2,0v-0.44l0.73,0.01l0.67-0.01v-1.46l-0.02-0.34c0.16,0,0.3,0,0.42,0.01S146.84,27.52,146.84,27.57z"/>
	<path d="M152.1,31.1l-0.01,0.03c-0.01,0.01-0.03,0.03-0.06,0.07l-0.24,0.3c-0.18-0.06-0.44-0.26-0.77-0.58
		c-0.34-0.33-0.51-0.59-0.51-0.76c-0.01,0.04-0.02,0.06-0.03,0.09c-0.01,0.02-0.02,0.05-0.03,0.07c-0.13,0.26-0.36,0.51-0.67,0.76
		c-0.08,0.06-0.15,0.12-0.23,0.17c-0.07,0.05-0.15,0.1-0.22,0.15c-0.04,0.03-0.08,0.05-0.14,0.08c-0.05,0.03-0.1,0.05-0.16,0.08
		c-0.01-0.02-0.03-0.03-0.04-0.04s-0.02-0.02-0.03-0.03c-0.06-0.06-0.12-0.12-0.17-0.15c-0.04-0.03-0.08-0.06-0.1-0.08
		c-0.01-0.01-0.03-0.03-0.03-0.04c0-0.01,0.01-0.01,0.01-0.01c0,0,0.01,0,0.01-0.01c0.03-0.01,0.06-0.03,0.09-0.05
		c0.04-0.02,0.08-0.04,0.12-0.06c0.12-0.07,0.23-0.14,0.36-0.22s0.25-0.19,0.37-0.3c0.24-0.22,0.42-0.5,0.53-0.81
		c0.04-0.1,0.07-0.23,0.09-0.39l-0.42-0.01l-0.88,0.01v-0.42h1.51c0.21,0,0.4,0,0.56,0s0.31,0,0.45,0c0.13,0,0.25-0.01,0.35-0.01
		s0.2-0.01,0.28-0.02v0.43l-0.73-0.01l-0.57,0.01c0,0.35,0.13,0.68,0.38,1c0.08,0.1,0.17,0.19,0.26,0.28c0.1,0.09,0.2,0.17,0.3,0.24
		c0.03,0.02,0.07,0.04,0.12,0.07c0.04,0.02,0.09,0.05,0.15,0.08c0.01,0.01,0.02,0.02,0.04,0.03s0.03,0.02,0.04,0.03L152.1,31.1z
		 M151.32,28.46l-0.83-0.01l-0.73,0.01v-0.43l0.76,0.01l0.79-0.01V28.46z M154.59,34.08l-0.57,0.03l0.02-0.74v-1.03h-1.78
		c-0.33,0-0.63,0-0.88,0s-0.46,0-0.63,0.01c-0.17,0-0.33,0-0.49,0c-0.16,0-0.32,0.01-0.48,0.01v-0.46c0.13,0,0.29,0.01,0.49,0.01
		c0.2,0,0.43,0,0.69,0.01c0.27,0,0.51,0.01,0.73,0.01s0.41,0,0.58,0c0.54,0,1,0,1.37-0.02c0.37-0.01,0.68-0.02,0.94-0.03l-0.01,0.61
		L154.59,34.08z M154.65,27.6c-0.01,0.08-0.03,0.16-0.04,0.24s-0.02,0.16-0.02,0.23l-0.02,2.28c0,0.31,0,0.56,0,0.74
		c0,0.18,0.01,0.33,0.01,0.45l-0.56,0.01l0.02-1.28h-0.91l-0.01,0.34l0.01,0.92l-0.54,0.04c0-0.08,0.01-0.18,0.01-0.31
		c0-0.13,0-0.28,0.01-0.46c0-0.18,0.01-0.35,0.01-0.51c0-0.16,0-0.32,0-0.47c0-0.3,0-0.57,0-0.81s0-0.43-0.01-0.6
		c0-0.17,0-0.31,0-0.45c0-0.13,0-0.25-0.01-0.35h0.15c0.11,0,0.21,0.01,0.3,0.03c0.08,0.02,0.12,0.06,0.12,0.12
		c0,0.01-0.01,0.05-0.02,0.12s-0.01,0.12-0.01,0.15l-0.01,0.91v0.89h0.91l-0.02-2.37c0.15,0,0.29,0.01,0.42,0.03
		C154.59,27.51,154.65,27.54,154.65,27.6z"/>
</g>
<g>
</g>
<g>
</g>
<g>
</g>
<g>
</g>
<g>
</g>
<g>
</g>
</svg>
