<?xml version="1.0" encoding="UTF-8"?>
<svg width="140px" height="35px" viewBox="0 0 140 35" version="1.1" xmlns="http://www.w3.org/2000/svg" xmlns:xlink="http://www.w3.org/1999/xlink">
    <title>sws-white-kr-nav-logo</title>
    <defs>
        <polygon id="path-1" points="0 33.3494559 139.838839 33.3494559 139.838839 0.0658524788 0 0.0658524788"></polygon>
    </defs>
    <g id="Star-Wars-Franchise-Hub" stroke="none" stroke-width="1" fill="none" fill-rule="evenodd">
        <g id="sws-white-kr-nav-logo">
            <polygon id="Fill-1" fill="#FFFFFF" points="74.033185 28.0099541 74.033185 27.6170399 74.1772479 27.6170399 74.1772479 27.5567739 73.8142975 27.5567739 73.8142975 27.6170399 73.957006 27.6170399 73.957006 28.0099541"></polygon>
            <polygon id="Fill-2" fill="#FFFFFF" points="74.7746433 28.0099541 74.7746433 27.5567739 74.6585127 27.5567739 74.5242684 27.9011028 74.3868077 27.5567739 74.27 27.5567739 74.27 28.0099541 74.3458404 28.0099541 74.3458404 27.6314293 74.3480411 27.6314293 74.4987062 28.0099541 74.5459371 28.0099541 74.6967715 27.6314293 74.6989722 27.6314293 74.6989722 28.0099541"></polygon>
            <polygon id="Fill-3" fill="#FFFFFF" points="60.0986481 27.5567908 1.32962757 27.5567908 5.07859734e-05 29.6870931 60.0986481 29.6870931 62.0469674 29.6870931 63.3765441 27.5567908"></polygon>
            <polygon id="Fill-4" fill="#FFFFFF" points="76.4623458 27.5567908 77.7917533 29.6870931 138.509262 29.6870931 139.83867 27.5567908"></polygon>
            <polygon id="Fill-5" fill="#FFFFFF" points="69.7878501 32.2734873 66.447318 32.2734873 67.1847304 31.0940677 69.4401354 31.0940677 70.1756856 29.9168489 65.4463265 29.9168489 64.7099299 31.0940677 65.7918404 31.0940677 64.3205707 33.4529069 70.4370641 33.4529069 72.7330979 29.7814196 73.5546457 31.0940677 72.8737751 31.0940677 72.1372092 32.2734873 74.2898573 32.2734873 75.0255768 33.4529069 76.4164353 33.4529069 72.7330979 27.5568247"></polygon>
            <polygon id="Fill-6" fill="#FFFFFF" points="66.1834341 28.7368706 71.0345103 28.7368706 71.771584 27.5567739 66.9240629 27.5567739"></polygon>
            <g id="Group-36" transform="translate(0.000000, 0.103434)">
                <path d="M139.838704,3.9556179 L96.0647497,3.9556179 C96.0733833,4.04144619 96.0793083,4.13184522 96.0793083,4.22783071 C96.0793083,5.16872551 95.5594293,5.75107134 95.3989456,5.90698428 C95.3337703,5.97249819 95.2650399,6.03073277 95.198341,6.08608948 L138.509127,6.08608948 L139.838704,3.9556179 Z" id="Fill-7" fill="#FFFFFF"></path>
                <path d="M62.2087545,1.76977267 C62.3514631,1.76977267 62.6382346,1.83968803 62.6382346,2.16302539 C62.6382346,2.48619347 62.3208222,2.53139299 62.3208222,2.53139299 L60.9563724,2.53139299 L60.9548489,1.76977267 L62.2087545,1.76977267 Z M60.930133,6.08607255 L60.930133,4.36341233 L62.2087545,5.63323096 C62.6485611,6.07151391 63.3722612,6.08607255 63.3722612,6.08607255 L67.0156469,6.08607255 L67.0156469,3.95560097 L64.0725998,3.95560097 C63.7101572,3.9527231 63.6852721,3.81001451 63.6852721,3.79105441 C63.6852721,3.7546578 63.7304716,3.73129625 63.7304716,3.73129625 C63.8674244,3.66730593 64.1440387,3.45180411 64.1440387,3.45180411 C64.7338331,2.99879323 64.8037485,2.37700363 64.8037485,2.04350907 C64.8037485,1.71001451 64.7527932,1.11886578 64.1484401,0.601864571 C63.5454414,0.0835090689 62.7780653,0.0660725514 62.7780653,0.0660725514 L58.5215236,0.0660725514 L58.5230472,6.08607255 L60.930133,6.08607255 Z" id="Fill-9" fill="#FFFFFF"></path>
                <path d="M86.590474,1.76977267 L87.8442104,1.76977267 C87.9853954,1.76977267 88.2723362,1.83968803 88.2723362,2.16302539 C88.2723362,2.48619347 87.9562781,2.53139299 87.9562781,2.53139299 L86.590474,2.53139299 L86.590474,1.76977267 Z M86.5655889,4.36341233 L87.845734,5.63170738 C88.2840169,6.06999033 89.0107642,6.08607255 89.0107642,6.08607255 L93.6763023,6.08454897 C94.4714414,6.08454897 94.914295,5.65642322 95.0349964,5.53707618 C95.1572213,5.41755985 95.5591076,4.97064329 95.5591076,4.22781378 C95.5591076,3.48667715 95.2171487,3.10662878 95.071393,2.93327932 C94.9403652,2.77601209 94.4206554,2.23294075 94.3128198,2.11934946 C94.2996155,2.11054655 94.2909819,2.09446433 94.2909819,2.07702781 C94.2909819,2.0494341 94.3055405,2.02607255 94.3300871,2.01879323 L97.340341,2.01879323 L97.340341,0.0660725514 L93.4696034,0.0660725514 C93.105468,0.0660725514 92.5987932,0.250933495 92.3060967,0.464911729 C92.0134002,0.67905925 91.5911995,1.16694317 91.5911995,1.83968803 C91.5911995,2.5110786 92.0044281,3.03383555 92.0044281,3.03383555 C92.2156977,3.29148972 92.7487811,3.83320677 92.7487811,3.83320677 C92.7604619,3.84641112 92.7677412,3.86232406 92.7677412,3.88128416 C92.7677412,3.92208222 92.7355768,3.95560097 92.6947787,3.95560097 L89.7111028,3.95560097 C89.3484909,3.9527231 89.3222515,3.81001451 89.3222515,3.79105441 C89.3222515,3.7546578 89.3688053,3.72994196 89.3688053,3.72994196 C89.5044039,3.66730593 89.7808489,3.45180411 89.7808489,3.45180411 C90.3708126,2.99879323 90.4420822,2.37564933 90.4420822,2.04350907 C90.4420822,1.71001451 90.391127,1.1173422 89.7867739,0.600510278 C89.1824208,0.0835090689 88.4150447,0.0689504232 88.4150447,0.0689504232 L84.1583337,0.0689504232 L84.1583337,6.08607255 L86.5655889,6.08607255 L86.5655889,4.36341233 Z" id="Fill-11" fill="#FFFFFF"></path>
                <path d="M71.8365901,6.08592019 C71.8365901,6.08507376 72.5618138,3.77261911 72.5618138,3.77261911 L73.2677388,6.08592019 L75.3286336,6.08592019 C75.3286336,6.08592019 77.1814752,0.0733688029 77.1814752,0.0674437727 L74.8717291,0.0674437727 C74.8717291,0.0682902056 74.3758888,1.70393712 74.3758888,1.70461427 L73.8588875,0.0674437727 L71.337364,0.0665973398 L70.876058,1.70461427 L70.3810641,0.0665973398 L67.9111729,0.0665973398 L69.7944861,6.08592019 L71.8365901,6.08592019 Z" id="Fill-13" fill="#FFFFFF"></path>
                <path d="M79.9572164,1.90806288 L80.4769262,3.57841354 L79.4358138,3.57841354 L79.9572164,1.90806288 Z M78.6247618,6.08605562 L78.8998525,5.21524547 L80.9705659,5.21372189 L81.2519202,6.08605562 L83.4727908,6.08605562 L81.5865998,0.0658863362 L78.211364,0.0674099154 C78.211364,0.0674099154 76.3705417,6.07572914 76.3705417,6.08605562 L78.6247618,6.08605562 Z" id="Fill-15" fill="#FFFFFF"></path>
                <path d="M54.6203652,1.90674244 L55.1402443,3.5784474 L54.0989625,3.5784474 L54.6203652,1.90674244 Z M53.2879105,6.0845659 L53.5630012,5.21527932 L55.6367618,5.21527932 L55.9148996,6.08608948 L58.135601,6.08608948 L56.2483942,0.0659201935 L52.8756977,0.0659201935 C52.8756977,0.0659201935 51.0336904,6.07440871 51.0336904,6.08608948 L53.2879105,6.0845659 Z" id="Fill-17" fill="#FFFFFF"></path>
                <path d="M44.9932576,5.53854897 C45.1141282,5.41920193 45.5173688,4.9705925 45.5173688,4.22945586 C45.5173688,3.48814994 45.1752406,3.10370012 45.0296542,2.92899637 C44.8986264,2.77325272 44.378578,2.23288996 44.2693881,2.12082225 C44.2563531,2.11066505 44.2490738,2.09458283 44.2490738,2.07714631 C44.2490738,2.05090689 44.2636324,2.02619105 44.286994,2.01891173 L47.1034148,2.01891173 L47.1034148,6.08619105 L49.2701137,6.08619105 L49.2701137,2.02906892 L51.9001499,2.02906892 L51.9001499,0.0660217654 L43.426341,0.0660217654 C43.0652527,0.0660217654 42.5555308,0.251051995 42.2628343,0.46503023 C41.9714921,0.679177751 41.5477678,1.16689238 41.5477678,1.83980653 C41.5477678,2.51102781 41.9613349,3.03378476 41.9613349,3.03378476 C42.1739589,3.29296252 42.7055187,3.83772672 42.7055187,3.83772672 C42.7170302,3.8494075 42.7258331,3.86684401 42.7258331,3.88563482 C42.7258331,3.9250786 42.6923144,3.95859734 42.6516856,3.95859734 C42.6457606,3.95859734 8.54382588,3.95571947 1.32967836,3.95571947 L0.000101571947,6.08619105 L43.6332092,6.08619105 C44.4297025,6.08619105 44.8723869,5.65789601 44.9932576,5.53854897" id="Fill-19" fill="#FFFFFF"></path>
                <polygon id="Fill-21" fill="#FFFFFF" points="98.0822902 0.519794438 98.1581306 0.519794438 98.1581306 0.12688029 98.3023628 0.12688029 98.3023628 0.066783555 97.9394123 0.066783555 97.9394123 0.12688029 98.0822902 0.12688029"></polygon>
                <polygon id="Fill-23" fill="#FFFFFF" points="98.4709553 0.141218863 98.4733253 0.141218863 98.623821 0.519743652 98.6712213 0.519743652 98.821717 0.141218863 98.8240871 0.141218863 98.8240871 0.519743652 98.8997582 0.519743652 98.8997582 0.066732769 98.7837969 0.066732769 98.6495526 0.410892382 98.5119226 0.066732769 98.3952842 0.066732769 98.3952842 0.519743652 98.4709553 0.519743652"></polygon>
                <path d="M48.194162,10.3264305 L48.194162,10.7728392 C48.0453591,11.973081 47.4997485,13.0492358 46.5574994,14.0014728 C45.7935091,14.7654631 44.935734,15.3159831 43.983497,15.6530326 L44.9208368,17.5426094 C45.9226747,17.3343869 46.9094462,16.8532745 47.881659,16.0994414 C48.5660846,15.5736372 49.0668343,15.0727183 49.384416,14.5966844 C49.8406433,15.241497 50.4829166,15.8590544 51.3112358,16.4490181 C52.1393857,17.0393204 52.9304619,17.4288489 53.6844643,17.6170955 L54.7557098,15.6977243 C53.5850931,15.2910979 52.5883337,14.4827545 51.7650931,13.2723555 C51.1003047,12.2904933 50.7681644,11.4672527 50.7681644,10.8026336 L50.7681644,10.3264305 L48.194162,10.3264305 Z" id="Fill-25" fill="#FFFFFF"></path>
                <mask id="mask-2" fill="white">
                    <use xlink:href="#path-1"></use>
                </mask>
                <g id="Clip-28"></g>
                <polygon id="Fill-27" fill="#FFFFFF" mask="url(#mask-2)" points="44.0580169 23.2858767 54.8747521 23.2858767 54.8747521 21.0986941 44.0580169 21.0986941"></polygon>
                <polygon id="Fill-29" fill="#FFFFFF" mask="url(#mask-2)" points="62.7306651 23.598312 62.7306651 18.5097267 64.9772672 18.5097267 64.9772672 16.4266554 56.9874486 16.4266554 56.9874486 18.5097267 60.0376542 18.5097267 60.0376542 23.598312"></polygon>
                <polygon id="Fill-30" fill="#FFFFFF" mask="url(#mask-2)" points="65.1112576 23.598312 67.8191657 23.598312 67.8191657 10.0288077 65.1112576 10.0288077 65.1112576 19.1645272 63.3853809 19.1645272 63.3853809 21.1731125 65.1112576 21.1731125"></polygon>
                <path d="M61.4510955,16.1886385 L64.1887981,16.1886385 C64.3176252,15.7224232 64.4119178,14.7899927 64.4715067,13.3915163 C64.5013011,12.6376832 64.516029,11.7152406 64.516029,10.6240193 L64.516029,10.3413108 L57.6421475,10.3413108 L57.6421475,12.4392793 L61.7784958,12.4392793 L61.7784958,13.2427134 L57.7909504,13.2427134 L57.7909504,15.3256155 L61.6742152,15.3256155 C61.6542394,15.4149988 61.6445901,15.4844063 61.6445901,15.5340073 C61.5948198,15.8414317 61.5303216,16.0598114 61.4510955,16.1886385" id="Fill-31" fill="#FFFFFF" mask="url(#mask-2)"></path>
                <polygon id="Fill-32" fill="#FFFFFF" mask="url(#mask-2)" points="71.4049093 23.2709794 81.9093108 23.2709794 81.9093108 21.0243773 71.4049093 21.0243773"></polygon>
                <path d="M81.4778162,12.5731173 L81.4778162,10.3116179 L71.8811294,10.3116179 L71.8811294,15.9505538 C71.8811294,16.7937703 71.9852406,17.324653 72.1934631,17.5426941 C72.4514559,17.8204933 73.0862805,17.9593083 74.0979371,17.9593083 L81.5374051,17.9593083 L81.5374051,15.6976397 L74.8270544,15.6976397 L74.8270544,12.5731173 L81.4778162,12.5731173 Z" id="Fill-33" fill="#FFFFFF" mask="url(#mask-2)"></path>
                <path d="M85.7480193,19.6108174 L85.7480193,22.0211197 C85.7480193,22.6361378 85.8768464,23.0574921 86.1348392,23.2858597 C86.3630375,23.4842636 86.7647545,23.5834655 87.3399903,23.5834655 L95.1662781,23.5834655 L95.1662781,21.6194027 L88.4410302,21.6194027 L88.4410302,19.6108174 L85.7480193,19.6108174 Z" id="Fill-34" fill="#FFFFFF" mask="url(#mask-2)"></path>
                <path d="M95.7167473,17.185601 L91.6399879,17.185601 L91.6399879,16.724295 L95.1960218,16.724295 L95.1960218,14.7751294 L88.3517654,14.7751294 L88.3517654,14.3139927 L95.1960218,14.3139927 L95.1960218,9.99904716 L85.6438573,9.99904716 L85.6438573,11.9780073 L92.4881137,11.9780073 L92.4881137,12.4095187 L85.6438573,12.4095187 L85.6438573,14.8645127 C85.6438573,15.6083579 85.7726844,16.1045369 86.0306771,16.3523724 C86.2886699,16.600208 86.8490085,16.724295 87.7120314,16.724295 L88.946977,16.724295 L88.946977,17.185601 L85.1825514,17.185601 L85.1825514,19.1347666 L95.7167473,19.1347666 L95.7167473,17.185601 Z" id="Fill-35" fill="#FFFFFF" mask="url(#mask-2)"></path>
            </g>
        </g>
    </g>
</svg>