<?xml version="1.0" encoding="UTF-8"?>
<svg width="472px" height="138px" viewBox="0 0 472 138" version="1.1" xmlns="http://www.w3.org/2000/svg" xmlns:xlink="http://www.w3.org/1999/xlink">
    <!-- Generator: Sketch 61 (89581) - https://sketch.com -->
    <title>ufc-logo</title>
    <desc>Created with Sketch.</desc>
    <g id="ufc-logo" stroke="none" stroke-width="1" fill="none" fill-rule="evenodd">
        <g fill="#FFFFFF" fill-rule="nonzero">
            <path d="M69.97,-1.42108547e-14 C31.8623523,-1.42108547e-14 0.97,30.8923523 0.97,69 C0.97,107.107648 31.8623523,138 69.97,138 C108.077648,138 138.97,107.107648 138.97,69 C138.97,50.7000622 131.700378,33.1496422 118.760368,20.2096321 C105.820358,7.26962199 88.2699378,-1.42108547e-14 69.97,-1.42108547e-14 Z M69.97,128.38 C37.1655877,128.38 10.5718415,101.787745 10.5700009,68.9833328 C10.5681604,36.1789205 37.1589224,9.58368197 69.9633345,9.58000037 C102.767747,9.57631878 129.364477,36.1655882 129.370001,68.97 C129.372652,84.725592 123.115627,99.8367836 111.975679,110.978607 C100.83573,122.120431 85.7255923,128.38 69.97,128.38 Z" id="Shape"></path>
            <path d="M44.19,31.92 L79.65,31.92 L74.21,40.52 L38.77,40.52 L44.19,31.92 Z M69.89,75.03 L24.97,75.03 L35.89,57.79 L27.89,57.79 L33.34,49.16 L66.74,49.16 L61.28,57.79 L46.28,57.79 L40.75,66.42 L64.89,66.42 L86.89,31.6 L114.32,75.01 L103.98,75.01 L98.53,66.39 L82.31,66.39 L87.76,57.75 L93.08,57.75 L86.89,47.98 L69.89,75.03 Z" id="EA"></path>
            <polygon id="Path" points="117.08 80.39 116.38 80.39 116.38 81.88 116.03 81.88 116.03 80.39 115.33 80.39 115.33 80.08 117.08 80.08"></polygon>
            <path d="M119.5,81.88 L119.18,81.88 L119.18,80.77 C119.175931,80.7033954 119.175931,80.6366046 119.18,80.57 C119.160389,80.6408714 119.130037,80.7083204 119.09,80.77 L118.52,81.65 L118.46,81.65 L117.88,80.75 C117.88,80.7 117.81,80.63 117.77,80.57 C117.73,80.51 117.77,80.7 117.77,80.77 L117.77,81.88 L117.46,81.88 L117.46,80.08 L117.77,80.08 L118.47,81.17 L119.18,80.08 L119.45,80.08 L119.5,81.88 Z" id="Path"></path>
            <path d="M37,94.12 C37.0160726,95.1753098 36.6080729,96.1929475 35.8674304,96.9448689 C35.1267878,97.6967903 34.1154322,98.1201224 33.06,98.12 L28.39,98.12 C27.3460074,98.1437068 26.3378216,97.738987 25.6,97 C24.8596251,96.2638271 24.4576994,95.2535815 24.49,94.21 L24.49,92.36 L27.37,92.36 L27.79,94.08 C27.9345461,94.7599275 28.5685563,95.2214179 29.26,95.15 L32.42,95.15 C32.8040473,95.1691203 33.1746331,95.0060625 33.42,94.71 C33.6591752,94.3980577 33.7828591,94.0128707 33.77,93.62 L33.77,91.62 C33.77,90.62 33.33,90.11 32.45,90.11 L28.45,90.11 C27.3833716,90.1291739 26.3547775,89.7139065 25.6004355,88.9595645 C24.8460935,88.2052225 24.4308261,87.1766284 24.45,86.11 L24.45,83.4 C24.4430522,82.3423955 24.8737476,81.3289945 25.64,80.6 C26.3809111,79.8498989 27.3957882,79.4345577 28.45,79.45 L33.06,79.45 C34.1014999,79.4396729 35.102056,79.8550662 35.83,80.6 C36.5771748,81.3241297 36.9839029,82.3300554 36.95,83.37 L36.95,85.04 L34.1,85.04 L33.67,83.53 C33.5072228,82.8651785 32.8933517,82.411082 32.21,82.45 L29.09,82.45 C28.70445,82.4224781 28.3301879,82.5871534 28.09,82.89 C27.8297901,83.1954376 27.6972774,83.5893943 27.72,83.99 L27.72,85.56 C27.72,86.56 28.16,87.03 29.05,87.03 L33.05,87.03 C34.1167788,86.9940096 35.1488163,87.4119121 35.89,88.18 C36.6436703,88.9110563 37.0632014,89.920101 37.05,90.97 L37,94.12 Z" id="Path"></path>
            <path d="M48.64,82.47 L44.15,82.47 L44.15,88.25 L48.64,88.25 C49.023196,88.2764567 49.3955994,88.1163233 49.64,87.82 C49.895795,87.5120817 50.0277059,87.1199141 50.01,86.72 L50.01,84 C50.0277059,83.6000859 49.895795,83.2079183 49.64,82.9 C49.3955994,82.6036767 49.023196,82.4435433 48.64,82.47 L48.64,82.47 Z M53.26,87.3 C53.2762128,88.3514226 52.8605406,89.363494 52.11,90.1 C51.3619996,90.8529363 50.3412678,91.2713281 49.28,91.26 L44.15,91.26 L44.15,98.1 L40.89,98.1 L40.89,79.47 L49.31,79.47 C50.3567768,79.4576815 51.3649935,79.864569 52.11,80.6 C52.8549338,81.327944 53.2703271,82.3285001 53.26,83.37 L53.26,87.3 Z" id="Shape"></path>
            <path d="M80.66,82.47 L76.35,82.47 L76.35,87.8 L80.66,87.8 C81.0186195,87.8094375 81.3629382,87.6592559 81.6,87.39 C81.8438099,87.0805042 81.9680517,86.6935798 81.95,86.3 L81.95,84 C81.9677948,83.6033868 81.8437103,83.2134071 81.6,82.9 C81.3704046,82.6185201 81.0230947,82.4596442 80.66,82.47 Z M82.51,98.1 L79.51,90.8 L76.35,90.8 L76.35,98.1 L73.06,98.1 L73.06,79.47 L81.29,79.47 C82.3418511,79.4539672 83.3564343,79.8592376 84.1077671,80.5955438 C84.8590999,81.33185 85.2847822,82.3380397 85.29,83.39 L85.29,86.6 C85.2959865,87.4169049 85.0517041,88.2160573 84.59,88.89 C84.1253016,89.5335561 83.496918,90.0410967 82.77,90.36 L86.04,98.06 L82.51,98.1 Z" id="Shape"></path>
            <polygon id="Path" points="100.14 82.47 95.36 82.47 95.36 98.09 92.06 98.09 92.06 82.47 87.33 82.47 87.33 79.46 100.14 79.46"></polygon>
            <path d="M115.07,94.12 C115.07,96.329139 113.279139,98.12 111.07,98.12 L106.41,98.12 C105.368121,98.1392765 104.363368,97.7331928 103.627466,96.9954045 C102.891565,96.2576162 102.488055,95.2518257 102.51,94.21 L102.51,92.36 L105.38,92.36 L105.81,94.08 C105.962587,94.7546735 106.591085,95.2121514 107.28,95.15 L110.44,95.15 C110.824343,95.1707315 111.195621,95.0073688 111.44,94.71 C111.686592,94.4014652 111.814328,94.0147101 111.8,93.62 L111.8,91.62 C111.8,90.62 111.36,90.11 110.47,90.11 L106.47,90.11 C105.414901,90.1301604 104.398236,89.7140872 103.66,88.96 C102.908189,88.2194518 102.489509,87.2052355 102.5,86.15 L102.5,83.4 C102.502552,82.3463027 102.927062,81.337532 103.678688,80.599059 C104.430314,79.8605861 105.446422,79.4539507 106.5,79.47 L111.09,79.47 C112.138694,79.4473507 113.150784,79.8558016 113.89,80.6 C114.632573,81.327973 115.04148,82.3303375 115.02,83.37 L115.02,85.04 L112.15,85.04 L111.72,83.53 C111.56145,82.8667113 110.950914,82.4119669 110.27,82.45 L107.14,82.45 C106.75445,82.4224781 106.380188,82.5871534 106.14,82.89 C105.888335,83.2002063 105.756967,83.5907588 105.77,83.99 L105.77,85.56 C105.77,86.56 106.22,87.03 107.1,87.03 L111.1,87.03 C113.309139,87.03 115.1,88.820861 115.1,91.03 L115.07,94.12 Z" id="Path"></path>
            <path d="M69.04,94.1 C69.0769456,95.1640178 68.6586654,96.1933506 67.89,96.93 C67.1565675,97.693468 66.1385394,98.1173444 65.08,98.1 L60.62,98.1 C58.410861,98.1 56.62,96.309139 56.62,94.1 L56.62,83.39 C56.6635654,81.2121652 58.4417295,79.4695643 60.62,79.47 L65.07,79.47 C66.1249414,79.4453731 67.1439727,79.8537084 67.89,80.6 C68.6545222,81.3194631 69.0763988,82.3305123 69.05,83.38 L69.04,94.1 Z M64.43,82.47 L61.28,82.47 C60.8973726,82.4468418 60.5264035,82.6063585 60.28,82.9 C60.0362897,83.2134071 59.9122052,83.6033868 59.93,84 L59.93,93.6 C59.9137262,93.9933409 60.0377747,94.3796634 60.28,94.69 C60.5202407,94.9937969 60.893298,95.1616727 61.28,95.14 L64.43,95.14 C64.7993458,95.1455746 65.1503387,94.9793148 65.38,94.69 C65.6353866,94.385184 65.7705346,93.9975225 65.76,93.6 L65.76,84 C65.7730043,83.5990658 65.637707,83.2074157 65.38,82.9 C65.1454135,82.6193772 64.7956503,82.4610633 64.43,82.47 Z" id="Shape"></path>
            <polygon id="Path" points="290.5 49.28 238.21 49.28 242.55 33.63 294.84 33.63"></polygon>
            <polygon id="Path" points="255.06 75.72 283.17 75.72 287.51 60.07 235.21 60.07 222.81 104.78 247.01 104.78"></polygon>
            <path d="M314.38,88.6 C313.796113,88.3067204 313.363742,87.779882 313.19,87.15 C313.147979,86.969861 313.131152,86.7847634 313.14,86.6 C313.148523,86.4243575 313.175334,86.2500821 313.22,86.08 L322.69,51.92 C322.883,51.0846869 323.406104,50.3631637 324.14,49.92 C325.266881,49.4447611 326.490134,49.2425989 327.71,49.33 L353.83,49.33 L358.17,33.6 L321.55,33.6 C314.87,33.6 310.22,34.39 307.55,35.89 C304.88,37.39 302.89,40.09 301.89,44.01 L288.37,92.72 C288.174857,93.4148573 288.057471,94.1292341 288.02,94.85 C287.978663,95.5798154 288.049486,96.3116541 288.23,97.02 C288.917159,99.4835241 290.608224,101.544736 292.89,102.7 C295.732308,104.167619 298.902833,104.883655 302.1,104.78 L340.44,104.78 L344.78,89.13 L316.78,89.13 C315.967455,89.1569318 315.161641,88.9744182 314.44,88.6" id="Path"></path>
            <path d="M169.89,33.6 L153.5,92.69 C153.309697,93.3859224 153.192398,94.0997739 153.15,94.82 C153.113212,95.5497175 153.183969,96.2808778 153.36,96.99 C154.049461,99.4553881 155.744416,101.516918 158.03,102.67 C160.875902,104.137605 164.049642,104.85359 167.25,104.75 L194.51,104.75 C201.19,104.75 205.84,103.96 208.51,102.46 C211.18,100.96 213.1,98.29 214.18,94.37 L231.04,33.6 L206.89,33.6 L192.22,86.46 C192.033696,87.2955357 191.513303,88.018304 190.78,88.46 C189.653119,88.9352389 188.429866,89.1374011 187.21,89.05 L183.05,89.05 C182.234265,89.07686 181.425239,88.8943988 180.7,88.52 C180.118488,88.2237587 179.68711,87.6981302 179.51,87.07 C179.467979,86.889861 179.451152,86.7047634 179.46,86.52 C179.473469,86.3448919 179.500213,86.1710591 179.54,86 L194.04,33.6 L169.89,33.6 Z" id="Path"></path>
            <path d="M365.28,35.01 L364.67,35.01 L364.67,36.01 L365.28,36.01 C365.58,36.01 365.68,35.9 365.68,35.69 L365.68,35.36 C365.68,35.09 365.56,35.02 365.28,35.02 M365.28,36.45 L364.71,36.45 L364.71,37.37 L364.25,37.37 L364.25,34.6 L365.33,34.6 C365.95,34.6 366.2,34.87 366.2,35.34 L366.2,35.72 C366.219484,36.0024109 366.059373,36.2665934 365.8,36.38 L366.54,37.38 L365.89,37.38 L365.28,36.45 Z" id="Shape"></path>
            <path d="M365.14,38.5 C366.142571,38.5121699 367.053027,37.9170661 367.444222,36.9938853 C367.835417,36.0707046 367.629726,35.0026362 366.923648,34.2907715 C366.217571,33.5789068 365.151217,33.364503 364.224874,33.7481491 C363.298531,34.1317952 362.696015,35.0373633 362.7,36.04 C362.652469,36.7023258 362.893511,37.3528742 363.36113,37.8243262 C363.828749,38.2957782 364.477308,38.5421224 365.14,38.5 M365.14,33 C366.796854,33 368.14,34.3431458 368.14,36 C368.14,37.6568542 366.796854,39 365.14,39 C363.483146,39 362.14,37.6568542 362.14,36 C362.111764,35.1960266 362.418758,34.416449 362.987603,33.8476035 C363.556449,33.278758 364.336027,32.971764 365.14,33" id="Shape"></path>
            <path d="M405,77.53 C405.091865,77.4381229 405.17866,77.341313 405.26,77.24 L405.37,77.24 L408.53,76.7 L408.89,76.7 C408.955517,76.739537 409.026186,76.7698239 409.1,76.79 C409.17971,76.7996348 409.26029,76.7996348 409.34,76.79 L409.34,76.79 C409.4,76.79 408.66,77.17 408.73,77.14 L408.85,77.14 C408.85,77.14 408.94,77.08 408.9,77.14 L408.9,77.14 L408.9,77.14 L408.9,77.14 L409.9,76.81 L410.9,76.53 L412.9,76.08 L412.9,76.08 L412.98,76.08 L412.98,76.08 L413.05,76.08 L413.2,76.08 C413.302806,76.0947692 413.407194,76.0947692 413.51,76.08 C413.607057,76.0687097 413.701628,76.0416895 413.79,76 L413.87,76 L413.87,76.07 L414,76.07 L415.41,75.85 L415.41,75.85 L416.75,75.44 L416.81,75.44 L416.81,75.44 L416.81,75.44 L417.03,75.44 C417.100178,75.4722844 417.174069,75.495795 417.25,75.51 C417.349759,75.5198276 417.450241,75.5198276 417.55,75.51 C417.653555,75.4991148 417.754775,75.4721229 417.85,75.43 L417.98,75.35 L418.06,75.29 L418.06,75.29 L418.7,75.2 L418.7,75.2 L418.87,75.2 L418.87,75.62 L418.87,75.6 L419.08,75.52 L419.82,75.24 L419.82,75.24 L419.82,75.42 L419.98,75.42 L424.53,75.07 L423.36,78.16 C423.378341,78.2387585 423.355786,78.321458 423.3,78.38 L423.3,78.38 L422.89,80.6 L422.8,81.02 C421.85,85.02 412.21,104.19 412.12,104.39 C411.94,104.78 411.87,105.21 411.47,105.49 C411.433792,105.515171 411.41156,105.55593 411.41,105.6 C411.254015,106.16171 410.973776,106.681178 410.59,107.12 C410.440918,107.315637 410.313506,107.526873 410.21,107.75 C409.92,108.47 409.65,109.2 409.36,109.95 L409.86,110.38 L410,110.38 C409.949385,110.515971 409.912534,110.656675 409.89,110.8 C409.881831,110.94747 409.940615,111.090757 410.05,111.19 C410.378556,111.478551 410.524144,111.922979 410.43,112.35 C410.95,112.64 411.43,112.95 412.02,113.23 C412.486344,113.315809 412.957055,113.375899 413.43,113.41 C413.86,113.51 414.3,113.56 414.71,113.7 C415.970281,113.808089 417.235275,113.851479 418.5,113.83 C418.737286,113.823911 418.97391,113.857714 419.2,113.93 C419.966916,114.215593 420.799064,114.278005 421.6,114.11 C422.126058,113.9881 422.638608,113.8139 423.13,113.59 C423.973893,113.255746 424.742326,112.755924 425.39,112.12 C425.503033,111.979271 425.699467,111.937476 425.86,112.02 L425.63,112.33 L426.12,112.51 C426.348673,112.046313 426.730057,111.675523 427.2,111.46 L427.2,111.46 C427.37,111.26 427.2,110.9 427.62,110.79 C427.62,110.98 427.62,111.15 427.62,111.32 C427.82,111.02 428.2,110.8 428.22,110.4 C428.22,110.33 428.39,110.28 428.49,110.23 C428.664272,110.177529 428.827108,110.092719 428.97,109.98 C429.27,109.65 429.36,109.19 429.86,108.98 C429.8,108.72 430.04,108.6 430.14,108.4 C430.358136,108.016326 430.646481,107.677098 430.99,107.4 C431.07,107.33 431.12,107.3 431.09,107.15 C431.06,107 431.35,106.96 431.65,107.02 L431.14,107.71 L431.62,107.71 C431.62,107.71 431.71,107.71 431.74,107.63 C431.77,107.55 431.43,107.44 431.61,107.31 C431.728635,107.231104 431.839174,107.140663 431.94,107.04 C432.048491,106.940983 432.145745,106.830315 432.23,106.71 L431.74,106.56 L431.87,106.21 C432.03,106.47 432.22,106.56 432.47,106.43 L432.24,106.05 L432.69,105.98 C432.63,106.11 432.6,106.18 432.55,106.27 L433.05,106.27 L432.76,105.81 L433.03,105.53 L433.31,105.85 C433.497581,105.694304 433.665486,105.516325 433.81,105.32 C433.850657,105.23945 433.856559,105.145765 433.826331,105.060749 C433.796103,104.975733 433.732383,104.906803 433.65,104.87 L434.52,104.47 L434.15,104.28 L433.92,104.46 C433.92,104.2 434,104.1 434.26,104.15 C434.59,103.83 434.93,103.53 435.26,103.15 C435.43812,102.920403 435.60177,102.679938 435.75,102.43 L435.21,102.3 L435.14,101.81 L436.7,99.68 L439.79,93.56 L439.63,92.97 C439.26,93.36 438.89,93.76 438.53,94.16 C438.02,94.73 437.53,95.29 437.02,95.88 C436.51,96.47 435.89,97.31 435.32,98.03 C435.11,98.29 433.9,99.93 433.82,100.12 L433.34,99.8 C432.71,100.8 432.05,101.8 431.34,102.8 C430.51,104.01 429.66,105.2 428.81,106.39 L428.3,107.11 C428.6,106.42 429.04,105.79 429.4,105.11 C429.67,104.61 430.2,104.22 430.15,103.57 C430.15,103.5 430.23,103.44 430.28,103.37 C430.96,102.37 435.79,94.56 435.81,94.53 C436.318891,93.6529855 436.75695,92.7367412 437.12,91.79 C437.12,91.62 437.18,91.41 437.32,91.32 L438.71,89.11 L444.09,73.36 L444.49,73.2 L449.06,71.8 C449.943016,71.7986672 450.823816,71.7115919 451.69,71.54 C452.55,71.37 453,70.73 453.84,70.48 C455.52,69.97 456.09,69.48 457.84,69.48 C458.070532,69.4893379 458.297493,69.5401501 458.51,69.63 L459.18,69.9 C459.62,70.07 460.07,70.27 460.52,70.43 L463.33,71.08 C463.844937,71.1317689 464.362797,71.1484741 464.88,71.13 C465.259411,71.1000778 465.640589,71.1000778 466.02,71.13 C466.31095,71.1644546 466.596479,71.2349971 466.87,71.34 C467.099883,71.4300459 467.343283,71.4807543 467.59,71.49 C467.829767,71.5049626 468.070233,71.5049626 468.31,71.49 L469.02,71.49 L469.02,71.49 C469.09,71.42 469.17,71.35 469.24,71.38 C469.326619,71.4226677 469.4073,71.4764551 469.48,71.54 C469.64,71.66 469.82,71.76 469.99,71.87 L469.99,71.87 L469.99,71.87 L470.39,71.51 L470.51,71.4 L470.57,71.4 L470.95,71.06 L471.38,71.06 L471.46,70.88 C471.547707,70.7084633 471.602005,70.5218165 471.62,70.33 C471.636894,70.1301905 471.559164,69.9340131 471.41,69.8 C471.300721,69.6600966 471.219253,69.5005551 471.17,69.33 L471.31,69.33 C471.427999,69.3106486 471.540507,69.2663274 471.64,69.2 L471.64,69.13 L471.77,69.13 C471.98,69.13 471.57,68.3 471.62,68.05 C471.624002,67.8056761 471.498482,67.5774577 471.29,67.45 C471.101922,67.3111646 470.901009,67.1906168 470.69,67.09 C470.5,66.97 470.34,66.4 470.18,66.23 C470.02,66.06 469.89,66.23 469.8,66.07 C469.776334,66.008807 469.738661,65.9540095 469.69,65.91 L469.52,65.84 C469.41,65.84 468.74,64.41 468.63,64.37 L467.29,63.99 L446.73,63.99 L446.9,63.86 C446.712725,63.8521104 446.539475,63.7585595 446.430158,63.6062967 C446.320841,63.4540339 446.287596,63.2599666 446.34,63.08 L457.43,27.13 C457.68,26.7 457.03,25.23 456.18,23.64 C456.582994,22.6818292 456.267178,21.5723166 455.42,20.97 C455.5,20.76 455.56,20.53 455.62,20.31 C455.68,20.09 454.04,19.31 453.97,19.24 C453.97,19.58 455.29,20.57 455.17,20.81 L453.55,19.99 C453.68,19.72 453.81,19.46 453.95,19.2 C453.03,17.66 449.39,16.39 449.22,16.2 L449.22,16.14 C449.230002,16.0335678 449.230002,15.9264322 449.22,15.82 C449.150459,15.4662788 448.926821,15.1619854 448.61,14.99 L448.49,14.84 C448.202133,14.5862032 447.860103,14.4015068 447.49,14.3 L447.42,14.3 C447.35,14.3 447.27,14.44 447.21,14.53 C446.21,15.9 445.21,17.22 444.21,18.67 C443.344546,20.0712767 442.225425,21.2989179 440.91,22.29 C438.97,23.66 437.02,25.01 435.06,26.29 C433.68,27.21 432.28,28.08 430.89,28.96 L428.49,30.46 L428.1,30.73 C428.49,30.86 428.74,31.43 429.18,31.25 C429.24,31.25 429.3,31.43 429.37,31.55 C429.25,31.81 429.15,31.86 428.94,31.8 C428.44,31.67 427.94,32.18 427.52,32.6 C427.505869,32.6927985 427.505869,32.7872015 427.52,32.88 C427.01,32.69 426.96,32.72 426.73,33.27 C426.411759,33.3399123 426.102934,33.4473295 425.81,33.59 C423.93,34.7766667 422.05,35.9833333 420.17,37.21 C418.34,38.41 416.52,39.7 414.68,40.85 C413.696232,41.2983023 412.804406,41.9256325 412.05,42.7 C412.05,42.75 411.93,42.7 411.87,42.75 C411.594115,42.8234438 411.32615,42.9239307 411.07,43.05 C409.15,44.27 407.23,45.5 405.31,46.74 C404.82,47.06 404.31,47.41 403.87,47.74 C403.87,47.28 404.33,47.53 404.2,47.43 C404.069446,47.2724634 403.967872,47.0930168 403.9,46.9 L402.76,47.9 L402.76,47.9 C402.56,48.09 402.33,48.48 402.18,48.44 C401.77,48.34 401.46,48.73 401.12,48.96 L401.83,48.96 C401.785496,49.1108458 401.69008,49.2416012 401.56,49.33 C401.37,49.43 401.15,49.41 401.01,49.6 C400.73,49.98 400.76,49.28 400.52,49.44 C399.97,49.78 399.41,49.99 398.86,50.29 C398.11,50.68 397.36,51.11 396.62,51.52 L396.62,51.52 C395.889521,51.8158278 395.213562,52.2315431 394.62,52.75 C394.610365,52.8297099 394.610365,52.9102901 394.62,52.99 L394.89,52.99 C394.42,53.21 393.97,53.89 393.52,53.35 C393.52,53.35 393.41,53.41 393.35,53.42 C392.92,53.52 392.6,54.42 392.11,54.16 C392.11,54.16 392.11,54.16 392.11,54.16 C392.02,54.81 391.66,54.63 391.48,54.68 C391.005992,54.7789638 390.548202,54.9439029 390.12,55.17 C389.75,55.38 389.37,55.54 389,55.76 C388.492515,56.1330092 387.95767,56.467287 387.4,56.76 C385.517631,57.6679437 383.737549,58.7742096 382.09,60.06 C380.954616,60.8816541 379.866238,61.7663784 378.83,62.71 C377.547165,63.8737563 376.399892,65.1786956 375.41,66.6 C374.829282,66.8867709 374.447398,67.4634146 374.41,68.11 C374.22,69.17 373.67,70.93 374.01,72.04 C374.028448,72.1391491 374.028448,72.2408509 374.01,72.34 C373.92,72.97 375.95,74.99 375.85,75.69 C376.15,75.62 376.28,75.75 376.31,76.22 C376.356639,76.6398914 376.440298,77.0548392 376.56,77.46 L376.56,77.46 C376.606906,77.5879761 376.670812,77.7090616 376.75,77.82 C376.905283,77.9586478 377.046011,78.1127795 377.17,78.28 L377.17,78.28 C377.17,78.28 377.17,78.28 377.17,78.28 L377.28,78.43 L377.35,78.51 C377.421193,78.7189408 377.451743,78.9395758 377.44,79.16 C377.44,79.35 377.72,79.68 377.86,79.64 L377.86,79.64 C377.884268,79.7091006 377.914377,79.776009 377.95,79.84 C377.993119,79.9241003 378.043299,80.0043886 378.1,80.08 C378.222116,80.2312161 378.375666,80.3540564 378.55,80.44 C378.634749,80.4802375 378.726376,80.5039927 378.82,80.51 C378.889711,80.5190005 378.960289,80.5190005 379.03,80.51 L379.09,80.51 L379.16,80.51 L379.27,80.51 L379.47,80.51 C379.625269,80.5380384 379.778844,80.5747628 379.93,80.62 L380.07,80.62 L380.15,80.62 L384.68,80.62 L405,77.53 Z M375.49,67.09 C375.40764,67.6652576 375.079146,68.176248 374.59,68.49 C374.763729,67.8323772 375.036878,67.2051455 375.4,66.63 C375.457839,66.7765508 375.488342,66.9324572 375.49,67.09 L375.49,67.09 Z M396.61,51.42 L397.35,51.42 C396.89,51.89 396.89,51.9 396.61,51.42 Z M402.82,63.31 L402.57,63.31 C402.719457,63.1808662 402.827326,63.0103642 402.88,62.82 C402.88,62.74 403.09,62.76 403.21,62.82 C403.08,62.99 402.95,63.16 402.82,63.31 Z M424.44,77.93 C424.44,78.29 424.64,78.68 424.2,78.81 L423.82,78.53 C424.39,78.6 424.11,78.08 424.44,77.93 Z M423.27,82.1 C423.11,82.42 423.18,82.81 422.76,83.01 C422.89,82.24 422.89,82.24 423.27,82.1 Z M417,96.78 L416.79,96.57 L417.47,94.98 C417.47,94.81 417.47,94.56 417.59,94.49 C417.71,94.42 417.85,94.12 417.97,93.89 C418.693319,92.5936744 419.344316,91.2582977 419.92,89.89 C419.98,89.79 420.15,89.65 420.18,89.67 C420.42,89.81 420.53,89.67 420.69,89.67 C420.55,89.96 420.41,90.25 420.26,90.54 C420.11,90.83 417.69,95.49 417,96.78 Z M420.25,91.63 L420.14,91.57 L420.52,90.88 C420.62,91.22 420.35,91.38 420.25,91.6 L420.25,91.63 Z M420.55,90.81 C420.62,90.63 420.69,90.45 420.75,90.27 L420.91,90.36 L420.55,90.81 Z M421.55,88.81 L421.39,88.74 C421.58,88.48 421.53,88.12 421.82,87.92 L421.55,88.81 Z M421.87,87.81 L422.42,86.45 C422.385928,86.9649628 422.201666,87.4586459 421.89,87.87 L421.87,87.81 Z M422.68,84.88 C422.27,85.88 421.86,86.97 421.43,88 C421.2,88.52 420.93,89 420.68,89.53 L420.17,89.13 C420.17,89 420.31,88.89 420.28,88.77 C420.231097,88.5887606 420.325667,88.3996215 420.5,88.33 C420.58,88.28 420.69,88.23 420.7,88.15 C420.75,87.91 420.95,88.15 421.1,88.15 L421.43,87.29 L420.94,87.19 C421.02,86.96 421.1,86.77 421.17,86.58 L421.5,86.2 C421.5,86.09 421.44,85.94 421.5,85.87 C421.722827,85.5268394 421.885178,85.1480199 421.98,84.75 C422.018456,84.6724335 422.069098,84.6015339 422.13,84.54 L422.74,84.73 C422.731925,84.8009 422.718554,84.8710961 422.7,84.94 L422.68,84.88 Z M422.95,84.12 C422.89,84.31 422.74,84.24 422.58,84.12 C422.42,84 422.34,84.35 422.12,84.18 L422.46,83.45 C422.39,83.19 422.4,83 422.82,83.08 L422.88,83.47 L423.26,82.9 C423.234467,83.3397234 423.136482,83.7722103 422.97,84.18 L422.95,84.12 Z M423.13,84.7 C423.21,84.48 423.23,84.22 423.51,84.13 C423.5,84.44 423.45,84.68 423.15,84.76 L423.13,84.7 Z M423.61,81.87 L423.69,81.47 L423.85,81.53 L423.73,81.92 L423.61,81.87 Z M423.89,83.25 C423.67,82.83 423.97,82.76 424.19,82.64 L423.89,83.25 Z M424.19,82.63 C424.06,82.48 424,82.35 424.1,82.21 C424.182851,82.0537497 424.249851,81.889598 424.3,81.72 C424.333946,81.6507302 424.377733,81.5867344 424.43,81.53 L424.49,81.53 C424.42,81.99 424.32,82.34 424.21,82.69 L424.19,82.63 Z M434.53,102.85 C434.53,103.27 434.53,103.27 434.07,103.34 C434.24,103.24 434.4,103.08 434.55,102.91 L434.53,102.85 Z M433.43,100.21 C433.62,100.45 433.43,100.53 433.18,100.54 L433.43,100.21 Z M439.93,75.89 L440.16,75.89 C440.16,75.97 440.16,76.06 440.16,76.07 C440.087008,76.0800052 440.012992,76.0800052 439.94,76.07 C439.94,76.07 439.89,75.97 439.95,75.95 L439.93,75.89 Z M434.25,27.28 L434.31,27.44 L432.78,28.44 L432.78,28.21 L434.25,27.28 Z M429.67,31.07 C430.14,30.8 430.61,30.55 431.08,30.31 C431.55,30.07 431.78,29.98 432.14,29.84 C432.037598,29.9449846 431.927273,30.0419372 431.81,30.13 L431.12,30.6 C430.74,30.85 430.36,31.1 429.98,31.33 C429.796432,31.4104946 429.600075,31.4578911 429.4,31.47 C429.51,31.38 429.59,31.19 429.69,31.13 L429.67,31.07 Z M427.25,49.3 L427.3,49.45 C427.23,49.56 427.16,49.67 427.08,49.78 C427.047171,49.7112937 427.010444,49.6445183 426.97,49.58 C427.073626,49.5117436 427.173752,49.4383174 427.27,49.36 L427.25,49.3 Z M423.61,50.37 C423.809026,50.2962664 424.012828,50.2361281 424.22,50.19 C424.22,50.19 424.22,50.46 424.22,50.6 C424.610143,50.581275 424.996442,50.5140926 425.37,50.4 C425.52,50.33 425.7,50.51 425.85,50.61 C426,50.71 426.03,50.99 425.92,51.27 C425.97208,51.328006 426.028947,51.3815281 426.09,51.43 C425.64,51.88 425.26,52.03 424.87,51.58 C424.48,51.13 424.19,50.92 423.87,50.58 L423.6,50.58 L423.61,50.37 Z M423.43,51.67 L424.13,52.06 C423.67,52.59 423.56,52.06 423.36,51.94 L423.43,51.67 Z M422.75,51.05 L423.12,51.34 C422.81,51.48 422.63,51.34 422.39,50.71 C422.53,50.89 422.65,51.01 422.77,51.11 L422.75,51.05 Z M419.24,52.67 C419.99,52.24 420.74,51.79 421.49,51.35 C421.83,51.14 422.1,51.25 422.35,51.76 L421.24,52.25 C421.03,52.34 420.8,52.38 420.75,52.84 C421.34,52.63 421.94,52.45 422.54,52.18 C422.688781,52.0672839 422.883323,52.034555 423.060796,52.0923834 C423.23827,52.1502117 423.376184,52.2912691 423.43,52.47 C423.060383,52.8833233 422.60237,53.2080341 422.09,53.42 C421.612837,53.6187615 421.215315,53.9705509 420.96,54.42 C420.81,54.71 420.53,55.18 420.18,54.92 C420.07,54.84 419.85,55.09 419.67,55.19 C419.474522,55.6653143 418.991749,55.957412 418.48,55.91 L418.03,54.62 C418.42,54.62 418.59,54.25 418.8,54.05 C419.01,53.85 419.39,53.92 419.66,53.75 C419.926074,53.5333358 420.164526,53.2848081 420.37,53.01 C419.841426,52.9827641 419.323609,53.1661579 418.93,53.52 C418.6,53.72 418.29,53.98 417.93,54.15 C417.83,54.15 417.71,54.04 417.45,53.9 C417.767506,53.6079162 418.10138,53.3341401 418.45,53.08 C418.713928,52.9497541 418.984273,52.8329383 419.26,52.73 L419.24,52.67 Z M416.2,43.6 L416.2,44.28 C416.000908,44.3321204 415.811725,44.4165771 415.64,44.53 C415.447563,44.7532925 415.276795,44.9943775 415.13,45.25 C415.051439,44.5161332 415.497921,43.8276335 416.2,43.6 L416.2,43.6 Z M413.79,45.66 L414.05,45.66 C414.045175,45.7165639 414.045175,45.7734361 414.05,45.83 L413.79,45.83 L413.79,45.66 Z M413.4,45.91 C413.25,46.36 413.25,46.36 412.97,46.12 L413.4,45.91 Z M402.75,47.84 L403.08,48.05 C402.79,48.24 402.78,48.25 402.75,47.87 L402.75,47.84 Z M405.81,76.92 L405.97,76.77 L406.73,76.77 L406.73,76.77 L407.48,76.77 L405.81,76.92 Z M423.01,64.62 L416.01,64.29 L414.4,64.29 L413.6,64.29 C413.317671,64.2751301 413.036029,64.3300846 412.78,64.45 L411.98,64.52 L411.85,64.52 L411.71,64.52 L411.71,64.6 L410.53,64.7 C410.3,64.7 410.11,64.7 409.89,64.7 L408.75,64.79 C408.542147,64.8773681 408.341522,64.9810241 408.15,65.1 C407.53,65.49 407.61,65.41 408.32,64.97 C408.511522,64.8510241 408.712147,64.7473681 408.92,64.66 L408.61,64.66 L408.06,64.6 C407.74,64.9 406.93,64.73 407.4,64.4 L406.05,64.4 C406.26,64.33 405.34,64.03 404.7,63.83 C405.502243,63.568198 406.27882,63.2334664 407.02,62.83 C407.689562,62.5490698 408.377898,62.3151693 409.08,62.13 C409.52,61.97 409.96,61.8 410.4,61.6 C410.64,61.49 410.64,61.47 410.73,60.75 C410.05012,60.8585702 409.413404,61.1527056 408.89,61.6 L408.89,61.6 L407.6,61.88 L407.6,61.75 L408.53,61.09 C408.53,60.96 408.47,60.82 408.45,60.75 L407.13,61.56 C407.18,61.79 407.22,62.01 407.27,62.29 L406.59,62.4 C406.65,62.18 406.7,61.95 406.75,61.73 C406,62.01 405.25,62.27 404.5,62.56 C404.26,62.66 404.04,62.77 403.92,62.46 L407.03,60.95 C407.025054,60.8634039 407.025054,60.7765961 407.03,60.69 L406.18,60.98 C407.38,60.24 408.51,59.07 409.79,58.98 C409.79,59.66 409.92,59.71 410.67,59.33 C410.61,59.52 410.59,59.71 410.53,59.76 C410.321569,59.9123517 410.104543,60.0525835 409.88,60.18 C409.97,60.3 410,60.4 410.05,60.39 C410.71,60.39 411.34,60.65 412.05,60.32 C414.2,59.32 416.35,58.32 418.5,57.32 C418.640535,57.2804816 418.76816,57.2045961 418.87,57.1 C419.59,56.21 420.45,56.1 421.22,55.54 C422.46,54.67 423.76,54.28 424.99,53.42 C426.82,52.13 428.64,50.73 430.44,49.32 L434.63,46.04 L435.87,45.04 C435.680903,45.3433896 435.561372,45.6849065 435.52,46.04 L435.2,46.29 L435.2,46.29 L434.14,47.38 L433.3,48.98 C432.140918,51.1544455 431.102674,53.3911771 430.19,55.68 L427.84,62.43 L427.75,62.43 L427.67,63.08 C427.39,63.25 427.45,64.63 426.91,64.62 C426.238313,64.5587596 425.562768,64.552071 424.89,64.6 L423.01,64.62 Z M406.01,62.19 L406.5,62.37 C406.37,62.48 406.18,62.65 406.05,62.22 L406.01,62.19 Z M408.67,61.95 L408.89,61.6 L409.11,61.6 L409.11,61.71 L408.67,61.95 Z M432.89,51.35 C433.11,52.02 433.11,52.05 432.8,52.48 L432.72,52.57 C432.71,52.16 432.47,51.6 432.89,51.35 Z M431.79,56.93 C431.67,57.19 431.52,57.42 431.38,57.66 C431.38,57.58 431.38,57.48 431.38,57.42 C431.71,56.63 432.05,55.83 432.38,55.04 C432.38,54.97 432.52,54.93 432.59,54.89 C432.562054,55.0635556 432.518545,55.234244 432.46,55.4 C432.21,55.91 431.99,56.43 431.75,56.93 L431.79,56.93 Z M435.5,88.83 C435.5,88.94 435.5,89.06 435.5,89.17 L435.38,89.17 C435.38,89.06 435.38,88.95 435.38,88.83 L435.5,88.83 Z M429.1,61.83 C429.05,61.94 429.03,62.12 428.73,61.96 L428.67,61.22 C429.08,61.15 429.08,61.15 428.83,60.67 L429.17,60.45 L428.92,60.3 C429.03,60.08 428.85,59.65 429.24,59.59 L429.43,59.89 C429.54,59.63 429.62,59.43 429.7,59.22 L429.25,58.99 L429.55,58.65 L429.76,58.9 C429.97,58.66 430.12,58.45 429.76,58.09 C429.76,58.09 429.76,57.91 429.76,57.81 L430.21,58 C430.33,57.64 430.45,57.3 430.57,57 L430.23,57 C430.35,56.72 430.43,56.51 430.51,56.31 L430.59,56.31 C430.59,56.52 430.59,56.73 430.59,56.94 C430.774229,56.8014875 430.889764,56.5902455 430.907003,56.3604002 C430.924241,56.1305549 430.841507,55.9044427 430.68,55.74 L431.01,55.65 L431.01,55.65 L431.01,55.65 L431.01,55.65 C430.916966,55.1702537 431.075359,54.6762168 431.43,54.34 C431.3,54.12 431.43,54.08 431.59,54.07 C431.749453,54.0418372 431.906563,54.0017241 432.06,53.95 C431.72,53.36 431.73,53.3 432.15,53.16 L432.05,53.51 L432.42,53.21 C432.42,53.32 432.36,53.44 432.32,53.55 C431.88,54.74 431.44,55.93 430.99,57.11 C430.99,57.16 430.99,57.21 430.94,57.25 C430.54,58.25 430.13,59.25 429.73,60.25 C429.46,60.72 429.27,61.25 429.06,61.78 L429.1,61.83 Z M432.1,96.13 C432.24,95.83 432.38,95.53 432.53,95.24 C432.72,95.66 432.26,95.81 432.05,96.08 L432.1,96.13 Z M431.37,57.77 C431.398815,58.1579935 431.2295,58.5342482 430.92,58.77 L431.37,57.77 Z M433.45,93.7 L433.54,93.76 C433.42,94 433.3,94.24 433.17,94.48 L433.03,94.48 L433.45,93.7 Z M429.89,61.49 C429.850195,61.561216 429.80329,61.6282236 429.75,61.69 C429.735339,61.3969558 429.793758,61.1048635 429.92,60.84 L430.83,58.84 C430.84972,58.9322917 430.84972,59.0277083 430.83,59.12 C430.54,59.89 430.22,60.69 429.89,61.49 Z M434.01,92.35 C434.15,92.08 434.28,91.8 434.41,91.53 C434.572939,91.808373 434.527759,92.1616001 434.3,92.39 C434.225333,92.4635424 434.185357,92.5653 434.19,92.67 C434.19,92.97 434.01,93.14 433.61,93.17 C433.77,92.88 433.89,92.6 434.02,92.35 L434.01,92.35 Z M434.42,91.52 C434.65,91.05 434.65,91.05 434.82,91.01 C434.82,91.41 434.82,91.42 434.43,91.52 L434.42,91.52 Z M435.81,87.61 C436.17,88.06 436.17,88.06 435.53,88.23 C435.65,88 435.73,87.81 435.82,87.6 L435.81,87.61 Z M432.37,53.15 C432.37,52.91 432.28,52.66 432.24,52.42 C432.39,52.42 432.5,52.76 432.65,52.61 C432.691094,52.8301549 432.58078,53.050782 432.38,53.15 L432.37,53.15 Z M433.42,52.83 L433.54,52.91 C433.35,53.35 433.15,53.79 432.95,54.23 L432.83,54.17 C433.04,53.72 433.24,53.28 433.43,52.83 L433.42,52.83 Z M425.5,78.6 L425.26,79.38 L425.11,79.32 C425.21,79.06 425.3,78.8 425.39,78.55 L425.5,78.6 Z M428.7,105.24 C428.34,105.81 427.93,106.35 427.54,106.91 C427.463291,106.834655 427.43277,106.724018 427.46,106.62 C427.588553,106.182193 427.748982,105.754383 427.94,105.34 C428.25,104.73 430.39,100.91 430.74,100.34 C431.27,99.41 433.63,95.34 434.21,94.15 C434.79,92.96 436.47,87.51 436.66,86.95 C437.106463,87.2109647 437.502693,87.5496224 437.83,87.95 C437.08,89.67 435.43,94.44 428.7,105.2 L428.7,105.24 Z M434.64,48.53 L434.77,48.64 L434.38,49.04 L434.64,48.53 Z M438.14,85.11 L438.53,84.85 C438.763432,84.9161352 438.925954,85.1274141 438.93,85.37 C438.966735,85.491916 439.01705,85.609319 439.08,85.72 L438.14,85.11 Z M438.3,84.32 C438.84,84.46 438.89,84.51 439.23,85.05 L438.3,84.32 Z M441.45,77.56 C441.17,78.24 439.82,83.96 439.45,84.7 L438.62,83.87 C438.76,83.67 439.88,80.25 439.98,79.87 C440.08,79.49 440.23,78.87 440.32,78.43 C440.343003,78.1538115 440.343003,77.8761885 440.32,77.6 C440.594345,77.4143325 440.91875,77.3166624 441.25,77.32 C441.303885,77.3170808 441.35647,77.337213 441.394628,77.3753715 C441.432787,77.41353 441.452919,77.4661147 441.45,77.52 L441.45,77.56 Z M442.03,75.96 C441.725386,75.9232563 441.428434,75.8388949 441.15,75.71 L441.5,74.85 L441.35,74.62 L442.06,74.62 C442.09509,74.6461574 442.117006,74.6863359 442.12,74.73 L442.49,74.73 C442.49,74.99 442.49,75.25 442.49,75.5 C442.421443,75.7113119 442.24666,75.8708964 442.03,75.92 L442.03,75.96 Z" id="Shape"></path>
        </g>
    </g>
</svg>