<svg version="1.1" id="svg_logo_black" xmlns="http://www.w3.org/2000/svg" xmlns:xlink="http://www.w3.org/1999/xlink" x="0px" y="0px"
	 width="469px" height="60px" viewBox="0 0 469 60" enable-background="new 0 0 469 60"
	 xml:space="preserve">
<path shape-rendering="auto" fill="#000" d="M2.245,3.338h11.663c7.581,0,11.372,4.995,11.372,14.983c0,3.984-0.671,7.118-2.013,9.401
		c-1.343,2.281-3.017,3.721-5.022,4.316c-2.006,0.595-4.959,0.92-8.861,0.975v23.202H2.245V3.338z M9.384,27.494
		c3.016,0,5.174-0.609,6.475-1.826c1.3-1.218,1.951-3.667,1.951-7.347c0-3.708-0.567-6.226-1.702-7.554
		c-1.135-1.328-3.376-1.992-6.724-1.992V27.494z"/>
<path shape-rendering="auto" fill="#000" d="M69.838,56.215H50.705V3.338h18.801v6.018H57.761v16.768h10.874v6.019H57.761v18.219h12.078V56.215z"/>
<path shape-rendering="auto" fill="#000" d="M122.241,56.215h-6.881l-1.935-10.459h-11.192l-1.96,10.459h-6.793l11.414-52.877h5.852L122.241,56.215z
		 M112.474,40.401l-4.647-25.087h-0.17l-4.395,25.087H112.474z"/>
<path shape-rendering="auto" fill="#000" d="M170.909,56.215h-7.406l-8.283-24.821h-0.623v24.821h-7.139V3.338h9.878c8.052,0,12.078,4.51,12.078,13.53
		c0,4.095-0.595,7.18-1.785,9.255c-1.19,2.075-3.126,3.639-5.81,4.69L170.909,56.215z M154.598,26.539
		c2.767-0.055,4.766-0.712,5.998-1.971c1.23-1.259,1.847-3.549,1.847-6.869c0-3.182-0.561-5.451-1.681-6.807
		c-1.121-1.355-3.037-2.034-5.749-2.034h-0.415V26.539z"/>
<path shape-rendering="auto" fill="#000" d="M214.637,56.215h-19.133V3.338h7.139v46.941h11.995V56.215z"/>
<path shape-rendering="auto" fill="#000" d="M279.955,56.215h-6.881l-1.935-10.459h-11.192l-1.96,10.459h-6.794l11.414-52.877h5.852L279.955,56.215z
		 M270.188,40.401l-4.646-25.087h-0.17l-4.396,25.087H270.188z"/>
<path shape-rendering="auto" fill="#000" d="M305.34,3.338h8.343c4.537,0,7.886,1.114,10.044,3.341c2.158,2.228,3.237,5.707,3.237,10.438
		c0,6.696-2.56,10.943-7.679,12.742c5.563,1.135,8.343,5.534,8.343,13.198c0,4.206-1.011,7.451-3.03,9.734
		c-2.02,2.281-4.896,3.424-8.633,3.424H305.34V3.338z M312.396,8.775v18.387c2.711-0.084,4.683-0.789,5.914-2.117
		c1.23-1.328,1.847-3.638,1.847-6.931c0-3.569-0.533-6.018-1.598-7.346C317.494,9.439,315.439,8.775,312.396,8.775z M312.396,32.432
		v18.427c2.822-0.055,4.835-0.67,6.038-1.846c1.204-1.176,1.806-3.48,1.806-6.911c0-3.652-0.609-6.17-1.826-7.555
		C317.196,33.166,315.19,32.46,312.396,32.432z"/>
<path shape-rendering="auto" fill="#000" d="M377.457,3.338l-10.293,30.339v22.538h-7.139V34.009L349.982,3.338h7.075l6.575,23.825l0.155-0.071
		l6.657-23.753H377.457z"/>
<path shape-rendering="auto" fill="#000" d="M419.359,10.145c-2.324-1.245-4.413-1.868-6.267-1.868c-1.854,0-3.438,0.664-4.752,1.992
		c-1.314,1.328-1.972,2.932-1.972,4.813c0,1.328,0.391,2.746,1.174,4.253c0.782,1.507,2.547,3.919,5.292,7.234
		c2.745,3.315,4.844,6.191,6.297,8.629c1.452,2.438,2.179,5.233,2.179,8.39c0,3.933-1.183,7.125-3.549,9.574
		c-2.365,2.451-5.457,3.676-9.275,3.676c-2.104,0-4.677-0.621-7.721-1.867v-6.35c0.084,0.027,0.166,0.069,0.25,0.125
		c0.414,0.305,1.286,0.768,2.614,1.391c1.328,0.621,2.628,0.934,3.901,0.934c2.075,0,3.783-0.691,5.126-2.077
		c1.342-1.383,2.013-3.154,2.013-5.313c0-1.494-0.342-2.877-1.025-4.15s-1.923-3.005-3.718-5.195l-4.766-5.861
		c-1.851-2.273-3.22-4.351-4.104-6.234c-0.886-1.883-1.328-4.126-1.328-6.729c0-3.849,1.121-6.978,3.361-9.387
		c2.242-2.409,5.146-3.614,8.717-3.614c2.49,0,5.007,0.623,7.553,1.868V10.145z"/>
<path shape-rendering="auto" fill="#000" d="M463.835,10.145c-2.324-1.245-4.413-1.868-6.267-1.868c-1.854,0-3.438,0.664-4.752,1.992
		c-1.314,1.328-1.972,2.932-1.972,4.813c0,1.328,0.391,2.746,1.174,4.253c0.782,1.507,2.547,3.919,5.292,7.234
		c2.745,3.315,4.844,6.191,6.297,8.629c1.452,2.438,2.179,5.233,2.179,8.39c0,3.933-1.183,7.125-3.549,9.574
		c-2.365,2.451-5.457,3.676-9.275,3.676c-2.104,0-4.677-0.621-7.721-1.867v-6.35c0.084,0.027,0.166,0.069,0.25,0.125
		c0.414,0.305,1.286,0.768,2.614,1.391c1.328,0.621,2.628,0.934,3.901,0.934c2.075,0,3.783-0.691,5.126-2.077
		c1.342-1.383,2.013-3.154,2.013-5.313c0-1.494-0.342-2.877-1.025-4.15s-1.923-3.005-3.718-5.195l-4.766-5.861
		c-1.851-2.273-3.22-4.351-4.104-6.234c-0.886-1.883-1.328-4.126-1.328-6.729c0-3.849,1.121-6.978,3.361-9.387
		c2.242-2.409,5.146-3.614,8.717-3.614c2.49,0,5.007,0.623,7.553,1.868V10.145z"/>

</svg>
