
<svg xmlns="http://www.w3.org/2000/svg" height="239.43201" width="944.88135" viewBox="0 0 944.88135 239.43201" id="svg2" version="1.1" xml:space="preserve"><defs id="defs6"><linearGradient id="linearGradient28" spreadMethod="pad" gradientTransform="matrix(-1.53e-5,222.95828,222.95828,1.53e-5,52.228516,-6.5449219)" gradientUnits="userSpaceOnUse" y2="0" x2="1" y1="0" x1="0"><stop id="stop24" offset="0" style="stop-opacity:1;stop-color:#4d4d4e"></stop><stop id="stop26" offset="1" style="stop-opacity:1;stop-color:#393d3d"></stop></linearGradient><linearGradient id="linearGradient48" spreadMethod="pad" gradientTransform="matrix(-1.53e-5,-202.76022,-202.76022,1.53e-5,50.637207,208.1792)" gradientUnits="userSpaceOnUse" y2="0" x2="1" y1="0" x1="0"><stop id="stop44" offset="0" style="stop-opacity:1;stop-color:#606163"></stop><stop id="stop46" offset="1" style="stop-opacity:1;stop-color:#373535"></stop></linearGradient><linearGradient id="linearGradient68" spreadMethod="pad" gradientTransform="matrix(0,148.18497,148.18497,0,142.83545,31.911133)" gradientUnits="userSpaceOnUse" y2="0" x2="1" y1="0" x1="0"><stop id="stop64" offset="0" style="stop-opacity:1;stop-color:#4d4d4e"></stop><stop id="stop66" offset="1" style="stop-opacity:1;stop-color:#393d3d"></stop></linearGradient><linearGradient id="linearGradient88" spreadMethod="pad" gradientTransform="matrix(0,-137.24138,-137.24138,0,142.83545,176.89941)" gradientUnits="userSpaceOnUse" y2="0" x2="1" y1="0" x1="0"><stop id="stop84" offset="0" style="stop-opacity:1;stop-color:#606163"></stop><stop id="stop86" offset="1" style="stop-opacity:1;stop-color:#373535"></stop></linearGradient><clipPath id="clipPath98" clipPathUnits="userSpaceOnUse"><path id="path96" d="M 0,179.574 H 708.661 V 0 H 0 Z"></path></clipPath><clipPath id="clipPath106" clipPathUnits="userSpaceOnUse"><path id="path104" d="M 2.70508,132.449 H 3.08545 V 37.2402 H 2.70508 Z"></path></clipPath><radialGradient id="radialGradient116" spreadMethod="pad" gradientTransform="matrix(38.483643,0,0,-38.483643,3.1533203,87.396484)" gradientUnits="userSpaceOnUse" r="1" cy="0" cx="0" fy="0" fx="0"><stop id="stop112" offset="0" style="stop-opacity:1;stop-color:#ffffff"></stop><stop id="stop114" offset="1" style="stop-opacity:1;stop-color:#373535"></stop></radialGradient><clipPath id="clipPath138" clipPathUnits="userSpaceOnUse"><path id="path136" d="M 5.02441,86.3223 H 28.1294 V 37.0859 H 5.02441 Z"></path></clipPath><radialGradient id="radialGradient148" spreadMethod="pad" gradientTransform="matrix(19.870712,0,0,-19.870712,26.053711,38.638672)" gradientUnits="userSpaceOnUse" r="1" cy="0" cx="0" fy="0" fx="0"><stop id="stop144" offset="0" style="stop-opacity:1;stop-color:#ffffff"></stop><stop id="stop146" offset="1" style="stop-opacity:1;stop-color:#373535"></stop></radialGradient><clipPath id="clipPath170" clipPathUnits="userSpaceOnUse"><path id="path168" d="m 114.95,176.899 h 25.479 V 133.225 H 114.95 Z"></path></clipPath><radialGradient id="radialGradient180" spreadMethod="pad" gradientTransform="matrix(29.461975,0,0,-29.461975,116.1377,175.20947)" gradientUnits="userSpaceOnUse" r="1" cy="0" cx="0" fy="0" fx="0"><stop id="stop176" offset="0" style="stop-opacity:1;stop-color:#ffffff"></stop><stop id="stop178" offset="1" style="stop-opacity:1;stop-color:#373535"></stop></radialGradient><clipPath id="clipPath202" clipPathUnits="userSpaceOnUse"><path id="path200" d="m 114.95,132.939 h 0.386 V 61.9668 h -0.386 z"></path></clipPath><radialGradient id="radialGradient212" spreadMethod="pad" gradientTransform="matrix(28.687042,0,0,-28.687042,115.40723,99.355957)" gradientUnits="userSpaceOnUse" r="1" cy="0" cx="0" fy="0" fx="0"><stop id="stop208" offset="0" style="stop-opacity:1;stop-color:#ffffff"></stop><stop id="stop210" offset="1" style="stop-opacity:1;stop-color:#373535"></stop></radialGradient><clipPath id="clipPath234" clipPathUnits="userSpaceOnUse"><path id="path232" d="M 140.014,69.6299 H 170.65 V 56.9805 h -30.636 z"></path></clipPath><radialGradient id="radialGradient244" spreadMethod="pad" gradientTransform="matrix(14.463715,0,0,-14.463715,149.29199,57.609375)" gradientUnits="userSpaceOnUse" r="1" cy="0" cx="0" fy="0" fx="0"><stop id="stop240" offset="0" style="stop-opacity:1;stop-color:#ffffff"></stop><stop id="stop242" offset="1" style="stop-opacity:1;stop-color:#373535"></stop></radialGradient><clipPath id="clipPath266" clipPathUnits="userSpaceOnUse"><path id="path264" d="m 115.125,61.9668 h 48.764 V 37.0859 h -48.764 z"></path></clipPath><radialGradient id="radialGradient276" spreadMethod="pad" gradientTransform="matrix(26.623459,0,0,-26.623459,136.56543,38.263672)" gradientUnits="userSpaceOnUse" r="1" cy="0" cx="0" fy="0" fx="0"><stop id="stop272" offset="0" style="stop-opacity:1;stop-color:#ffffff"></stop><stop id="stop274" offset="1" style="stop-opacity:1;stop-color:#373535"></stop></radialGradient><clipPath id="clipPath298" clipPathUnits="userSpaceOnUse"><path id="path296" d="m 114.95,124.939 h 25.479 V 108.638 H 114.95 Z"></path></clipPath><linearGradient id="linearGradient308" spreadMethod="pad" gradientTransform="matrix(0,5.9974213,5.9974213,0,127.68994,108.69482)" gradientUnits="userSpaceOnUse" y2="0" x2="1" y1="0" x1="0"><stop id="stop304" offset="0" style="stop-opacity:1;stop-color:#4c4b4c"></stop><stop id="stop306" offset="1" style="stop-opacity:1;stop-color:#373536"></stop></linearGradient><clipPath id="clipPath330" clipPathUnits="userSpaceOnUse"><path id="path328" d="M 52.6992,139.6 H 90.9824 V 92.9463 H 52.6992 Z"></path></clipPath><radialGradient id="radialGradient340" spreadMethod="pad" gradientTransform="matrix(13.55928,0,0,-13.55928,62.015625,103.95654)" gradientUnits="userSpaceOnUse" r="1" cy="0" cx="0" fy="0" fx="0"><stop id="stop336" offset="0" style="stop-opacity:1;stop-color:#ffffff"></stop><stop id="stop338" offset="1" style="stop-opacity:1;stop-color:#373535"></stop></radialGradient><clipPath id="clipPath362" clipPathUnits="userSpaceOnUse"><path id="path360" d="M 29.4907,140.938 H 91.7314 V 93.1406 H 29.4907 Z"></path></clipPath><linearGradient id="linearGradient374" spreadMethod="pad" gradientTransform="matrix(0,14.661224,14.661224,0,60.61084,107.90137)" gradientUnits="userSpaceOnUse" y2="0" x2="1" y1="0" x1="0"><stop id="stop368" offset="0" style="stop-opacity:1;stop-color:#4a494a"></stop><stop id="stop370" offset="0.533707" style="stop-opacity:1;stop-color:#373536"></stop><stop id="stop372" offset="1" style="stop-opacity:1;stop-color:#ffffff"></stop></linearGradient><clipPath id="clipPath396" clipPathUnits="userSpaceOnUse"><path id="path394" d="M 66.1909,41.3994 H 95.6123 V 37.1045 H 66.1909 Z"></path></clipPath><radialGradient id="radialGradient406" spreadMethod="pad" gradientTransform="matrix(18.036484,0,0,-18.036469,72.946289,37.105469)" gradientUnits="userSpaceOnUse" r="1" cy="0" cx="0" fy="0" fx="0"><stop id="stop402" offset="0" style="stop-opacity:1;stop-color:#ffffff"></stop><stop id="stop404" offset="1" style="stop-opacity:1;stop-color:#373535"></stop></radialGradient><clipPath id="clipPath428" clipPathUnits="userSpaceOnUse"><path id="path426" d="M 2.70508,176.858 H 25.8135 V 126.711 H 2.70508 Z"></path></clipPath><radialGradient id="radialGradient438" spreadMethod="pad" gradientTransform="matrix(-19.993317,0,0,19.993332,4.7802734,175.27734)" gradientUnits="userSpaceOnUse" r="1" cy="0" cx="0" fy="0" fx="0"><stop id="stop434" offset="0" style="stop-opacity:1;stop-color:#ffffff"></stop><stop id="stop436" offset="1" style="stop-opacity:1;stop-color:#373535"></stop></radialGradient><linearGradient id="linearGradient480" spreadMethod="pad" gradientTransform="matrix(-143.5062,-37.56279,-37.56279,143.5062,177.04492,145.08789)" gradientUnits="userSpaceOnUse" y2="0" x2="1" y1="0" x1="0"><stop id="stop466" offset="0" style="stop-opacity:1;stop-color:#d0363a"></stop><stop id="stop468" offset="0.477524" style="stop-opacity:1;stop-color:#a43436"></stop><stop id="stop470" offset="0.67452889" style="stop-opacity:1;stop-color:#a43436"></stop><stop id="stop472" offset="0.825836" style="stop-opacity:1;stop-color:#d0363a"></stop><stop id="stop474" offset="0.926971" style="stop-opacity:1;stop-color:#9d3335"></stop><stop id="stop476" offset="0.9723576" style="stop-opacity:1;stop-color:#9d3335"></stop><stop id="stop478" offset="1" style="stop-opacity:1;stop-color:#422f2f"></stop></linearGradient><linearGradient id="linearGradient514" spreadMethod="pad" gradientTransform="matrix(75.841446,-63.638535,-63.638535,-75.841446,73.186523,158.55811)" gradientUnits="userSpaceOnUse" y2="0" x2="1" y1="0" x1="0"><stop id="stop496" offset="0" style="stop-opacity:1;stop-color:#ba3538"></stop><stop id="stop498" offset="0.016861" style="stop-opacity:1;stop-color:#d83539"></stop><stop id="stop500" offset="0.0847168" style="stop-opacity:1;stop-color:#f3795e"></stop><stop id="stop502" offset="0.112366" style="stop-opacity:1;stop-color:#f3795e"></stop><stop id="stop504" offset="0.14009585" style="stop-opacity:1;stop-color:#f3795e"></stop><stop id="stop506" offset="0.477524" style="stop-opacity:1;stop-color:#ee363a"></stop><stop id="stop508" offset="0.625302" style="stop-opacity:1;stop-color:#ee363a"></stop><stop id="stop510" offset="0.70787" style="stop-opacity:1;stop-color:#ee363a"></stop><stop id="stop512" offset="1" style="stop-opacity:1;stop-color:#d83539"></stop></linearGradient><clipPath id="clipPath524" clipPathUnits="userSpaceOnUse"><path id="path522" d="M 0,179.574 H 708.661 V 0 H 0 Z"></path></clipPath><clipPath id="clipPath532" clipPathUnits="userSpaceOnUse"><path id="path530" d="M 33.9204,129.924 H 177.744 V 110.668 H 33.9204 Z"></path></clipPath><radialGradient id="radialGradient548" spreadMethod="pad" gradientTransform="matrix(137.51022,0,0,-137.51022,39.068359,116.26807)" gradientUnits="userSpaceOnUse" r="1" cy="0" cx="0" fy="0" fx="0"><stop id="stop538" offset="0" style="stop-opacity:1;stop-color:#292929"></stop><stop id="stop540" offset="0.235962" style="stop-opacity:1;stop-color:#ffffff"></stop><stop id="stop542" offset="0.758423" style="stop-opacity:1;stop-color:#ffffff"></stop><stop id="stop544" offset="0.8627146" style="stop-opacity:1;stop-color:#ffffff"></stop><stop id="stop546" offset="1" style="stop-opacity:1;stop-color:#292929"></stop></radialGradient></defs><g transform="matrix(1.3333333,0,0,-1.3333333,0,239.432)" id="g10"><g id="g12"><g id="g14"><g id="g20"><g id="g22"><path id="path30" style="fill:url(#linearGradient28);stroke:none" d="M 9.204,179.574 C 4.125,179.574 0,175.428 0,170.332 v 0 -18.461 -93.497 -23.966 h 21.636 c 5.073,0 9.205,4.147 9.205,9.233 v 0 14.733 21.434 L 48.356,58.301 63.259,39.947 c 3.003,-3.77 6.959,-5.524 11.024,-5.524 v 0 h 30.174 L 84.942,58.374 56.788,93.043 97.7,143.418 H 75.354 c -10.015,0 -16.878,-3.047 -22.969,-10.19 v 0 L 30.841,106.71 v 45.161 27.703 z"></path></g></g></g></g><g id="g32"><g id="g34"><g id="g40"><g id="g42"><path id="path50" style="fill:url(#linearGradient48);stroke:none" d="m 9.204,176.858 c -3.586,0 -6.499,-2.936 -6.499,-6.543 v 0 -18.444 -2.712 -88.826 -23.247 h 18.931 c 3.579,0 6.494,2.932 6.494,6.555 v 0 16.692 26.379 c 0,0.28 0.218,0.487 0.487,0.487 v 0 c 0.198,0 0.313,-0.093 0.371,-0.149 v 0 l 21.699,-26.717 15.11,-18.57 c 2.561,-2.904 5.941,-4.659 9.041,-4.659 v 0 h 23.731 l -1.709,1.86 C 95.096,40.897 88.15,50.05 79.447,60.333 v 0 C 67.918,73.925 56.15,89.485 53.23,92.957 v 0 c 4.51,5.533 33.872,41.682 37.358,45.949 v 0 l 1.54,1.81 H 74.187 c -7.069,0 -14.899,-3.566 -19.474,-8.904 v 0 L 28.989,100.156 C 28.944,100.104 28.825,99.98 28.617,99.98 v 0 c -0.269,0 -0.487,0.223 -0.487,0.498 v 0 48.681 2.712 24.987 z"></path></g></g></g></g><g id="g52"><g id="g54"><g id="g60"><g id="g62"><path id="path70" style="fill:url(#linearGradient68);stroke:none" d="m 121.478,179.574 c -5.087,0 -9.227,-4.146 -9.227,-9.213 v 0 -107.793 c 0,-16.676 11.497,-28.16 28.186,-28.16 v 0 h 23.751 c 5.086,0 9.232,4.136 9.232,9.217 v 0 16.438 h -22.026 c -4.563,0 -8.268,3.723 -8.268,8.287 v 0 111.224 z"></path></g></g></g></g><g id="g72"><g id="g74"><g id="g80"><g id="g82"><path id="path90" style="fill:url(#linearGradient88);stroke:none" d="m 121.478,176.899 c -3.596,0 -6.528,-2.936 -6.528,-6.538 v 0 -107.793 c 0,-15.187 10.284,-25.482 25.487,-25.482 v 0 h 23.751 c 3.605,0 6.532,2.932 6.532,6.539 v 0 13.731 h -19.326 c -6.052,0 -10.965,4.939 -10.965,10.994 v 0 108.549 z"></path></g></g></g></g><g id="g92"><g clip-path="url(#clipPath98)" id="g94"><g id="g100"><g id="g102"></g><g id="g130"><g style="opacity:0.5" id="g128" clip-path="url(#clipPath106)"><g id="g126"><g id="g124"><g id="g122"><g id="g120"><path id="path118" style="fill:url(#radialGradient116);stroke:none" d="m 2.705,37.24 h 0.38 v 95.209 h -0.38 z"></path></g></g></g></g></g></g></g><g id="g132"><g id="g134"></g><g id="g162"><g style="opacity:0.25" id="g160" clip-path="url(#clipPath138)"><g id="g158"><g id="g156"><g id="g154"><g id="g152"><path id="path150" style="fill:url(#radialGradient148);stroke:none" d="m 5.024,37.086 h 16.895 c 3.014,0 6.21,2.716 6.21,6.832 V 86.322 H 27.75 V 43.918 C 27.75,40.232 24.727,37.5 21.919,37.5 H 5.024 Z"></path></g></g></g></g></g></g></g><g id="g164"><g id="g166"></g><g id="g194"><g style="opacity:0.25" id="g192" clip-path="url(#clipPath170)"><g id="g190"><g id="g188"><g id="g186"><g id="g184"><path id="path182" style="fill:url(#radialGradient180);stroke:none" d="m 115.336,133.225 v 37.564 c 0,2.815 2.933,5.713 5.744,5.713 0,0 18.213,-0.01 18.964,-0.01 l 0.385,0.407 H 121.08 c -3.022,0 -6.13,-3.089 -6.13,-6.11 v -37.564 z"></path></g></g></g></g></g></g></g><g id="g196"><g id="g198"></g><g id="g226"><g style="opacity:0.25" id="g224" clip-path="url(#clipPath202)"><g id="g222"><g id="g220"><g id="g218"><g id="g216"><path id="path214" style="fill:url(#radialGradient212);stroke:none" d="M 115.336,132.939 H 114.95 V 61.966 h 0.386 z"></path></g></g></g></g></g></g></g><g id="g228"><g id="g230"></g><g id="g258"><g style="opacity:0.5" id="g256" clip-path="url(#clipPath234)"><g id="g254"><g id="g252"><g id="g250"><g id="g248"><path id="path246" style="fill:url(#radialGradient244);stroke:none" d="m 140.014,69.63 c 0,-1.388 0.091,-2.709 0.369,-3.908 0.552,-2.436 1.828,-4.424 3.557,-5.913 2.04,-1.778 4.753,-2.829 8.431,-2.829 h 18.27 l 0.009,0.376 c -2.717,0 -18.547,-0.037 -18.547,-0.037 -4.293,0 -7.064,1.544 -9.05,3.862 -1.121,1.315 -1.938,2.831 -2.365,4.634 -0.259,1.191 -0.281,2.477 -0.281,3.815 z"></path></g></g></g></g></g></g></g><g id="g260"><g id="g262"></g><g id="g290"><g style="opacity:0.25" id="g288" clip-path="url(#clipPath266)"><g id="g286"><g id="g284"><g id="g282"><g id="g280"><path id="path278" style="fill:url(#radialGradient276);stroke:none" d="M 163.889,37.479 140.081,37.5 c -14.59,0 -24.562,9.911 -24.562,24.467 h -0.394 c 0,-14.772 10.159,-24.881 24.956,-24.881 h 23.808 z"></path></g></g></g></g></g></g></g><g id="g292"><g id="g294"></g><g id="g322"><g id="g320" clip-path="url(#clipPath298)"><g id="g318"><g id="g316"><g id="g314"><g id="g312"><path id="path310" style="fill:url(#linearGradient308);stroke:none" d="m 114.95,108.638 h 25.479 V 124.94 H 114.95 Z"></path></g></g></g></g></g></g></g><g id="g324"><g id="g326"></g><g id="g354"><g style="opacity:0.25" id="g352" clip-path="url(#clipPath330)"><g id="g350"><g id="g348"><g id="g346"><g id="g344"><path id="path342" style="fill:url(#radialGradient340);stroke:none" d="m 53.046,92.946 c 0,0 34.156,42.02 37.936,46.654 h -0.49 C 89.513,138.403 52.699,93.092 52.699,93.092 Z"></path></g></g></g></g></g></g></g><g id="g356"><g id="g358"></g><g id="g388"><g id="g386" clip-path="url(#clipPath362)"><g id="g384"><g id="g382"><g id="g380"><g id="g378"><path id="path376" style="fill:url(#linearGradient374);stroke:none" d="m 74.029,140.938 c -6.833,0 -14.431,-3.448 -18.878,-8.611 l -25.66,-31.575 23.785,-7.611 c 0,0 34.607,42.602 38.455,47.288 -4.614,0 -17.702,0.509 -17.702,0.509"></path></g></g></g></g></g></g></g><g id="g390"><g id="g392"></g><g id="g420"><g style="opacity:0.25" id="g418" clip-path="url(#clipPath396)"><g id="g416"><g id="g414"><g id="g412"><g id="g410"><path id="path408" style="fill:url(#radialGradient406);stroke:none" d="m 66.191,41.399 c 2.229,-2.54 5.639,-4.295 8.561,-4.295 h 20.86 L 95.249,37.5 H 74.752 c -2.332,0 -6.216,1.519 -8.561,3.899"></path></g></g></g></g></g></g></g><g id="g422"><g id="g424"></g><g id="g452"><g style="opacity:0.25" id="g450" clip-path="url(#clipPath428)"><g id="g448"><g id="g446"><g id="g444"><g id="g442"><path id="path440" style="fill:url(#radialGradient438);stroke:none" d="M 25.813,176.858 H 8.926 c -3.019,0 -6.221,-2.702 -6.221,-6.818 v -43.329 h 0.393 v 43.329 c 0,3.687 3.015,6.437 5.828,6.437 h 16.887 z"></path></g></g></g></g></g></g></g></g></g><g id="g454"><g id="g456"><g id="g462"><g id="g464"><path id="path482" style="fill:url(#linearGradient480);stroke:none" d="m 153.464,139.813 c -17.459,0 -80.765,-0.029 -80.765,-0.029 v 0 c -10.95,0 -18.176,-3.884 -23.266,-10.084 v 0 l -15.57,-19.19 c 5.658,4.287 13.425,6.83 21.366,6.83 v 0 h 98.235 c 12.453,0 24.418,3.809 24.418,13.624 v 0 c 0,9.786 -1.12,15.204 -1.12,15.204 v 0 c 0,0 -5.847,-6.355 -23.298,-6.355 M 33.786,110.451 c 0.012,0.004 0.014,-0.018 0.014,-0.018 v 0 l 0.063,0.077 c -0.026,-0.019 -0.051,-0.039 -0.077,-0.059 m -0.012,-0.008 c 0.004,0.003 0.008,0.005 0.012,0.008 v 0 c -0.003,-10e-4 -0.007,-0.003 -0.012,-0.008"></path></g></g></g></g><g id="g484"><g id="g486"><g id="g492"><g id="g494"><path id="path516" style="fill:url(#linearGradient514);stroke:none" d="m 175.953,149.438 c -0.051,-0.052 -5.855,-5.963 -22.489,-5.963 v 0 H 74.81 c -12.425,0 -18.269,-5.059 -22.721,-10.533 v 0 L 34.01,110.688 c 0,0 8.542,8.085 21.082,8.085 v 0 h 98.372 c 10.768,0 18.143,2.114 21.949,6.272 v 0 c 2.702,2.98 2.467,5.895 2.461,5.919 v 0 20.493 z"></path></g></g></g></g><g id="g518"><g clip-path="url(#clipPath524)" id="g520"><g id="g526"><g id="g528"></g><g id="g562"><g style="opacity:0.69999701" id="g560" clip-path="url(#clipPath532)"><g id="g558"><g id="g556"><g id="g554"><g id="g552"><path id="path550" style="fill:url(#radialGradient548);stroke:none" d="m 177.744,129.924 c -0.102,-1.979 -2.714,-10.687 -24.28,-10.687 h -96.86 c -8.956,0 -15.907,-2.535 -22.505,-8.377 l -0.179,-0.192 c 5.19,4.17 11.609,8.156 22.684,8.156 h 96.86 c 24.326,0 24.28,11.073 24.28,11.073 z"></path></g></g></g></g></g></g></g><g transform="translate(235.7964,51.9463)" id="g564"><path id="path566" style="fill:#ee3338;fill-opacity:1;fill-rule:nonzero;stroke:none" d="m 0,0 c 7.54,-0.113 15.125,-0.113 22.778,0 2.736,0.108 5.081,0.543 7.042,1.309 1.967,0.759 2.95,2.401 2.95,4.912 0,1.423 -0.432,2.649 -1.309,3.688 -0.876,1.037 -2.453,1.992 -4.745,2.874 l -25.89,9.173 c -6.345,2.4 -10.79,5.408 -13.358,9.009 -2.574,3.607 -3.854,7.918 -3.854,12.949 0,6.989 2.462,12.45 7.377,16.384 4.914,3.933 11.743,6.007 20.485,6.226 2.619,0.11 5.43,0.169 8.436,0.169 3,0 5.815,-0.059 8.44,-0.169 4.255,-0.219 8.003,-0.079 11.224,0.409 3.214,0.494 5.972,1.342 8.273,2.54 V 58.992 c 0,-1.862 -0.493,-3.444 -1.473,-4.756 -0.985,-1.312 -2.312,-2.408 -4.013,-3.275 -1.697,-0.876 -3.633,-1.505 -5.811,-1.889 -2.196,-0.378 -4.487,-0.516 -6.892,-0.408 -2.835,0.108 -5.893,0.164 -9.179,0.164 -3.274,0 -6.331,-0.056 -9.172,-0.164 C 8.25,48.556 6.067,48.111 4.752,47.354 3.452,46.587 2.734,45.438 2.619,43.914 2.515,42.274 2.902,41.069 3.77,40.306 4.646,39.541 6.176,38.718 8.361,37.849 l 25.232,-9.015 c 5.137,-1.854 9.446,-4.555 12.946,-8.111 3.491,-3.55 5.192,-8.493 5.084,-14.827 0,-4.374 -0.848,-8.031 -2.536,-10.977 -1.703,-2.947 -3.994,-5.354 -6.885,-7.213 -2.898,-1.853 -6.287,-3.189 -10.16,-4.015 -3.88,-0.823 -8.005,-1.229 -12.375,-1.229 H 0.489 c -3.164,0 -5.767,0.331 -7.779,0.982 -2.017,0.657 -3.602,1.557 -4.745,2.707 -1.154,1.144 -1.919,2.403 -2.298,3.77 -0.386,1.364 -0.574,2.81 -0.574,4.341 V 1.47 c 0,0.655 0.326,0.874 0.983,0.655 1.528,-0.549 3.631,-1.009 6.3,-1.393 C -4.946,0.348 -2.402,0.108 0,0"></path></g><g transform="translate(337.8784,79.3105)" id="g568"><path id="path570" style="fill:#ee3338;fill-opacity:1;fill-rule:nonzero;stroke:none" d="m 0,0 c 3.072,-3.385 6.296,-7.02 9.689,-10.895 3.381,-3.88 6.797,-7.783 10.234,-11.719 3.452,-3.933 6.858,-7.813 10.241,-11.641 3.393,-3.818 6.558,-7.366 9.509,-10.647 H 21.65 c -3.604,0 -6.664,1.421 -9.18,4.261 L -15.403,-8.692 V -37.2 c 0,-2.189 -0.738,-4.013 -2.2,-5.488 -1.481,-1.473 -3.313,-2.214 -5.498,-2.214 H -34.08 V 55.549 c 0,1.308 0.084,3.002 0.246,5.079 0.164,2.071 0.597,4.099 1.316,6.06 0.705,1.969 1.719,3.662 3.03,5.083 1.305,1.42 3.108,2.124 5.406,2.124 h 12.617 c -1.531,-2.399 -2.57,-5.157 -3.113,-8.268 -0.552,-3.117 -0.825,-6.419 -0.825,-9.915 V 8.68 l 26.894,26.713 c 1.967,1.968 3.733,3.108 5.326,3.443 1.587,0.324 3.621,0.493 6.143,0.493 h 16.225 z"></path></g><g transform="translate(408.1357)" id="g572"><path id="path574" style="fill:#ee3338;fill-opacity:1;fill-rule:nonzero;stroke:none" d="m 0,0 11.801,38.177 c -2.844,0.544 -5.442,1.802 -7.783,3.768 -2.354,1.973 -4.291,5.08 -5.82,9.339 l -21.79,60.796 c -0.66,1.856 -0.775,3.328 -0.335,4.423 0.546,1.419 1.906,2.137 4.1,2.137 H -6.715 L 14.744,56.2 c 0.225,-0.649 0.438,-1.173 0.657,-1.554 0.212,-0.381 0.599,-0.575 1.148,-0.575 0.656,0 1.201,0.713 1.637,2.129 l 13.598,45.882 c 0.548,1.859 1.233,3.772 2.05,5.736 0.823,1.968 1.807,3.743 2.953,5.334 1.143,1.578 2.502,2.883 4.097,3.928 1.582,1.037 3.352,1.56 5.316,1.56 h 14.755 c -2.407,-1.538 -4.532,-3.995 -6.393,-7.38 -1.849,-3.383 -3.494,-7.269 -4.921,-11.63 L 20.482,7.374 C 19.607,4.861 18.537,3.005 17.284,1.797 16.026,0.598 14.256,0 11.953,0 Z"></path></g><g transform="translate(496.9482,153.375)" id="g576"><path id="path578" style="fill:#ee3338;fill-opacity:1;fill-rule:nonzero;stroke:none" d="m 0,0 v -95.372 c 0,-2.29 0.548,-4.153 1.636,-5.567 1.094,-1.422 2.737,-2.131 4.912,-2.131 h 1.307 c 2.731,0 5.224,0.103 7.468,0.33 2.238,0.216 4.343,0.762 6.3,1.637 0.435,0.217 0.663,0.108 0.663,-0.326 v -8.526 c 0,-3.498 -1.345,-6.144 -4.014,-7.947 -2.677,-1.803 -6.09,-2.703 -10.247,-2.703 H 3.606 c -4.155,0 -7.628,0.684 -10.415,2.044 -2.779,1.37 -5.025,3.204 -6.712,5.499 -1.691,2.286 -2.898,4.907 -3.61,7.859 -0.707,2.951 -1.058,6.006 -1.058,9.178 v 88.324 c 0,2.184 0.709,4.014 2.126,5.491 1.423,1.473 3.226,2.21 5.414,2.21 z"></path></g><g transform="translate(551.834,118.6396)" id="g580"><path id="path582" style="fill:#ee3338;fill-opacity:1;fill-rule:nonzero;stroke:none" d="m 0,0 v -74.722 c 0,-3.5 -0.592,-5.959 -1.794,-7.378 -1.209,-1.42 -3.614,-2.131 -7.209,-2.131 h -9.676 v 76.69 c 0,2.296 0.655,4.114 1.965,5.486 1.317,1.37 3.173,2.055 5.584,2.055 z M 0,18.019 C 0,15.836 -0.704,14.003 -2.134,12.53 -3.546,11.06 -5.457,10.316 -7.86,10.316 h -10.819 v 13.278 c 0,5.247 2.519,7.861 7.549,7.861 H 0 Z"></path></g><g transform="translate(600.5049,118.6396)" id="g584"><path id="path586" style="fill:#ee3338;fill-opacity:1;fill-rule:nonzero;stroke:none" d="M 0,0 H 6.557 C 16.389,0 22.56,1.031 25.069,3.112 V -7.216 c 0,-3.605 -1.661,-6.194 -4.991,-7.779 -3.331,-1.589 -7.617,-2.385 -12.865,-2.385 H 0 v -59.149 c 0,-5.134 -2.562,-7.702 -7.703,-7.702 h -10.973 v 66.851 h -17.209 v 9.839 c 0,5.02 2.563,7.541 7.698,7.541 h 9.511 v 11.139 c 0,3.61 0.623,6.854 1.886,9.748 1.252,2.893 2.943,5.352 5.081,7.379 2.126,2.022 4.616,3.57 7.456,4.666 2.847,1.096 5.891,1.633 9.168,1.633 h 20.154 v -8.023 c 0,-3.172 -0.923,-5.57 -2.784,-7.215 -1.851,-1.633 -4.263,-2.455 -7.21,-2.455 H 6.233 C 4.366,16.872 2.87,16.407 1.722,15.48 0.576,14.552 0,12.994 0,10.813 Z"></path></g><g transform="translate(690.4658,92.0889)" id="g588"><path id="path590" style="fill:#ee3338;fill-opacity:1;fill-rule:nonzero;stroke:none" d="m 0,0 c 0,2.839 -1.303,5.108 -3.936,6.803 -2.624,1.689 -6.007,2.54 -10.159,2.54 h -5.409 c -3.38,0 -6.222,-0.358 -8.507,-1.066 -2.3,-0.714 -4.132,-1.645 -5.504,-2.786 -1.368,-1.146 -2.343,-2.402 -2.946,-3.767 -0.607,-1.372 -0.894,-2.762 -0.894,-4.182 v -6.72 h 28.179 c 2.616,0 4.806,0.164 6.549,0.493 C -0.877,-8.354 0,-7.153 0,-5.083 Z m -24.251,-41.947 c 2.512,-0.219 5.403,-0.305 8.686,-0.247 3.277,0.055 6.17,0.135 8.685,0.247 1.634,0 3.517,0.134 5.658,0.407 2.126,0.276 4.23,0.574 6.306,0.905 2.062,0.327 3.979,0.736 5.73,1.225 1.751,0.494 3.11,1.007 4.104,1.556 0.432,0.216 0.647,0.107 0.647,-0.323 v -9.017 c 0,-2.514 -0.823,-4.557 -2.461,-6.147 -1.639,-1.582 -4.041,-2.866 -7.203,-3.849 -1.75,-0.542 -3.802,-0.977 -6.143,-1.306 -2.358,-0.331 -4.836,-0.579 -7.459,-0.739 -2.621,-0.161 -5.326,-0.242 -8.113,-0.242 h -7.947 c -9.294,0 -16.828,2.647 -22.61,7.942 -5.798,5.301 -8.854,12.701 -9.179,22.208 -0.214,4.034 -0.323,8.542 -0.323,13.514 0,4.968 0.109,9.48 0.323,13.519 0.325,8.521 3.443,15.486 9.348,20.894 5.889,5.406 14.79,8.11 26.698,8.11 h 5.9 c 4.37,0 8.504,-0.6 12.382,-1.802 3.88,-1.205 7.251,-2.895 10.15,-5.08 2.893,-2.186 5.159,-4.89 6.801,-8.109 1.643,-3.227 2.466,-6.803 2.466,-10.736 v -6.716 c 0,-7.212 -2.19,-12.481 -6.56,-15.819 -4.366,-3.331 -11.194,-4.996 -20.484,-4.996 h -28.506 v -2.779 c 0,-1.315 0.183,-2.684 0.561,-4.099 0.392,-1.423 1.075,-2.729 2.058,-3.933 0.972,-1.207 2.316,-2.241 4.011,-3.112 1.692,-0.879 3.846,-1.369 6.474,-1.476"></path></g></g></g></g></svg>