<?xml version="1.0" encoding="UTF-8"?>
<svg id="_레이어_1" data-name="레이어 1" xmlns="http://www.w3.org/2000/svg" viewBox="0 0 394.52 350.33">
  <defs>
    <style>
      .cls-1 {
        fill: #fff;
        fill-rule: evenodd;
      }

      .cls-2 {
        fill: #009dd5;
      }

      .cls-3 {
        stroke: #1553ad;
        stroke-miterlimit: 10;
        stroke-width: 4.64px;
      }

      .cls-3, .cls-4 {
        fill: #1553ad;
      }
    </style>
  </defs>
  <g>
    <path class="cls-3" d="m2.32,292.97c0-1.96.4-3.82,1.19-5.56.79-1.75,1.92-3.27,3.39-4.58,1.47-1.31,3.26-2.34,5.36-3.11,2.1-.76,4.46-1.15,7.07-1.15s4.99.38,7.12,1.15c2.13.76,3.93,1.8,5.4,3.11,1.47,1.31,2.62,2.84,3.44,4.58s1.23,3.6,1.23,5.56v9.65c0,1.96-.41,3.82-1.23,5.56-.82,1.75-1.96,3.27-3.44,4.58s-3.27,2.35-5.4,3.11c-2.13.76-4.5,1.14-7.12,1.14s-4.98-.38-7.07-1.14c-2.1-.76-3.89-1.8-5.36-3.11s-2.6-2.83-3.39-4.58c-.79-1.74-1.19-3.6-1.19-5.56v-9.65Zm8.83,47.27c0,.65.12,1.09.37,1.31.25.22.59.33,1.02.33h52.1c.65,0,1.21.2,1.68.61.46.41.7.99.7,1.76s-.23,1.35-.7,1.76c-.46.41-1.02.61-1.68.61H11.73c-1.31,0-2.36-.19-3.15-.57-.79-.38-1.39-.87-1.8-1.47-.41-.6-.67-1.28-.78-2.04-.11-.76-.16-1.53-.16-2.29v-12.43c0-.82.25-1.43.74-1.84s1.12-.61,1.88-.61,1.4.2,1.92.61c.52.41.78,1.02.78,1.84v12.43Zm-3.52-39.91c0,4.2,1.09,7.24,3.27,9.12,2.18,1.88,4.99,2.82,8.42,2.82s6.34-.94,8.55-2.82c2.21-1.88,3.31-4.92,3.31-9.12v-5.07c0-4.2-1.1-7.24-3.31-9.12-2.21-1.88-5.06-2.82-8.55-2.82s-6.24.94-8.42,2.82c-2.18,1.88-3.27,4.92-3.27,9.12v5.07Zm51.61-20.12c0-.82.25-1.43.74-1.84s1.12-.61,1.88-.61,1.4.2,1.92.61c.52.41.78,1.02.78,1.84v39.91c0,.82-.26,1.43-.78,1.84-.52.41-1.16.61-1.92.61s-1.39-.2-1.88-.61-.74-1.02-.74-1.84v-39.91Z"/>
    <path class="cls-3" d="m91.31,339.1c0,.65.12,1.09.37,1.31.25.22.59.33,1.02.33h21.51c.65,0,1.21.2,1.68.61s.7.99.7,1.76-.23,1.35-.7,1.76c-.46.41-1.02.61-1.68.61h-22.33c-1.31,0-2.36-.19-3.15-.57-.79-.38-1.39-.87-1.8-1.47-.41-.6-.67-1.28-.78-2.04-.11-.76-.16-1.53-.16-2.29v-53.98c0-.76.05-1.53.16-2.29.11-.76.37-1.44.78-2.04.41-.6,1.01-1.09,1.8-1.47.79-.38,1.84-.57,3.15-.57h20.69c.65,0,1.21.2,1.68.61.46.41.7,1,.7,1.76s-.23,1.35-.7,1.76c-.46.41-1.02.61-1.68.61h-19.87c-.44,0-.78.11-1.02.33-.24.22-.37.65-.37,1.31v24.29h20.77c.65,0,1.21.21,1.68.61.46.41.7,1,.7,1.76s-.23,1.35-.7,1.76c-.46.41-1.02.61-1.68.61h-20.77v24.95Zm32.47-27.73c0-.76.23-1.35.7-1.76s1.02-.61,1.68-.61h15.38v-28.79c0-.82.25-1.43.74-1.84s1.12-.61,1.88-.61,1.4.2,1.92.61.78,1.02.78,1.84v65.35c0,.82-.26,1.43-.78,1.84-.52.41-1.16.61-1.92.61s-1.39-.21-1.88-.61c-.49-.41-.74-1.02-.74-1.84v-31.82h-15.38c-.65,0-1.21-.2-1.68-.61s-.7-.99-.7-1.76Z"/>
    <path class="cls-3" d="m194.28,312.03c0,.76-.23,1.35-.7,1.76-.46.41-1.02.61-1.68.61h-18.24c-1.31,0-2.36-.19-3.15-.57-.79-.38-1.39-.87-1.8-1.47-.41-.6-.67-1.28-.78-2.04-.11-.76-.16-1.53-.16-2.29v-26.25c0-.82.25-1.43.74-1.84.49-.41,1.12-.61,1.88-.61s1.4.21,1.92.61c.52.41.78,1.02.78,1.84v26.25c0,.65.12,1.09.37,1.31.25.22.58.33,1.02.33h17.42c.65,0,1.21.2,1.68.61.46.41.7,1,.7,1.76Zm35.17,29.61c1.64.49,2.34,1.44,2.13,2.86-.05.76-.36,1.36-.9,1.8-.55.44-1.31.6-2.29.49-3.6-.49-6.84-1.09-9.73-1.8-2.89-.71-5.48-1.57-7.77-2.58-2.29-1.01-4.33-2.17-6.13-3.48-1.8-1.31-3.46-2.84-4.99-4.58-1.47,1.91-3.12,3.56-4.95,4.95-1.83,1.39-3.88,2.58-6.17,3.56s-4.88,1.8-7.77,2.45c-2.89.65-6.13,1.15-9.73,1.47-.98.11-1.73-.07-2.25-.53-.52-.46-.8-1.05-.86-1.76-.16-1.53.57-2.45,2.21-2.78,3.54-.33,6.94-.87,10.18-1.64,3.24-.76,6.11-1.8,8.59-3.11,2.48-1.31,4.46-2.93,5.93-4.87,1.47-1.93,2.21-4.21,2.21-6.83v-2.21c0-.82.25-1.43.74-1.84.49-.41,1.12-.61,1.88-.61s1.4.21,1.92.61c.52.41.78,1.02.78,1.84v2.21c0,2.62.74,4.87,2.21,6.75,1.47,1.88,3.46,3.46,5.97,4.74,2.51,1.28,5.38,2.3,8.63,3.07,3.24.76,6.64,1.36,10.18,1.8Zm-39.34-46.05c0-.76.23-1.35.7-1.76.46-.41,1.02-.61,1.68-.61h15.13v-13c0-.82.25-1.43.74-1.84.49-.41,1.12-.61,1.88-.61s1.4.2,1.92.61c.52.41.78,1.02.78,1.84v33.45c0,.82-.26,1.43-.78,1.84-.52.41-1.16.61-1.92.61s-1.39-.2-1.88-.61c-.49-.41-.74-1.02-.74-1.84v-15.7h-15.13c-.65,0-1.21-.2-1.68-.61-.46-.41-.7-.99-.7-1.76Zm34.43-15.38c0-.82.25-1.43.74-1.84.49-.41,1.12-.61,1.88-.61s1.4.2,1.92.61c.52.41.78,1.02.78,1.84v36.89c0,.82-.26,1.43-.78,1.84-.52.41-1.16.61-1.92.61s-1.39-.21-1.88-.61c-.49-.41-.74-1.02-.74-1.84v-36.89Z"/>
    <path class="cls-3" d="m302.89,329.45c0-.65-.12-1.09-.37-1.31-.25-.22-.59-.33-1.02-.33h-49.65c-.65,0-1.21-.2-1.68-.61-.46-.41-.69-.99-.69-1.76s.23-1.35.69-1.76c.46-.41,1.02-.61,1.68-.61h50.46c1.31,0,2.36.19,3.15.57.79.38,1.39.87,1.8,1.47.41.6.67,1.28.78,2.04.11.76.16,1.53.16,2.29v15.13c0,.82-.25,1.43-.74,1.84-.49.41-1.12.61-1.88.61s-1.41-.21-1.92-.61c-.52-.41-.78-1.02-.78-1.84v-15.13Zm-48.01-22.98c0,.65.12,1.09.37,1.31.25.22.58.33,1.02.33h23.96c.65,0,1.21.21,1.68.61.46.41.7,1,.7,1.76s-.23,1.35-.7,1.76c-.46.41-1.02.61-1.68.61h-24.78c-1.31,0-2.36-.19-3.15-.57-.79-.38-1.39-.87-1.8-1.47-.41-.6-.67-1.28-.78-2.04-.11-.76-.16-1.53-.16-2.29v-21.35c0-.76.05-1.53.16-2.29.11-.76.37-1.44.78-2.04.41-.6,1.01-1.09,1.8-1.47.79-.38,1.84-.57,3.15-.57h21.51c.65,0,1.21.2,1.68.61.46.41.7,1,.7,1.76s-.23,1.35-.7,1.76c-.46.41-1.02.61-1.68.61h-20.69c-.44,0-.78.11-1.02.33-.25.22-.37.65-.37,1.31v21.35Zm65.84-10.14c0,.76-.23,1.35-.7,1.76-.46.41-1.02.61-1.68.61h-10.88v15.29c0,.82-.26,1.43-.78,1.84-.52.41-1.16.61-1.92.61s-1.39-.2-1.88-.61c-.49-.41-.74-1.02-.74-1.84v-33.78c0-.82.25-1.43.74-1.84.49-.41,1.12-.61,1.88-.61s1.4.2,1.92.61c.52.41.78,1.02.78,1.84v13.74h10.88c.65,0,1.21.2,1.68.61.46.41.7,1,.7,1.76Z"/>
    <path class="cls-3" d="m336.67,339.1c0,.65.12,1.09.37,1.31.25.22.58.33,1.02.33h21.51c.65,0,1.21.2,1.68.61.46.41.7.99.7,1.76s-.23,1.35-.7,1.76c-.46.41-1.02.61-1.68.61h-22.33c-1.31,0-2.36-.19-3.15-.57-.79-.38-1.39-.87-1.8-1.47-.41-.6-.67-1.28-.78-2.04-.11-.76-.16-1.53-.16-2.29v-53.98c0-.76.05-1.53.16-2.29.11-.76.37-1.44.78-2.04.41-.6,1.01-1.09,1.8-1.47.79-.38,1.84-.57,3.15-.57h20.69c.65,0,1.21.2,1.68.61.46.41.7,1,.7,1.76s-.23,1.35-.7,1.76c-.46.41-1.02.61-1.68.61h-19.87c-.44,0-.78.11-1.02.33-.25.22-.37.65-.37,1.31v24.29h20.77c.65,0,1.21.21,1.68.61.46.41.7,1,.7,1.76s-.23,1.35-.7,1.76c-.46.41-1.02.61-1.68.61h-20.77v24.95Zm32.47-27.73c0-.76.23-1.35.7-1.76.46-.41,1.02-.61,1.68-.61h15.38v-28.79c0-.82.25-1.43.74-1.84.49-.41,1.12-.61,1.88-.61s1.4.2,1.92.61c.52.41.78,1.02.78,1.84v65.35c0,.82-.26,1.43-.78,1.84-.52.41-1.16.61-1.92.61s-1.39-.21-1.88-.61c-.49-.41-.74-1.02-.74-1.84v-31.82h-15.38c-.65,0-1.21-.2-1.68-.61-.46-.41-.7-.99-.7-1.76Z"/>
  </g>
  <path class="cls-4" d="m260.68,64.21c-2.27,0-4.41-1.37-5.28-3.6-8.58-21.84-32.29-33.04-52.88-24.96-2.92,1.14-6.21-.29-7.36-3.21s.29-6.21,3.21-7.36c26.41-10.37,56.73,3.71,67.59,31.38,1.15,2.92-.29,6.21-3.21,7.36-.68.27-1.38.39-2.07.39Z"/>
  <path class="cls-4" d="m277.01,51.89c-2.23,0-4.35-1.32-5.25-3.52-5.97-14.49-16.92-25.91-30.84-32.13-13.81-6.18-28.9-6.5-42.48-.91-2.9,1.2-6.22-.19-7.41-3.09-1.19-2.9.19-6.22,3.09-7.41,16.49-6.79,34.76-6.43,51.44,1.04,16.58,7.42,29.61,20.97,36.7,38.17,1.19,2.9-.19,6.22-3.09,7.41-.71.29-1.44.43-2.16.43Z"/>
  <g>
    <path class="cls-2" d="m214.19,71.68c-4.72-1-7.74-5.64-6.74-10.37,1-4.72,5.64-7.74,10.37-6.74,20.63,4.44,38.32,15.79,50.85,31.3,12.52,15.51,19.89,35.17,19.89,56.24,0,3.76-.27,7.66-.79,11.68-.52,3.97-1.28,7.81-2.27,11.49-1.25,4.67-6.04,7.44-10.71,6.19-4.67-1.25-7.44-6.04-6.19-10.71.84-3.13,1.46-6.22,1.86-9.24.39-2.97.59-6.12.59-9.42,0-17-5.92-32.83-15.99-45.29-10.06-12.46-24.27-21.57-40.86-25.15h0Z"/>
    <path class="cls-2" d="m129.4,160.77c1.25,4.67-1.52,9.46-6.19,10.71-4.67,1.25-9.46-1.53-10.71-6.19-.99-3.69-1.75-7.53-2.27-11.49-.53-4.01-.79-7.91-.79-11.68,0-21.07,7.37-40.73,19.89-56.24,12.53-15.51,30.21-26.86,50.85-31.3,4.72-1,9.36,2.02,10.37,6.74,1,4.72-2.02,9.36-6.74,10.37-16.58,3.57-30.8,12.69-40.86,25.14-10.07,12.47-15.99,28.3-15.99,45.29,0,3.3.2,6.45.59,9.42.4,3.02,1.02,6.1,1.86,9.24h0Z"/>
    <path class="cls-4" d="m266.66,142.12c0-7.25,5.88-13.14,13.14-13.14s13.14,5.88,13.14,13.14c0,25.94-10.51,49.42-27.52,66.42-17,17-40.48,27.52-66.42,27.52s-49.42-10.51-66.42-27.52c-17-17-27.52-40.49-27.52-66.42,0-7.25,5.88-13.14,13.14-13.14s13.14,5.88,13.14,13.14c0,18.69,7.57,35.6,19.82,47.85,12.24,12.24,29.16,19.82,47.85,19.82s35.6-7.57,47.85-19.82c12.24-12.24,19.82-29.16,19.82-47.85h0Z"/>
    <g>
      <path class="cls-1" d="m221.22,49.62c7.64,0,13.84,6.2,13.84,13.84s-6.2,13.84-13.84,13.84-13.84-6.2-13.84-13.84,6.2-13.84,13.84-13.84h0Z"/>
      <path class="cls-4" d="m221.22,81.75c-10.09,0-18.29-8.21-18.29-18.29s8.21-18.29,18.29-18.29,18.29,8.21,18.29,18.29-8.21,18.29-18.29,18.29Zm0-27.68c-5.18,0-9.39,4.21-9.39,9.39s4.21,9.39,9.39,9.39,9.39-4.21,9.39-9.39-4.21-9.39-9.39-9.39Z"/>
    </g>
    <g>
      <path class="cls-1" d="m176.33,49.62c7.64,0,13.84,6.2,13.84,13.84s-6.2,13.84-13.84,13.84-13.84-6.2-13.84-13.84,6.2-13.84,13.84-13.84h0Z"/>
      <path class="cls-2" d="m176.33,81.75c-10.09,0-18.29-8.21-18.29-18.29s8.21-18.29,18.29-18.29,18.29,8.21,18.29,18.29-8.21,18.29-18.29,18.29Zm0-27.68c-5.18,0-9.39,4.21-9.39,9.39s4.21,9.39,9.39,9.39,9.39-4.21,9.39-9.39-4.21-9.39-9.39-9.39Z"/>
    </g>
  </g>
  <g>
    <circle class="cls-4" cx="222.93" cy="142.39" r="10.78"/>
    <circle class="cls-4" cx="175.07" cy="142.39" r="10.78"/>
  </g>
</svg>