<svg xmlns="http://www.w3.org/2000/svg" width="378.129" height="121.482" version="1.1" viewBox="0 0 100.04663 32.142114">
  <g>
    <path d="m 6.042278,23.593604 c -1.142731,-0.53535 -2.080553,-0.96643 -2.080553,-1.83916 0,-0.66645 0.534446,-1.15197 1.589491,-1.15197 0.387686,0 0.70429,0.0461 1.031973,0.10529 0.17169,0.0306 0.354452,0.0549 0.505836,0.0549 0.921202,0 1.441801,-0.54875 1.786094,-1.59135 l 0.143075,-0.42505 c -0.147684,-0.0606 -1.652264,-0.7209 -3.614665,-0.7209 -3.119908,0 -4.768475,2.00116 -4.767548,4.07849 0,1.04812 0.328599,1.80687 0.841817,2.405 0.661831,0.76937 1.604265,1.27198 2.486697,1.70303 1.286734,0.6309 2.447009,1.09753 2.447009,2.03301 0.0018,0.82984 -0.856591,1.30151 -2.003019,1.30151 -1.571031,0 -2.943609,-0.89859 -3.118992,-1.00566 L 0,30.957274 c 0.228921,0.13021 1.890407,1.18474 4.623556,1.18474 2.913145,-0.002 5.11923,-1.67117 5.11923,-4.24278 0,-2.55593 -2.044549,-3.50484 -3.700508,-4.30558 z" fill="#E51636"></path>
    <path d="m 17.436409,24.787594 5.283541,-6.47982 h -3.764203 l -4.215569,5.59044 h -0.06184 v -5.59044 h -3.104223 l 9.27e-4,13.72482 h 0.184605 c 1.342112,0 2.938995,-0.62074 2.938995,-2.86282 v -3.14991 h 0.06275 l 4.295884,5.84149 h 3.948803 z" fill="#E51636"></path>
    <path d="m 37.142597,28.207954 c 0,-2.67685 -1.762095,-3.93865 -3.792807,-3.93865 -0.662748,0 -1.234114,0.15701 -1.286733,0.17067 v -2.04732 c 0,-1.15242 -0.724592,-1.73303 -1.591334,-1.73303 -0.04244,0 -0.29723,0 -0.29723,0 v 10.89844 c 0.212309,0.0675 1.425197,0.4703 3.044225,0.4703 2.477464,0 3.923879,-1.57057 3.923879,-3.82049 m -2.028861,-0.0531 c 0,1.59596 -0.998739,2.33807 -2.13871,2.33807 -0.48367,0 -0.811353,-0.0924 -0.911969,-0.1136 v -4.45278 c 0.108914,-0.0276 0.445832,-0.11548 0.911969,-0.11548 1.24335,0 2.13871,0.8192 2.13871,2.34363 z" fill="#F46F1B"></path>
    <path d="m 42.111378,24.266994 c -0.904588,0 -1.700259,0.73982 -2.024247,1.06426 -0.144925,-0.34706 -0.407071,-0.92397 -1.363341,-0.92397 -0.252927,0 -0.495684,0.0587 -0.495684,0.0587 0.05265,0.25802 0.209523,0.81459 0.209523,1.79439 v 5.60108 h 1.892248 v -5.28401 c 0.225223,-0.17523 0.714442,-0.64611 1.455651,-0.65536 0.502138,-0.005 0.812288,0.19854 0.859361,0.22614 l 0.692295,-1.56826 c -0.07751,-0.0504 -0.414453,-0.31292 -1.225817,-0.31292 z" fill="#F46F1B"></path>
    <path d="m 47.050622,32.027984 c -2.314093,0 -3.7079,-1.52858 -3.7079,-3.87726 0,-2.33947 1.375346,-3.88373 3.7079,-3.88373 2.339927,0 3.711576,1.54426 3.711576,3.88373 0,2.21116 -1.270117,3.87726 -3.711576,3.87726 m 0,-1.45564 c 1.167656,0 1.829479,-0.9969 1.829479,-2.42162 0,-1.41088 -0.6489,-2.42808 -1.829479,-2.42808 -1.139972,0 -1.825793,0.9881 -1.825793,2.42808 0,1.38871 0.652598,2.42162 1.825793,2.42162 z" fill="#F46F1B"></path>
    <path d="m 56.532193,31.114174 c 0.13292,0.34245 0.45137,0.74676 1.11412,0.74676 0.34983,0 0.80213,-0.0927 0.87689,-0.12191 -0.0573,-0.21596 -0.23077,-0.79568 -0.23077,-2.09855 v -2.60995 c 0,-1.93331 -1.24519,-2.76358 -3.169748,-2.76358 -1.618111,0 -2.773764,0.77534 -2.907615,0.8658 0,0 0.07751,0.13664 0.131072,0.22988 0.160598,0.276 0.304601,0.68304 0.779046,0.68304 0.471683,0 0.876903,-0.36275 1.77595,-0.36275 0.988585,0 1.467645,0.47906 1.467645,1.21196 0,0.0332 0,0.1988 0,0.26123 0,0 -0.34891,0 -0.62029,0 -2.535611,0 -3.871266,0.98165 -3.871266,2.555 0,1.39104 1.059667,2.31777 2.52547,2.31777 1.393806,0 2.007626,-0.81275 2.129476,-0.91472 m -0.16339,-1.12151 c -0.11631,0.0689 -0.62582,0.5289 -1.385495,0.5289 -0.652595,0 -1.150112,-0.39598 -1.150112,-1.05367 0,-0.5543 0.534446,-1.03427 1.559027,-1.03427 0.26584,0 0.97658,0 0.97658,0 z" fill="#F46F1B"></path>
    <path d="m 63.637823,32.027984 c 1.61995,0 2.83284,-0.40291 3.04514,-0.47075 v -10.89753 c 0,0 -0.25384,0 -0.29722,0 -0.86582,0 -1.59134,0.57967 -1.59134,1.73258 v 2.04732 c -0.0535,-0.0134 -0.62398,-0.17068 -1.28673,-0.17068 -2.03071,0 -3.79373,1.26228 -3.79373,3.93913 0,2.24899 1.44734,3.82004 3.92388,3.82004 m 0.24459,-6.21674 c 0.46615,0 0.80306,0.0874 0.91383,0.11548 l -0.002,4.45235 c -0.0997,0.0214 -0.4283,0.11361 -0.91198,0.11361 -1.14089,0 -2.1387,-0.74169 -2.1387,-2.33808 0,-1.52442 0.89535,-2.34317 2.1387,-2.34317 z" fill="#F46F1B"></path>
    <path d="m 97.001463,32.027984 c 1.62087,0 2.83376,-0.40291 3.045137,-0.47075 v -10.89753 c 0,0 -0.253837,0 -0.298137,0 -0.8649,0 -1.58949,0.57967 -1.58949,1.73258 v 2.04732 c -0.0535,-0.0134 -0.62399,-0.17068 -1.28674,-0.17068 -2.03071,0 -3.79373,1.26228 -3.79373,3.93913 0,2.24899 1.44734,3.82004 3.92296,3.82004 m 0.24553,-6.21674 c 0.46522,0 0.80213,0.0874 0.91198,0.11548 v 4.45235 c -0.10154,0.0214 -0.4283,0.11361 -0.91198,0.11361 -1.14088,0 -2.13963,-0.74169 -2.13963,-2.33808 0,-1.52442 0.89628,-2.34317 2.13963,-2.34317 z" fill="#F46F1B"></path>
    <path d="m 75.636543,28.207954 c 0,-2.67685 -1.76302,-3.93865 -3.79373,-3.93865 -0.66275,0 -1.23319,0.15701 -1.28581,0.17067 v -2.04732 c 0,-1.15242 -0.72459,-1.73303 -1.59041,-1.73303 -0.0443,0 -0.29815,0 -0.29815,0 v 10.89844 c 0.21231,0.0675 1.42427,0.4703 3.04514,0.4703 2.47747,0 3.92296,-1.57057 3.92296,-3.82049 m -2.02885,-0.0531 c 0,1.59596 -0.99875,2.33807 -2.13872,2.33807 -0.48367,0 -0.81136,-0.0924 -0.91197,-0.1136 l -9.2e-4,-4.45278 c 0.11076,-0.0276 0.44676,-0.11548 0.91289,-0.11548 1.24243,0 2.13872,0.8192 2.13872,2.34363 z" fill="#F46F1B"></path>
    <path d="m 81.417613,31.114174 c 0.13383,0.34245 0.45229,0.74676 1.11412,0.74676 0.34984,0 0.80213,-0.0927 0.8769,-0.12191 -0.0573,-0.21596 -0.22986,-0.79568 -0.22986,-2.09855 v -2.60995 c 0,-1.93331 -1.24612,-2.76358 -3.17067,-2.76358 -1.61903,0 -2.77377,0.77534 -2.90761,0.8658 0,0 0.0775,0.13664 0.13107,0.22988 0.1606,0.276 0.30461,0.68304 0.77906,0.68304 0.47167,0 0.87689,-0.36275 1.77595,-0.36275 0.98858,0 1.46857,0.47906 1.46857,1.21196 0,0.0332 0,0.1988 0,0.26123 0,0 -0.34799,0 -0.62121,0 -2.5347,0 -3.86943,0.98165 -3.86943,2.555 0,1.39104 1.05782,2.31777 2.52362,2.31777 1.3938,0 2.00855,-0.81275 2.12947,-0.91472 m -0.16244,-1.12151 c -0.11725,0.0689 -0.62676,0.5289 -1.3855,0.5289 -0.65352,0 -1.15105,-0.39598 -1.15105,-1.05367 0,-0.5543 0.53445,-1.03427 1.55904,-1.03427 0.26584,0 0.97751,0 0.97751,0 z" fill="#F46F1B"></path>
    <path d="m 84.998123,26.822904 v 5.03845 h 1.89225 v -5.23599 c 0.10154,-0.0959 0.77351,-0.73751 1.51934,-0.73751 0.97382,0 1.47965,0.70522 1.47965,1.62364 v 4.34986 h 1.88579 v -4.82247 c 0,-2.29191 -1.76026,-2.79774 -2.74515,-2.79774 -1.17965,0 -2.02332,0.74121 -2.27347,0.99411 -0.0794,-0.30783 -0.44122,-0.82842 -1.26551,-0.82842 -0.29168,0 -0.6729,0.0857 -0.7089,0.094 0.0591,0.28658 0.21601,0.9618 0.21601,2.32192 z" fill="#F46F1B"></path>
    <path d="m 30.083112,13.133154 0.585221,0.0214 c 0.273221,0.0161 0.581519,0.0351 1.000583,0.0332 2.876224,-0.0134 4.746319,-1.02827 5.769057,-1.59687 -2.363009,-1.48796 -5.780133,-2.9888305 -10.004011,-3.1586805 -0.278758,0.78829 -2.451619,6.8287205 -2.615925,7.3142405 0.02572,0.0295 0.406144,0.45784 0.880589,1.28674 0.659063,1.07259 1.03013,1.99379 1.281195,2.68607 0.540911,-0.91011 0.633211,-2.31683 0.686746,-3.92664 0.05351,-1.34213 0.284308,-2.65285 2.416545,-2.66024 z" fill="#E51636"></path>
    <path d="m 41.02864,14.600804 c -0.186454,-0.30646 -1.146429,-1.32366 -2.745144,-2.44608 l -0.04434,0.0268 c -1.259037,0.69413 -3.363589,1.85717 -6.477959,1.87008 -0.409839,9.4e-4 -0.649825,-0.0134 -0.860285,-0.0276 l -0.566753,-0.0214 c -1.467644,0.008 -1.763022,0.62953 -1.814714,1.8498 l -0.0094,0.33044 -0.01661,0.61292 c -0.05538,1.34764 -0.230769,2.86885 -1.102115,3.9248 l -0.03874,0.0461 c 0.03695,0.0887 0.07014,0.16612 0.105244,0.22533 0.07751,0.13102 0.180907,0.19023 0.304611,0.19023 0.07751,0 0.17354,-0.0276 0.278759,-0.0758 0.258447,-0.11816 10.502463,-4.88664 12.045799,-5.59923 0.225224,-0.10878 0.649828,-0.29722 0.790133,-0.37846 0.145836,-0.0831 0.212309,-0.20497 0.212309,-0.32674 -0.0019,-0.0683 -0.02224,-0.13852 -0.06098,-0.20122 z" fill="#F46F1B"></path>
    <path d="m 23.018096,3.6848135 -0.09236,0.0188 c -1.017199,0.19103 -2.628845,1.1326 -2.623307,2.84763 0.0019,0.71996 0.282453,1.31811 0.579672,1.95132 0.341533,0.73105 0.729206,1.5581005 0.73106,2.6971305 0.0075,1.72427 -0.983976,2.71562 -1.681801,3.19747 0.317533,-0.0214 0.659063,-0.037 1.028278,-0.037 0.95628,-0.003 1.534112,0.0887 1.569187,0.094 L 27.43391,8.4340335 c -1.331036,-1.99194 -2.878067,-3.54637 -4.415866,-4.74815 z" fill="#E51636"></path>
    <path d="m 18.951133,14.096824 c 0.900901,-0.52062 1.779639,-1.41412 1.775953,-2.92053 -0.0038,-0.90275 -0.323072,-1.5876605 -0.659064,-2.3150105 -0.330451,-0.71444 -0.673824,-1.45289 -0.675667,-2.39992 -0.0075,-2.05841 1.657792,-3.11808 2.704536,-3.44297 C 18.777605,0.72366353 15.674303,-0.00184647 15.100169,3.5273001e-6 c -0.199395,0 -0.369215,0.1366500026999 -0.369215,0.3987400026999 0,0.16236 0.06275,0.61661997 0.08861,0.86399997 0.180907,1.70024 1.408569,12.9226905 1.43995,13.2069905 0.03322,0.2843 0.156927,0.45044 0.406144,0.4486 0.03692,0 0.08308,-0.002 0.132921,-0.005 0.175388,-0.0188 0.533521,-0.0691 0.947047,-0.22801 0.487375,-0.18836 0.80675,-0.35812 1.205502,-0.58704 z" fill="#F46F1B"></path>
  </g>
</svg>